<svg width="1864" height="515" viewBox="0 0 1864 515" fill="none" xmlns="http://www.w3.org/2000/svg">
<path d="M6.55966 14.4767C1.99642 17.7003 0 22.096 0 28.5431C0.285202 36.1624 7.41526 47.2983 37.3615 86.2739C96.9688 163.346 96.1132 162.467 106.381 162.467C111.514 162.467 116.933 161.295 118.359 160.122C120.641 158.657 185.096 75.138 195.364 60.4855C195.649 60.1925 213.046 82.1712 234.151 109.718C272.368 159.829 278.072 165.104 291.762 161.295C298.037 159.829 384.738 49.9357 391.013 35.5763C397.572 20.3377 383.027 6.56438 367.056 12.7184C363.348 14.1837 343.954 37.0415 323.42 64.0021C303.17 90.6697 285.773 112.062 284.917 111.769C283.776 111.476 266.379 89.4975 246.415 63.123C226.166 36.7485 207.627 13.5976 205.061 12.1323C194.793 5.68524 186.808 12.7184 148.876 62.8299C127.771 90.0836 110.373 112.648 109.803 112.648C109.233 112.648 92.1204 91.8419 71.871 66.3465C51.3364 40.8512 33.0835 18.5794 30.8019 16.8211C23.6718 10.6671 13.1193 9.78793 6.55966 14.4767Z" fill="#062032"/>
<path d="M454.897 18.5795C428.659 30.5945 413.543 55.5038 413.543 86.274C413.543 117.044 426.947 140.781 452.045 154.555C463.168 160.709 466.876 161.002 575.253 161.881C651.402 162.467 689.049 161.588 693.041 159.536C701.027 155.141 701.027 134.627 693.327 130.231C689.619 128.473 650.261 127.301 584.95 127.301C526.198 127.301 479.14 126.129 475.147 124.37C467.161 121.44 456.323 111.183 456.323 106.787C456.323 105.029 491.403 103.857 555.859 103.857C665.377 103.857 664.521 103.857 664.521 86.274C664.521 68.9841 661.954 68.691 554.148 68.691C500.245 68.691 456.323 67.5188 456.323 66.3466C456.323 62.2439 465.735 54.6246 477.143 49.6428C485.699 46.1262 504.237 45.247 589.798 45.247C665.377 45.247 692.756 44.3679 695.323 41.7304C697.319 39.6791 698.745 34.1111 698.745 29.1293C698.745 24.1474 697.319 18.5795 695.323 16.5281C692.756 13.8907 663.095 13.0116 579.246 13.0116C476.002 13.0116 465.45 13.5976 454.897 18.5795Z" fill="#062032"/>
<path d="M762.913 18.5795C736.674 30.5945 721.559 55.5038 721.559 86.274C721.559 117.044 734.963 140.781 760.061 154.555C771.184 160.709 774.891 161.002 883.268 161.881C959.417 162.467 997.064 161.588 1001.06 159.536C1009.04 155.141 1009.04 134.627 1001.34 130.231C997.635 128.473 958.277 127.301 892.965 127.301C834.214 127.301 787.155 126.129 783.162 124.37C775.177 121.44 764.339 111.183 764.339 106.787C764.339 105.029 799.419 103.857 863.875 103.857C973.392 103.857 972.537 103.857 972.537 86.274C972.537 68.9841 969.97 68.691 862.163 68.691C808.26 68.691 764.339 67.5188 764.339 66.3466C764.339 62.2439 773.751 54.6246 785.159 49.6428C793.715 46.1262 812.253 45.247 897.814 45.247C973.392 45.247 1000.77 44.3679 1003.34 41.7304C1005.34 39.6791 1006.76 34.1111 1006.76 29.1293C1006.76 24.1474 1005.34 18.5795 1003.34 16.5281C1000.77 13.8907 971.111 13.0116 887.261 13.0116C784.018 13.0116 773.465 13.5976 762.913 18.5795Z" fill="#062032"/>
<path d="M1032.72 17.1146C1030.44 19.7521 1029.59 41.4377 1030.16 89.4979L1031.01 158.072L1039 160.709C1043.85 162.467 1049.55 162.467 1054.68 160.709C1062.1 158.072 1062.38 157.192 1063.24 133.748C1063.81 115.872 1064.95 109.718 1068.09 109.718C1070.08 109.718 1119.71 121.44 1178.18 136.093C1236.36 150.452 1287.69 162.467 1292.26 162.467C1307.37 162.467 1314.79 144.884 1303.95 133.748C1300.81 130.525 1270.01 121.733 1215.82 108.546C1169.9 97.1172 1132.83 87.7396 1133.4 86.8605C1133.97 86.2744 1170.19 77.4829 1213.83 66.9331C1257.75 56.6763 1296.25 47.0057 1299.67 45.2474C1315.36 38.2142 1308.51 13.0119 1291.12 13.0119C1286.27 13.305 1233.79 25.0269 1175.04 39.0933C1116.29 53.4528 1067.23 64.2956 1066.09 63.7095C1064.66 63.1234 1063.81 52.8667 1063.81 41.1447C1063.81 28.5435 1062.38 18.5798 1060.39 16.5285C1055.82 11.8397 1036.72 12.1328 1032.72 17.1146Z" fill="#062032"/>
<path d="M1477.84 6.72128C1468.08 13.2426 1461.01 26.536 1461.01 38.0737C1461.01 47.8557 1466.13 61.1491 1471.5 65.9147C1475.16 68.9245 1475.64 237.889 1475.64 299.841C1475.64 338.468 1475.16 369.82 1474.42 369.82C1473.69 369.82 1415.4 345.491 1344.9 315.894C1255.63 278.271 1214.16 261.968 1207.58 261.968C1190.26 261.968 1190.26 262.219 1190.26 340.223C1190.26 418.228 1190.01 417.476 1209.04 417.476C1226.11 417.476 1226.85 415.469 1226.85 359.035C1226.85 331.946 1227.58 309.623 1228.55 309.623C1229.28 309.623 1287.83 333.953 1358.56 363.55C1439.54 397.41 1490.52 417.476 1495.64 417.476C1500.28 417.476 1506.13 415.971 1508.82 413.964C1513.21 410.453 1513.45 406.44 1513.45 321.663V72.1852L1520.04 64.159C1546.14 32.0541 1510.77 -15.8525 1477.84 6.72128ZM1502.96 27.7902C1511.01 35.3147 1505.89 53.6245 1495.64 53.6245C1484.67 53.6245 1479.06 37.0705 1487.11 28.041C1491.99 22.5229 1497.11 22.2721 1502.96 27.7902Z" fill="#062032"/>
<path d="M918.872 266.487C903.535 272.49 883.817 291.752 877.487 307.011L872.131 319.518H86.7657C64.6117 319.518 58.5254 318.768 55.8474 315.516C51.2219 309.763 40.2666 304.509 32.4762 304.509C23.2251 304.509 10.8091 312.764 6.18353 321.77C-1.36343 337.029 3.50558 355.79 17.8692 364.545C28.3375 371.299 39.0494 370.799 49.7612 363.294C58.0385 357.541 60.9599 357.041 86.2788 357.041H871.401L877 370.799C883.816 387.309 896.719 401.817 912.786 409.822L924.715 415.826L1042.06 416.576L1159.15 417.327L1164.27 410.573C1170.6 402.068 1170.6 397.065 1164.27 388.56L1159.4 382.056H1052.28C937.371 382.056 934.94 381.805 921.794 369.048C909.378 357.041 909.131 357.041 1019.17 357.041C1097.81 357.041 1123.12 356.29 1126.29 353.789C1132.86 348.786 1134.08 336.528 1128.48 329.524L1123.61 323.271L1018.2 322.02L912.786 320.769L921.794 311.764C927.393 306.01 935.182 301.508 941.756 299.757C948.816 298.006 988.253 297.005 1055.93 297.005C1146.5 297.005 1159.64 296.505 1163.05 293.003C1169.62 286.249 1170.6 277.243 1165.24 269.989L1160.37 263.235L1044.98 262.734C941.997 262.484 928.367 262.734 918.872 266.487ZM41.4839 324.521C50.4915 333.777 44.6487 354.539 32.9631 354.539C26.8768 354.539 19.5733 345.034 19.5733 337.029C19.5733 329.024 26.8768 319.518 32.9631 319.518C34.9107 319.518 38.8059 321.77 41.4839 324.521Z" fill="#062032"/>
<path d="M1583.99 265.988C1569.63 271.492 1550.64 289.753 1542.85 305.762C1534.08 324.523 1533.6 354.791 1542.12 373.302C1548.93 388.061 1562.08 402.32 1576.44 410.074C1585.94 415.327 1590.56 415.828 1630.25 416.578L1673.34 417.579V438.591C1673.34 450.098 1672.36 459.604 1671.15 459.604C1667.25 459.604 1658.73 476.114 1658.73 483.368C1658.73 499.127 1676.26 514.637 1694.03 514.637C1711.8 514.637 1729.33 499.127 1729.33 483.368C1729.33 475.613 1721.3 460.855 1715.94 458.603C1713.02 457.603 1712.29 452.6 1712.29 437.09V417.079H1770.72C1823.55 417.079 1830.36 416.578 1838.4 412.326C1854.71 403.821 1863.23 389.062 1863.23 369.55C1863.23 352.79 1856.17 338.782 1843.27 330.277L1833.04 323.273L1745.64 322.522C1646.07 321.772 1646.56 321.772 1646.56 339.532C1646.56 357.543 1644.61 357.043 1733.71 357.043C1801.88 357.043 1814.29 357.543 1818.92 361.045C1825.49 365.548 1825.74 372.302 1819.89 377.805C1815.76 381.557 1804.8 382.058 1712.05 382.058C1616.86 382.058 1608.09 381.557 1598.84 377.305C1572.06 364.797 1566.22 332.278 1586.67 311.015C1599.81 297.757 1606.14 297.007 1720.57 297.007C1811.13 297.007 1824.28 296.507 1827.68 293.005C1834.26 286.25 1835.23 277.245 1829.88 269.991L1825.01 263.237L1709.61 262.736C1612.47 262.486 1592.51 262.987 1583.99 265.988ZM1701.09 472.612C1703.28 475.613 1704.99 480.616 1704.99 483.368C1704.99 490.622 1698.17 499.628 1692.81 499.628C1687.46 499.628 1680.64 490.622 1680.64 483.368C1680.64 476.114 1687.46 467.108 1692.81 467.108C1695.25 467.108 1699.14 469.61 1701.09 472.612Z" fill="#062032"/>
</svg>
