<svg width="2171" height="600" viewBox="0 0 2171 600" fill="none" xmlns="http://www.w3.org/2000/svg">
<path d="M7.6416 15.8796C2.3257 19.6443 0 24.7779 0 32.3072C0.332243 41.2056 8.63833 54.2108 43.5239 99.7291C112.963 189.739 111.966 188.712 123.927 188.712C129.907 188.712 136.22 187.343 137.881 185.974C140.539 184.263 215.626 86.7239 227.587 69.6117C227.919 69.2695 248.186 94.9377 272.772 127.109C317.292 185.632 323.937 191.792 339.885 187.343C347.194 185.632 448.196 57.291 455.506 40.5211C463.147 22.7244 446.203 6.63903 427.597 13.8261C423.278 15.5373 400.686 42.2323 376.764 73.7186C353.175 104.863 332.908 129.846 331.911 129.504C330.582 129.162 310.315 103.494 287.058 72.6919C263.469 41.89 241.873 14.8529 238.883 13.1417C226.922 5.61231 217.619 13.8261 173.431 72.3497C148.845 104.178 128.578 130.531 127.914 130.531C127.249 130.531 107.315 106.232 83.7253 76.4566C59.8038 46.6814 38.5402 20.671 35.8823 18.6175C27.5762 11.4304 15.2832 10.4037 7.6416 15.8796Z" fill="white"/>
<path d="M529.928 20.6709C499.361 34.7028 481.752 63.7935 481.752 99.729C481.752 135.664 497.368 163.386 526.605 179.472C539.563 186.659 543.882 187.001 670.134 188.028C758.843 188.712 802.699 187.685 807.351 185.29C816.654 180.156 816.654 156.199 807.683 151.065C803.364 149.012 757.514 147.643 681.431 147.643C612.988 147.643 558.168 146.274 553.517 144.221C544.214 140.798 531.589 128.82 531.589 123.686C531.589 121.633 572.455 120.264 647.542 120.264C775.123 120.264 774.127 120.264 774.127 99.729C774.127 79.5366 771.136 79.1944 645.548 79.1944C582.754 79.1944 531.589 77.8254 531.589 76.4564C531.589 71.665 542.553 62.7667 555.843 56.9486C565.81 52.8417 587.406 51.815 687.079 51.815C775.123 51.815 807.019 50.7882 810.009 47.708C812.335 45.3123 813.996 38.8097 813.996 32.9916C813.996 27.1735 812.335 20.6709 810.009 18.2752C807.019 15.195 772.465 14.1682 674.786 14.1682C554.514 14.1682 542.221 14.8527 529.928 20.6709Z" fill="white"/>
<path d="M888.747 20.6709C858.181 34.7028 840.572 63.7935 840.572 99.729C840.572 135.664 856.187 163.386 885.425 179.472C898.382 186.659 902.701 187.001 1028.95 188.028C1117.66 188.712 1161.52 187.685 1166.17 185.29C1175.47 180.156 1175.47 156.199 1166.5 151.065C1162.18 149.012 1116.33 147.643 1040.25 147.643C971.808 147.643 916.988 146.274 912.336 144.221C903.033 140.798 890.408 128.82 890.408 123.686C890.408 121.633 931.274 120.264 1006.36 120.264C1133.94 120.264 1132.95 120.264 1132.95 99.729C1132.95 79.5366 1129.96 79.1944 1004.37 79.1944C941.574 79.1944 890.408 77.8254 890.408 76.4564C890.408 71.665 901.372 62.7667 914.662 56.9486C924.629 52.8417 946.225 51.815 1045.9 51.815C1133.94 51.815 1165.84 50.7882 1168.83 47.708C1171.15 45.3123 1172.82 38.8097 1172.82 32.9916C1172.82 27.1735 1171.15 20.6709 1168.83 18.2752C1165.84 15.195 1131.28 14.1682 1033.61 14.1682C913.333 14.1682 901.04 14.8527 888.747 20.6709Z" fill="white"/>
<path d="M1203.06 18.9603C1200.4 22.0405 1199.4 47.3665 1200.07 103.494L1201.06 183.579L1210.37 186.659C1216.02 188.713 1222.66 188.713 1228.64 186.659C1237.28 183.579 1237.61 182.552 1238.61 155.173C1239.27 134.296 1240.6 127.109 1244.26 127.109C1246.58 127.109 1304.39 140.799 1372.5 157.911C1440.28 174.681 1500.08 188.713 1505.4 188.713C1523.01 188.713 1531.65 168.178 1519.02 155.173C1515.37 151.408 1479.48 141.141 1416.36 125.74C1362.87 112.393 1319.68 101.441 1320.34 100.414C1321 99.7296 1363.2 89.4623 1414.03 77.1416C1465.2 65.1631 1510.05 53.8691 1514.04 51.8156C1532.31 43.6018 1524.34 14.1689 1504.07 14.1689C1498.42 14.5111 1437.29 28.2008 1368.85 44.6285C1300.41 61.3984 1243.26 74.0614 1241.93 73.3769C1240.27 72.6924 1239.27 60.7139 1239.27 47.0242C1239.27 32.3078 1237.61 20.6715 1235.29 18.2758C1229.97 12.7999 1207.71 13.1422 1203.06 18.9603Z" fill="white"/>
<path d="M1721.59 6.82308C1710.23 14.4391 1701.98 29.964 1701.98 43.4385C1701.98 54.8625 1707.95 70.3875 1714.2 75.953C1718.47 79.4681 1719.03 276.796 1719.03 349.148C1719.03 394.258 1718.47 430.874 1717.61 430.874C1716.76 430.874 1648.85 402.46 1566.73 367.895C1462.73 323.957 1414.42 304.917 1406.75 304.917C1386.58 304.917 1386.58 305.21 1386.58 396.309C1386.58 487.408 1386.29 486.529 1408.46 486.529C1428.35 486.529 1429.2 484.186 1429.2 418.278C1429.2 386.642 1430.05 360.572 1431.19 360.572C1432.04 360.572 1500.24 388.986 1582.64 423.551C1676.98 463.095 1736.37 486.529 1742.33 486.529C1747.73 486.529 1754.55 484.772 1757.68 482.428C1762.79 478.327 1763.08 473.641 1763.08 374.632V83.2761L1770.75 73.9026C1801.15 36.4084 1759.95 -19.5401 1721.59 6.82308ZM1750.86 31.4287C1760.24 40.2164 1754.27 61.5998 1742.33 61.5998C1729.55 61.5998 1723.01 42.2669 1732.39 31.7216C1738.07 25.2773 1744.04 24.9844 1750.86 31.4287Z" fill="white"/>
<path d="M1070.43 310.194C1052.56 317.205 1029.59 339.7 1022.22 357.521L1015.98 372.128H101.077C75.2686 372.128 68.1785 371.251 65.0589 367.454C59.6704 360.734 46.9081 354.599 37.8328 354.599C27.0558 354.599 12.5919 364.24 7.20344 374.757C-1.58831 392.578 4.08379 414.488 20.8165 424.713C33.0115 432.601 45.4901 432.017 57.9687 423.252C67.6113 416.533 71.0146 415.949 100.509 415.949H1015.13L1021.65 432.017C1029.59 451.298 1044.62 468.242 1063.34 477.591L1077.24 484.602L1350.34 486.355L1356.3 478.467C1363.67 468.534 1363.67 462.691 1356.3 452.759L1350.63 445.163H1225.84C1091.98 445.163 1089.15 444.871 1073.83 429.972C1059.37 415.949 1059.08 415.949 1187.27 415.949C1278.88 415.949 1308.37 415.072 1312.06 412.151C1319.71 406.308 1321.13 391.993 1314.61 383.813L1308.94 376.51L1063.34 373.588L1073.83 363.071C1080.36 356.352 1089.43 351.094 1097.09 349.049C1105.31 347.004 1151.25 345.835 1230.1 345.835C1335.6 345.835 1350.91 345.251 1354.88 341.161C1362.54 333.273 1363.67 322.756 1357.43 314.284L1351.76 306.396L1217.33 305.812C1097.37 305.52 1081.49 305.812 1070.43 310.194ZM48.3262 377.971C58.8196 388.78 52.013 413.027 38.4 413.027C31.3099 413.027 22.8017 401.926 22.8017 392.578C22.8017 383.229 31.3099 372.128 38.4 372.128C40.6688 372.128 45.2065 374.757 48.3262 377.971Z" fill="white"/>
<path d="M1845.25 309.612C1828.52 316.039 1806.4 337.365 1797.32 356.062C1787.11 377.973 1786.55 413.322 1796.47 434.94C1804.41 452.177 1819.73 468.829 1836.46 477.885C1847.52 484.02 1852.91 484.604 1899.14 485.481L1949.34 486.649V511.189C1949.34 524.628 1948.2 535.729 1946.78 535.729C1942.24 535.729 1932.32 555.01 1932.32 563.482C1932.32 581.887 1952.74 600 1973.44 600C1994.14 600 2014.56 581.887 2014.56 563.482C2014.56 554.426 2005.21 537.19 1998.97 534.56C1995.56 533.392 1994.71 527.549 1994.71 509.436V486.065H2062.78C2124.32 486.065 2132.26 485.481 2141.62 480.514C2160.62 470.582 2170.55 453.345 2170.55 430.558C2170.55 410.985 2162.32 394.625 2147.29 384.692L2135.38 376.512L2033.57 375.636C1917.57 374.759 1918.14 374.759 1918.14 395.501C1918.14 416.536 1915.87 415.951 2019.67 415.951C2099.08 415.951 2113.54 416.536 2118.93 420.626C2126.59 425.884 2126.87 433.772 2120.07 440.199C2115.24 444.581 2102.48 445.165 1994.43 445.165C1883.54 445.165 1873.33 444.581 1862.55 439.615C1831.36 425.008 1824.55 387.029 1848.37 362.197C1863.69 346.714 1871.06 345.838 2004.35 345.838C2109.86 345.838 2125.17 345.253 2129.14 341.163C2136.8 333.275 2137.93 322.758 2131.69 314.286L2126.02 306.399L1991.59 305.814C1878.43 305.522 1855.18 306.106 1845.25 309.612ZM1981.67 550.92C1984.22 554.426 1986.2 560.269 1986.2 563.482C1986.2 571.954 1978.26 582.472 1972.02 582.472C1965.78 582.472 1957.84 571.954 1957.84 563.482C1957.84 555.01 1965.78 544.493 1972.02 544.493C1974.86 544.493 1979.4 547.415 1981.67 550.92Z" fill="white"/>
</svg>
