<svg width="673" height="225" viewBox="0 0 673 225" fill="none" xmlns="http://www.w3.org/2000/svg">
<path d="M211.792 113.366C211.792 142.487 192.481 155.552 161.394 155.552H0V2.2047H148.954C194.357 2.2047 200.744 23.4863 200.744 41.2105C200.744 54.7161 196.748 64.9477 185.337 70.9921C205.466 76.7848 211.792 91.3608 211.792 113.366ZM29.6031 60.4773H151.86C168.114 60.4773 173.411 54.4958 173.411 44.642C173.411 34.7882 169.567 27.9882 148.954 27.9882H29.6031V60.4773ZM181.039 108.865C181.039 96.3978 177.649 86.2922 151.86 86.2922H29.6031V129.737H161.394C176.408 129.737 181.039 121.331 181.039 108.865Z" fill="#3B5AD3"/>
<path d="M423.181 155.552V54.3068L354.5 155.552H322.022L253.372 54.3384V155.552H225.978V2.2047H253.795L338.306 127.911L422.817 2.2047H450.634V155.552H423.181Z" fill="#3B5AD3"/>
<path d="M673 111.98C673 139.212 647.302 158.007 607.437 158.007C606.741 158.007 544.629 158.007 543.933 158.007C504.856 157.345 468.685 138.173 468.685 138.173L480.853 112.893C480.853 112.893 517.993 130.303 543.419 130.303C543.994 130.303 606.015 130.303 606.56 130.303C630.926 130.019 645.304 123.943 645.304 111.603C645.304 99.2617 636.375 92.3358 599.356 92.2098H536.82C498.893 92.2098 478.189 79.019 478.189 50.654C478.189 17.0001 505.34 0.472225 544.266 0C544.841 0 606.862 0 607.437 0C643.125 0 665.13 13.3797 665.13 13.3797L654.99 39.0058C654.99 39.0058 631.138 28.1131 606.681 27.6094C606.106 27.6094 544.145 27.6094 543.57 27.6094C518.537 27.6094 506.188 37.0539 506.188 46.8133C506.188 56.5726 508.488 64.6004 551.107 64.6948H613.703C652.175 64.6948 672.97 84.7801 672.97 112.012L673 111.98Z" fill="#3B5AD3"/>
<path d="M152.219 192.117H136.276V223.609H131.315V192.117H115.371V185.712H152.219V192.117Z" fill="#3B5AD3"/>
<path d="M196.433 217.174V223.579H164.615L162.151 220.376V188.636L164.615 185.433H194.927V191.838H167.078V200.734H193.148V207.139H167.078V217.174H196.433Z" fill="#3B5AD3"/>
<path d="M239.913 210.659H244.874C244.874 215.605 237.621 224.643 225.749 224.643C213.877 224.643 204.948 217.135 204.948 205.926C204.948 199.663 207.001 185.11 225.852 185.11C241.179 185.11 243.779 195.785 243.882 196.212L241.487 197.101L239.126 198.098C239.058 197.813 237.176 191.479 225.852 191.479C215.28 191.479 209.909 196.318 209.909 205.926C209.909 215.534 218.428 218.238 225.749 218.238C234.85 218.238 239.571 211.94 239.948 210.338C239.948 210.338 239.948 210.445 239.948 210.659H239.913Z" fill="#3B5AD3"/>
<path d="M290.921 185.431V222.651L286.781 225L260.437 194.007V223.612H255.477V186.783L259.616 184.435L285.96 215.428V185.467H290.921V185.431Z" fill="#3B5AD3"/>
<path d="M346.118 204.72C346.118 216 336.402 224.825 323.948 224.825C311.495 224.825 301.778 216 301.778 204.72C301.778 193.44 311.495 184.616 323.948 184.616C336.402 184.616 346.118 193.44 346.118 204.72ZM341.158 204.72C341.158 197.283 333.289 191.021 323.948 191.021C314.608 191.021 306.739 197.283 306.739 204.72C306.739 212.157 314.608 218.42 323.948 218.42C333.289 218.42 341.158 212.122 341.158 204.72Z" fill="#3B5AD3"/>
<path d="M385.187 217.174V223.579H359.459L356.995 220.376V185.433H361.956V217.174H385.221H385.187Z" fill="#3B5AD3"/>
<path d="M436.944 204.72C436.944 216 427.228 224.825 414.774 224.825C402.321 224.825 392.604 216 392.604 204.72C392.604 193.44 402.321 184.616 414.774 184.616C427.228 184.616 436.944 193.44 436.944 204.72ZM431.983 204.72C431.983 197.283 424.114 191.021 414.774 191.021C405.434 191.021 397.565 197.283 397.565 204.72C397.565 212.157 405.434 218.42 414.774 218.42C424.114 218.42 431.983 212.122 431.983 204.72Z" fill="#3B5AD3"/>
<path d="M488.113 206.464V216.499L487.36 218.812C486.608 219.737 482.194 224.256 467.62 224.256C452.121 224.256 446.647 213.439 446.647 204.151C446.647 194.864 452.497 184.972 468.954 184.972C485.41 184.972 487.839 195.22 488.079 196.394L483.289 198.066C483.289 198.066 481.442 191.377 468.954 191.377C456.466 191.377 451.608 197.995 451.608 204.151C451.608 207.354 452.771 217.851 467.654 217.851C477.097 217.851 481.544 215.787 483.221 214.72V209.631H469.125V203.226H485.684L488.147 206.429L488.113 206.464Z" fill="#3B5AD3"/>
<path d="M499.482 223.615V185.433H504.443V223.615H499.482Z" fill="#3B5AD3"/>
<path d="M544.988 212.508H524.631L518.576 224.571L514.402 221.084L532.363 185.216L536.503 185.144L555.491 221.013L551.386 224.607L544.954 212.473L544.988 212.508ZM541.601 206.103L534.519 192.724L527.813 206.103H541.601Z" fill="#3B5AD3"/>
</svg>
