<svg width="486" height="448" viewBox="0 0 486 448" fill="none" xmlns="http://www.w3.org/2000/svg">
<path fill-rule="evenodd" clip-rule="evenodd" d="M3.30975 259.227H29.42C32.693 259.227 37.0714 258.839 39.717 259.595H42.2913L48.9108 261.435V261.803L51.1173 262.539V262.906L52.5883 263.274C52.7108 263.52 52.8334 263.765 52.956 264.01H53.6915L54.427 265.114H55.1625L57.7368 268.057L58.84 268.793V269.529L59.9433 270.264V271L60.6788 271.368L61.4143 273.576H61.782V274.311H62.1498L62.8853 276.519H63.253V277.622H63.6208V278.358H63.9885V279.462H64.3563V280.566H64.724C64.8466 281.424 64.9692 282.282 65.0918 283.141H65.4595V284.613H65.8273V286.452H66.195V288.659H66.5628V291.235H66.9305V294.178H67.2983V299.329H67.666C68.1526 301.078 67.6532 307.998 67.2983 309.262C67.1757 311.592 67.0531 313.922 66.9305 316.252H66.5628V318.459H66.195V320.299H65.8273V322.138H65.4595V323.61H65.0918V325.082L61.782 332.807L61.0465 333.175V333.911H60.6788L60.311 335.015L59.5755 335.383V336.119L57.369 337.958V338.694H57.0013L56.2658 339.798H55.5303L54.0593 341.637H53.3238C53.2012 341.882 53.0786 342.128 52.956 342.373L51.485 342.741C51.3624 342.986 51.2398 343.231 51.1173 343.477L49.2785 343.844V344.212H48.543V344.58H47.4398V344.948H45.601C41.6459 346.162 36.5753 346.052 31.2588 346.052H3.30975V259.227ZM18.0198 274.311V330.968C26.8884 331.033 40.6629 332.332 45.601 328.393L45.9688 327.289L47.072 326.553V325.817L47.8075 325.449L48.1753 323.978H48.543L49.2785 321.77H49.6463C49.8914 320.299 50.1366 318.827 50.3818 317.356C51.5898 313.33 51.485 307.98 51.485 302.64C51.485 291.518 51.2085 283.621 45.601 277.99L44.13 276.151C43.2007 275.529 40.0645 274.748 38.6138 274.679H34.9363C31.0418 273.603 22.7847 274.275 18.0198 274.311Z" fill="#023F88"/>
<path fill-rule="evenodd" clip-rule="evenodd" d="M104.073 257.388C123.916 257.226 132.733 263.495 138.642 277.254V278.358H139.01V279.462H139.377V280.566H139.745V281.669H140.113V283.141H140.481V284.98H140.848V287.188H141.216V289.395C142.338 293.302 142.319 298.421 142.319 303.375V309.262H141.952C141.829 311.714 141.706 314.167 141.584 316.62H141.216C141.093 317.969 140.971 319.318 140.848 320.667H140.481V322.138H140.113V323.61H139.745V325.082H139.377V326.185H139.01V327.289H138.642V328.393H138.274V329.128H137.906V330.232H137.539L136.803 332.44H136.435L136.068 333.911L135.332 334.279L134.964 335.751L133.861 336.486V337.222L132.022 338.694V339.43L131.287 339.798V340.165H130.551L129.08 342.005H128.345L127.977 342.741H127.242L126.874 343.477L125.403 343.844V344.212L123.196 344.948V345.316H122.093V345.684H121.358V346.052L112.899 347.891H107.751C102.2 347.891 97.9988 347.222 94.144 345.684H93.0408V345.316H92.3053V344.948H91.202V344.58H90.4665V344.212H89.731C89.6085 343.967 89.4859 343.722 89.3633 343.477L87.8923 343.109C87.7697 342.863 87.6471 342.618 87.5245 342.373H86.789L86.0535 341.269H85.318L83.1115 338.694L82.376 338.326V337.59L81.2728 336.854V336.118L80.5373 335.751V335.015L79.8018 334.647L79.434 333.175L78.6985 332.807L75.3888 324.346L74.2855 316.988H73.9178C73.7952 314.903 73.6726 312.818 73.55 310.733C72.9249 308.489 73.1823 304.751 73.1823 301.904C73.1823 294.707 73.5868 288.129 75.3888 282.773V281.301H75.7565V280.198H76.1243V279.094H76.492V277.99H76.8598V277.254H77.2275V276.151H77.5953L77.963 274.679H78.3308V273.943H78.6985V273.208H79.0663V272.472H79.434V271.736L80.1695 271.368V270.632H80.5373L80.905 269.529L81.6405 269.161V268.425L83.1115 267.321V266.585L83.847 266.217L84.9503 264.746H85.6858L86.789 263.274H87.5245C87.6471 263.029 87.7697 262.784 87.8923 262.538H88.6278C88.7504 262.293 88.8729 262.048 88.9955 261.803L90.4665 261.435V261.067L92.673 260.331V259.963H93.7763V259.595H94.5118V259.227H95.9828V258.859H97.4538V258.492H98.9248V258.124H101.131V257.756H104.073V257.388ZM105.912 272.472V272.84H103.338V273.208H102.235V273.576H101.131V273.943H100.396V274.311L98.1893 275.047L97.8215 275.783H97.086L95.615 277.622L94.8795 277.99V278.726L94.144 279.094V279.83L93.4085 280.198L92.673 282.405H92.3053V283.141H91.9375C91.8149 283.877 91.6924 284.612 91.5698 285.348C87.0255 296.971 88.4141 318.669 94.5118 327.289L96.7183 329.128L97.086 329.864H97.8215L98.1893 330.6L99.2925 330.968V331.336C100.511 332.083 107.461 333.895 109.957 333.175V332.807H112.164V332.44L114.37 332.072V331.704L115.841 331.336V330.968H116.577L116.945 330.232H117.68L118.416 329.128H119.151V328.76L119.887 328.393V327.657L121.358 326.553L121.725 325.082L122.461 324.714C122.583 324.1 122.706 323.487 122.829 322.874H123.196L123.564 321.402H123.932V320.299H124.3V318.827H124.667V317.356H125.035V315.516H125.403C125.525 313.677 125.648 311.837 125.771 309.998H126.138C126.261 307.054 126.383 304.111 126.506 301.168H126.138V295.65H125.771V292.706H125.403V290.499L123.932 284.245H123.564L123.196 282.773H122.829V281.669H122.461V280.934L121.725 280.566L121.358 279.094L120.254 278.358V277.622L118.783 276.519V276.151C115.501 273.821 111.556 272.423 105.912 272.472Z" fill="#023F88"/>
<path fill-rule="evenodd" clip-rule="evenodd" d="M151.881 259.227H166.223V285.716C166.223 288.829 166.039 292.766 166.591 295.282C166.468 296.14 166.346 296.998 166.223 297.857H166.591V303.008C166.591 312.583 165.936 323.153 169.901 328.761L170.636 329.128L171.739 330.6H172.475L172.843 331.336H173.578V331.704H174.314V332.072H175.417V332.44H176.888V332.807H179.094V333.175H184.611V332.807L188.656 332.44V332.072L190.862 331.336V330.968H191.598L193.069 329.128L194.172 328.393C197.514 323.418 197.482 312.91 197.482 304.479V259.227H211.824V306.687C211.824 315.737 212.39 326.134 209.618 332.44H209.25V333.175H208.882V333.911H208.514V334.647H208.147V335.383H207.779V336.119L207.043 336.486V337.222L205.94 337.958V338.694L203.734 340.533C203.611 340.779 203.488 341.024 203.366 341.269H202.63L201.895 342.373L200.424 342.741V343.109H199.688V343.477L197.482 344.212V344.58H196.379V344.948H195.643V345.316L189.024 346.788H184.611V347.156H179.094L169.165 345.684V345.316L166.959 344.948V344.58L164.752 343.844V343.477H164.017V343.109L162.546 342.741L162.178 342.005H161.442L160.707 340.901H159.971L159.604 340.165L158.133 339.062V338.326L157.029 337.59V336.854L156.294 336.486V335.751L155.558 335.383C151.715 329.286 151.881 318.17 151.881 308.158V259.227Z" fill="#023F88"/>
<path fill-rule="evenodd" clip-rule="evenodd" d="M285.742 259.227V273.943C283.041 274.93 278.082 274.311 274.709 274.311H251.173V274.679L248.599 275.047V275.415H247.496V275.783L246.025 276.151L244.922 277.622L243.818 277.99V278.726L242.715 279.462V280.198L241.98 280.566L239.773 286.82V288.292C237.185 295.992 237.202 311.048 240.141 319.195V320.667H240.509V321.77H240.876V322.506H241.244C241.367 323.119 241.489 323.733 241.612 324.346L242.347 324.714V325.449L243.451 326.185C243.573 326.553 243.696 326.921 243.818 327.289H244.554L245.289 328.393H246.025V328.761L247.496 329.128V329.496H248.599V329.864H250.07V330.232H253.012V330.6H258.896V330.232H270.664V309.998H251.173V294.546H285.742V346.052H258.528C254.104 346.052 249.04 346.306 245.657 345.316H243.451C240.017 344.271 236.785 342.654 233.889 340.533L231.683 337.958L230.947 337.59V336.854L229.476 335.751V335.015L228.741 334.647V333.911L228.005 333.543C227.883 333.053 227.76 332.562 227.637 332.072L226.902 331.704V330.968H226.534V330.232H226.166V329.128H225.799C225.676 328.638 225.553 328.147 225.431 327.657H225.063V326.553H224.695V325.449H224.328V323.978H223.96V322.506H223.592V321.035H223.224V319.195C220.367 309.834 221.516 291.12 224.328 282.773V281.301H224.695V280.198H225.063V279.094H225.431V277.99H225.799V277.255H226.166V276.151H226.534C226.779 275.415 227.024 274.679 227.27 273.943H227.637C227.76 273.453 227.883 272.962 228.005 272.472L228.741 272.104V271.368L229.476 271V270.264L230.212 269.897V269.161L233.521 266.218L234.625 264.746C237.528 262.689 241.554 261.11 245.289 259.963H247.496C250.745 259.024 255.394 259.227 259.632 259.227H285.742Z" fill="#023F88"/>
<path fill-rule="evenodd" clip-rule="evenodd" d="M296.039 259.227H310.381V295.282C310.381 299.872 309.887 305.675 310.749 309.63C310.812 309.829 310.81 310.043 310.744 310.241C310.678 310.439 310.551 310.612 310.381 310.733V312.573H310.749V316.62H311.117V319.563H311.484V321.77H311.852V323.242H312.22V324.714H312.588V325.817H312.955V326.553H313.323V327.289L314.794 328.393L315.53 329.496H316.265V329.864L318.472 330.6V330.968H319.943C322.264 331.732 325.139 331.704 328.401 331.704H346.788C346.917 329.617 347.974 327.804 348.627 326.185C348.75 325.449 348.872 324.714 348.995 323.978H349.363C349.485 323.242 349.608 322.506 349.73 321.77H350.098V320.667H350.466V319.563H350.834V318.459H351.201V317.356H351.569V316.252H351.937V315.148H352.305C352.918 312.941 353.53 310.733 354.143 308.526C356.938 301.558 359.101 293.722 361.866 286.82C362.479 284.613 363.092 282.405 363.705 280.198H364.073C364.195 279.462 364.318 278.726 364.44 277.99H364.808C364.931 277.255 365.053 276.519 365.176 275.783H365.544V274.679H365.911V273.576H366.279V272.472H366.647V271.368H367.015V270.264H367.382C367.629 269.161 367.871 268.057 368.118 266.953H368.486L370.692 259.227H386.505C396.31 288.166 406.116 317.107 415.925 346.052H399.377C399.336 343.978 398.443 342.748 397.906 341.269V339.798H397.538V338.694H397.17V337.59H396.802V336.486H396.435L395.331 331.704H394.964V330.232H394.596V329.128H394.228V328.025H393.86C393.739 327.289 393.614 326.553 393.493 325.817H393.125C392.257 325.055 387.138 325.449 385.402 325.449H363.337C363.153 326.575 362.546 327.53 362.234 328.393V329.864H361.866V330.968H361.498V332.072H361.131C360.885 333.298 360.64 334.524 360.395 335.751H360.027C359.782 336.977 359.537 338.203 359.292 339.43H358.924V340.901H358.556V342.005H358.189V343.477H357.821C357.698 344.212 357.576 344.948 357.453 345.684H357.085C356.129 346.52 349.145 346.052 347.156 346.052H318.472L310.749 344.58V344.212H310.013V343.844L307.807 343.109L307.071 342.005H306.336L304.129 339.43L302.658 338.326V337.59L301.555 336.854V336.119L300.82 335.751C300.697 335.26 300.574 334.77 300.452 334.279L299.716 333.911L298.613 330.6C296.061 324.227 296.039 316.134 296.039 307.054V259.227ZM368.118 309.998H388.344C388.171 307.337 386.895 305.105 386.138 303.008V301.536H385.77C385.649 300.8 385.523 300.064 385.402 299.329H385.034V298.225H384.667V297.121H384.299V296.017H383.931C383.685 294.791 383.44 293.565 383.196 292.338H382.828V291.235H382.46V290.131H382.092L380.989 285.348H380.621V284.245H380.254V282.773H379.886V281.669H379.518V280.566H379.15V279.462H378.783C378.661 278.726 378.536 277.99 378.415 277.255H378.047V277.622H377.679C377.558 278.358 377.433 279.094 377.312 279.83H376.944V281.301H376.576V282.405H376.208V283.509H375.841V284.613H375.473V286.084H375.105V287.188H374.737V288.292H374.37C374.124 289.518 373.879 290.744 373.634 291.971H373.266C373.021 293.197 372.776 294.423 372.531 295.65H372.163L371.06 300.432H370.692V301.904H370.324L368.118 309.998Z" fill="#023F88"/>
<path fill-rule="evenodd" clip-rule="evenodd" d="M479.178 259.227V274.679H450.126C444.669 274.679 439.046 274.32 435.784 276.519C435.538 276.887 435.295 277.255 435.048 277.622C434.559 277.99 434.067 278.358 433.577 278.726C432.445 280.418 432.099 283.554 432.106 286.452V289.027H432.474V290.499H432.842C432.963 290.989 433.088 291.48 433.21 291.971C433.824 292.461 434.434 292.952 435.048 293.442C435.17 293.688 435.295 293.933 435.416 294.178L437.623 294.914V295.282C439.436 295.999 442.278 295.65 444.61 295.65H465.939C468.025 296.14 470.108 296.631 472.191 297.121V297.489L473.662 297.857C473.784 298.102 473.909 298.347 474.03 298.593H474.765C475.012 298.961 475.255 299.329 475.501 299.696H476.236V300.064C476.483 300.187 476.726 300.31 476.972 300.432V301.168C477.461 301.536 477.954 301.904 478.443 302.272V303.008C478.689 303.13 478.932 303.253 479.178 303.375C479.425 304.111 479.668 304.847 479.914 305.583H480.282V306.687H480.649V307.79H481.017V308.894C481.845 311.267 482.34 313.743 482.488 316.252C483.084 329.292 480.609 338.278 472.927 343.109H472.191V343.477H471.456V343.844H470.352V344.212H469.617V344.58L467.043 344.948C463.192 346.238 457.989 346.052 452.7 346.052H419.603V330.6H453.804C457.757 330.6 461.67 330.639 464.101 329.128C464.222 328.883 464.347 328.638 464.468 328.393H465.204V328.025C465.752 327.522 465.689 327.837 465.939 326.921C467.495 325.616 467.9 319.688 467.043 316.988C466.752 316.071 466.178 315.086 465.939 314.045C464.906 313.461 464.119 312.33 462.997 311.837H461.894V311.469H460.423V311.101H457.481V310.733H435.416V310.366H432.842V309.998H431.371V309.63L428.061 308.894V308.526L426.59 308.158V307.79H425.855C425.733 307.545 425.608 307.3 425.487 307.054H424.751C424.505 306.687 424.262 306.319 424.016 305.951H423.28C423.159 305.705 423.034 305.46 422.913 305.215C422.299 304.725 421.688 304.234 421.074 303.743V303.008C420.828 302.885 420.585 302.762 420.338 302.64C420.217 302.149 420.092 301.658 419.971 301.168C418.046 297.675 417.034 293.752 417.029 289.763C417.007 283 416.985 277.175 418.867 272.472V271.368H419.235C419.482 270.632 419.724 269.897 419.971 269.161H420.338C420.46 268.67 420.585 268.18 420.706 267.689L421.809 266.953V266.218C422.056 266.095 422.299 265.972 422.545 265.85L423.648 264.378H424.384C424.63 264.01 424.873 263.642 425.119 263.274L426.59 262.906C426.712 262.661 426.837 262.416 426.958 262.171C427.572 262.048 428.183 261.925 428.797 261.803V261.435H429.532V261.067L431.739 260.699V260.331H433.21C438.178 258.712 445.809 259.227 452.333 259.227H479.178Z" fill="#023F88"/>
<path fill-rule="evenodd" clip-rule="evenodd" d="M57.0013 374.38H37.5105C34.1717 374.38 31.1025 374.325 28.6845 375.116H27.2135V375.484H26.478V375.852H25.3748C25.2523 376.098 25.1295 376.341 25.007 376.588H24.2715C24.149 376.834 24.0262 377.077 23.9038 377.323H23.1683L19.8585 381.738V382.842H19.4908V383.578H19.123V384.681H18.7553V386.153C14.6982 397.723 14.4357 423.086 23.1683 429.197C25.9804 431.165 30.5148 431.037 35.304 431.037H57.0013C56.8787 436.066 56.7561 441.094 56.6335 446.121H34.9363C30.15 446.121 25.9576 446.11 22.4328 445.017H20.594V444.649C19.8585 444.528 19.123 444.403 18.3875 444.281V443.913C17.652 443.667 16.9165 443.424 16.181 443.177V442.81H15.4455C15.323 442.563 15.2002 442.32 15.0778 442.074H14.3423L13.6068 440.97H12.8713C12.1358 440.113 11.4003 439.254 10.6648 438.395C10.0521 437.905 9.43867 437.412 8.826 436.923V436.187C8.45825 435.941 8.0905 435.698 7.72275 435.452V434.716C7.47746 434.594 7.23254 434.469 6.98725 434.348V433.612C6.74196 433.491 6.49704 433.366 6.25175 433.244C6.12929 432.755 6.00646 432.262 5.884 431.773H5.51625V431.037H5.1485L4.413 428.829H4.04525L3.6775 426.622H3.30975V425.518H2.942V424.415H2.57425C2.45179 423.432 2.32896 422.454 2.2065 421.471H1.83875V420H1.471V417.792H1.10325V415.585H0.7355V412.642H0.36775V406.755H0V401.973H0.36775V397.926L0.7355 392.407H1.10325L1.83875 385.785C2.81942 382.595 3.80008 379.407 4.78075 376.22H5.1485L5.884 374.012H6.25175C6.37421 373.523 6.49704 373.03 6.6195 372.541C6.86479 372.419 7.10971 372.294 7.355 372.173V371.437C7.60029 371.316 7.84521 371.19 8.0905 371.069V370.333C8.45825 370.087 8.826 369.844 9.19375 369.597V368.862L11.768 366.654L12.5035 365.551H13.239L13.9745 364.447H14.71C14.8325 364.2 14.9553 363.958 15.0778 363.711C15.568 363.59 16.0585 363.465 16.5488 363.343V362.975C17.2843 362.729 18.0198 362.486 18.7553 362.239V361.872H19.8585V361.504H20.9618V361.136H22.065V360.768H23.536V360.4H25.007V360.032C35.5492 359.787 46.0914 359.542 56.6335 359.296C57.6923 362.173 57.0186 370.521 57.0013 374.38Z" fill="#023F88"/>
<path fill-rule="evenodd" clip-rule="evenodd" d="M115.474 446.121C115.429 444.41 114.786 443.593 114.37 442.442C114.125 441.216 113.88 439.988 113.635 438.763H113.267C112.041 434.469 110.815 430.177 109.59 425.886C107.261 425.033 102.999 425.518 100.028 425.518H79.434C77.4727 432.383 75.5114 439.251 73.55 446.121H58.1045V445.753H58.4723C58.7176 444.528 58.9625 443.299 59.2078 442.074H59.5755V440.97H59.9433V440.234H60.311C60.5562 439.131 60.8014 438.027 61.0465 436.923H61.4143V435.819H61.782V434.716H62.1498V433.612H62.5175V432.508H62.8853V431.405H63.253C63.3756 430.669 63.4982 429.933 63.6208 429.197H63.9885C64.2337 428.094 64.4789 426.99 64.724 425.886H65.0918V424.782H65.4595V423.679H65.8273V422.575H66.195V421.471H66.5628V420.368H66.9305C67.0531 419.632 67.1757 418.896 67.2983 418.16H67.666C67.7886 417.424 67.9112 416.689 68.0338 415.953H68.4015C68.6467 414.849 68.8919 413.745 69.137 412.642C73.3584 402.083 76.3479 390.406 80.5373 379.899C80.7824 378.795 81.0276 377.691 81.2728 376.588C82.6555 373.118 83.9371 369.02 85.318 365.551V364.447H85.6858V363.343H86.0535V362.239H86.4213C86.5439 361.504 86.6665 360.768 86.789 360.032H87.1568C87.8654 359.403 89.9042 359.664 91.202 359.664H102.602C102.913 360.08 102.556 359.719 102.97 360.032C103.064 361.467 103.671 362.339 104.073 363.343C104.318 364.447 104.564 365.551 104.809 366.654H105.177C105.422 367.758 105.667 368.862 105.912 369.965H106.28V370.701H106.648V371.805H107.015V372.909H107.383V374.012H107.751V375.116H108.119V376.22C110.328 381.734 112.024 388.14 114.37 393.511C115.596 397.558 116.822 401.605 118.048 405.652C120.983 413.002 123.204 421.085 126.138 428.461L128.345 436.187H128.713V436.923H129.08C129.203 437.659 129.325 438.395 129.448 439.131H129.816V440.234H130.184V441.338H130.551V442.442H130.919V443.545C131.192 444.23 131.703 445.359 132.022 446.121H115.474ZM94.144 377.323C90.8343 388.235 87.5245 399.15 84.2148 410.066H104.809V409.699C103.764 408.573 103.599 405.836 102.97 404.18H102.602V402.708H102.235V401.605H101.867V400.501H101.499V399.397H101.131V398.294H100.764V396.822H100.396V395.718H100.028V394.615H99.6603V393.511H99.2925V392.407H98.9248V390.936H98.557V389.832H98.1893V388.728H97.8215V387.625H97.4538V386.521H97.086V385.417H96.7183V383.945H96.3505V382.842H95.9828V381.738H95.615V380.634H95.2473C94.7232 379.31 95.1535 378.21 94.144 377.323Z" fill="#023F88"/>
<path fill-rule="evenodd" clip-rule="evenodd" d="M194.908 359.664V375.116H164.017C159.608 375.116 154.97 374.903 152.249 376.588C152.126 376.834 152.003 377.077 151.881 377.323H151.145V377.691C150.778 377.938 150.41 378.181 150.042 378.427V379.163C149.797 379.284 149.552 379.409 149.307 379.531V380.267H148.939C148.489 381.267 147.633 387.676 148.203 389.464H148.571C148.694 390.2 148.816 390.936 148.939 391.671C149.184 391.793 149.429 391.918 149.674 392.039V392.775L152.616 394.983H153.352V395.35H154.823C156.211 395.796 158.057 395.718 159.971 395.718H180.933V396.086C182.404 396.208 183.875 396.33 185.346 396.454V396.822H186.449V397.19H187.553V397.558H188.656V397.926H189.391C189.514 398.172 189.637 398.415 189.759 398.661H190.495L191.23 399.765H191.966V400.133C192.333 400.38 192.701 400.622 193.069 400.869V401.605C193.437 401.851 193.804 402.094 194.172 402.341V403.076C194.417 403.198 194.662 403.323 194.908 403.444C195.03 403.934 195.153 404.427 195.275 404.916H195.643C195.766 405.405 195.888 405.898 196.011 406.387H196.379V407.491C197.644 410.776 198.268 414.273 198.217 417.792C198.226 426.648 197.716 432.372 194.172 437.659V438.395C193.804 438.641 193.437 438.884 193.069 439.131V439.866C192.824 439.988 192.579 440.113 192.333 440.234V440.602H191.598L190.862 441.706H190.127C190.004 441.952 189.882 442.195 189.759 442.442H189.024C188.901 442.688 188.778 442.931 188.656 443.177H187.92V443.545H187.185V443.913H186.082V444.281H185.346V444.649C184.488 444.77 183.63 444.896 182.772 445.017V445.385H181.301V445.753C177.942 446.768 170.746 446.121 166.591 446.121H135.7V430.669H169.533C174.17 430.669 180.741 430.374 181.669 426.99C182.874 426 182.286 425.356 182.772 423.679C183.849 419.956 182.51 413.407 179.462 412.642C176.954 410.221 165.12 411.17 159.971 411.17C149.597 411.17 141.837 409.89 137.539 403.812C137.171 403.566 136.803 403.323 136.435 403.076C136.313 402.587 136.19 402.094 136.068 401.605H135.7L134.964 399.397H134.597C134.474 398.54 134.351 397.679 134.229 396.822H133.861C133.141 394.685 133.349 392.411 133.126 389.832C132.289 380.171 134.014 371.625 138.274 365.918C138.519 365.797 138.764 365.672 139.01 365.551V365.183H139.745L140.481 364.079H141.216C141.339 363.832 141.461 363.59 141.584 363.343C142.074 363.222 142.565 363.097 143.055 362.975C143.177 362.729 143.3 362.486 143.423 362.239H144.158V361.872C149.467 359.425 156.972 359.664 164.752 359.664C174.191 359.542 183.63 359.419 193.069 359.296V359.664H194.908Z" fill="#023F88"/>
<path fill-rule="evenodd" clip-rule="evenodd" d="M201.895 359.664H261.47V374.748H239.405V446.121H223.96V374.748H201.895V359.664Z" fill="#023F88"/>
<path fill-rule="evenodd" clip-rule="evenodd" d="M283.903 446.121H268.458V359.664C271.334 358.605 279.677 359.278 283.535 359.296C284.283 361.353 283.903 365.083 283.903 367.758V446.121Z" fill="#023F88"/>
<path fill-rule="evenodd" clip-rule="evenodd" d="M296.407 359.296H310.749C311.264 360.713 311.117 363.203 311.117 365.183V415.585C311.832 416.427 311.11 417.965 311.484 419.264C312.217 421.81 312.744 425.776 314.059 427.726C317.872 433.38 334.146 431.839 343.846 431.773V446.121C331.956 446.168 314.933 447.622 307.807 442.81C307.439 442.32 307.071 441.827 306.704 441.338H305.968C305.846 441.091 305.723 440.849 305.6 440.602L304.129 439.498V438.763L302.658 437.659V436.923C302.291 436.677 301.923 436.434 301.555 436.187V435.452C301.31 435.33 301.065 435.205 300.82 435.084C300.697 434.594 300.574 434.101 300.452 433.612H300.084C299.839 432.876 299.594 432.14 299.349 431.405H298.981C298.858 430.669 298.736 429.933 298.613 429.197C295.769 421.924 296.407 410.883 296.407 400.869V359.296Z" fill="#023F88"/>
<path fill-rule="evenodd" clip-rule="evenodd" d="M365.911 359.296V394.615H392.389V359.664C395.155 358.645 403.021 359.278 406.732 359.296C407.478 361.353 407.099 365.083 407.099 367.758V446.121H392.389V410.066H365.911V446.121H351.201V359.664C354.022 358.627 362.126 359.278 365.911 359.296Z" fill="#023F88"/>
<path fill-rule="evenodd" clip-rule="evenodd" d="M427.326 439.866V439.131C426.59 438.516 425.855 437.905 425.119 437.291V436.555C424.751 436.309 424.384 436.066 424.016 435.819C423.895 435.33 423.77 434.837 423.648 434.348C423.402 434.226 423.159 434.101 422.913 433.98V433.244H422.545C422.424 432.755 422.299 432.262 422.177 431.773C418.367 424.609 416.661 414.717 416.661 403.812C416.782 399.887 416.905 395.962 417.029 392.039C417.643 388.728 418.256 385.417 418.867 382.106H419.235V381.002H419.603V379.899H419.971V378.795H420.338V377.691H420.706V376.955H421.074V375.852H421.442C421.688 375.116 421.931 374.38 422.177 373.644H422.545C422.666 373.155 422.791 372.662 422.913 372.173H423.28C423.402 371.805 423.527 371.437 423.648 371.069C423.895 370.948 424.137 370.823 424.384 370.701V369.965C424.63 369.844 424.873 369.719 425.119 369.597V368.862C425.608 368.494 426.101 368.126 426.59 367.758V367.022C427.204 366.533 427.815 366.04 428.429 365.551C428.55 365.304 428.675 365.061 428.797 364.815H429.532C429.9 364.325 430.268 363.832 430.635 363.343H431.371C431.492 363.097 431.617 362.854 431.739 362.607C432.474 362.361 433.21 362.118 433.945 361.872C434.067 361.625 434.192 361.382 434.313 361.136C436.887 360.277 439.461 359.419 442.036 358.56H444.242V358.193C448.166 358.07 452.089 357.947 456.01 357.825V358.193H458.584V358.56H460.423V358.928H461.894V359.296H463.365V359.664H464.468V360.032H465.204V360.4H466.307V360.768C467.043 361.014 467.778 361.257 468.514 361.504V361.872C469.003 361.993 469.496 362.118 469.985 362.239L475.501 366.654V367.39C475.99 367.758 476.483 368.126 476.972 368.494V369.23C477.34 369.476 477.707 369.719 478.075 369.965V370.701C478.322 370.823 478.564 370.948 478.811 371.069C479.057 371.805 479.3 372.541 479.546 373.276C479.793 373.398 480.035 373.523 480.282 373.644V374.748H480.649V375.484H481.017C481.139 375.973 481.264 376.466 481.385 376.955H481.753C482.61 380.02 483.468 383.086 484.327 386.153V388.36H484.695V390.2H485.062V393.511H485.43V397.926H485.798C486.283 399.677 485.787 406.597 485.43 407.859C485.309 410.556 485.186 413.254 485.062 415.953H484.695V417.792H484.327V420H483.959V421.839H483.591V423.311H483.224V424.782H482.856C482.61 425.886 482.367 426.99 482.12 428.094H481.753V428.829H481.385V429.933H481.017C480.771 430.669 480.528 431.405 480.282 432.14H479.914V432.876H479.546C479.425 433.366 479.3 433.858 479.178 434.348C478.932 434.469 478.689 434.594 478.443 434.716V435.452C478.197 435.573 477.954 435.698 477.707 435.819V436.555C477.34 436.802 476.972 437.045 476.604 437.291V438.027C475.747 438.763 474.889 439.498 474.03 440.234C473.784 440.602 473.541 440.97 473.294 441.338H472.559C472.313 441.706 472.07 442.074 471.823 442.442H471.088C470.967 442.688 470.842 442.931 470.72 443.177H469.985C469.863 443.424 469.738 443.667 469.617 443.913L466.307 445.017V445.385H465.572V445.753C464.347 445.999 463.119 446.242 461.894 446.489C456.624 448.243 447.662 448.604 442.036 446.856C440.565 446.61 439.094 446.365 437.623 446.121V445.753H436.887V445.385H435.784V445.017C435.048 444.77 434.313 444.528 433.577 444.281V443.913C433.088 443.792 432.596 443.667 432.106 443.545C431.985 443.299 431.86 443.056 431.739 442.81H431.003C430.882 442.563 430.757 442.32 430.635 442.074H429.9V441.706C429.05 440.999 428.536 440.205 427.326 439.866ZM448.287 372.909V373.276H446.449V373.644C445.713 373.766 444.978 373.891 444.242 374.012V374.38C443.753 374.502 443.26 374.627 442.771 374.748V375.116H442.036C441.914 375.362 441.789 375.605 441.668 375.852H440.932C440.686 376.22 440.443 376.587 440.197 376.955C439.461 377.57 438.726 378.181 437.99 378.795V379.531C437.744 379.652 437.501 379.777 437.255 379.899V380.634H436.887V381.37H436.519V382.106H436.152V382.842H435.784V383.578H435.416C435.295 384.313 435.17 385.049 435.048 385.785C430.566 397.252 431.963 418.833 437.99 427.358C438.726 427.972 439.461 428.583 440.197 429.197C440.318 429.444 440.443 429.687 440.565 429.933H441.3C441.422 430.18 441.547 430.422 441.668 430.669C442.157 430.79 442.65 430.915 443.139 431.037V431.405C443.874 431.651 444.61 431.894 445.345 432.14V432.508C446.57 432.63 447.798 432.755 449.023 432.876V433.244H453.068V432.876H455.275V432.508H456.746V432.14H457.849V431.773C458.338 431.651 458.831 431.526 459.32 431.405V431.037H460.055C460.177 430.79 460.302 430.547 460.423 430.301H461.159C461.773 429.565 462.383 428.829 462.997 428.094C463.487 427.726 463.979 427.358 464.468 426.99V426.254C464.715 426.133 464.958 426.008 465.204 425.886C465.325 425.397 465.45 424.904 465.572 424.415H465.939C466.186 423.679 466.429 422.943 466.675 422.207H467.043V421.103H467.41V420H467.778V418.528H468.146V417.057H468.514V414.849C469.948 409.905 470.415 398.849 468.881 393.511V390.936H468.514V389.096H468.146V387.257H467.778V386.153H467.41V385.049H467.043V383.945H466.675V383.21H466.307V382.106H465.939V381.37C465.693 381.249 465.45 381.124 465.204 381.002C465.083 380.513 464.958 380.02 464.836 379.531C464.468 379.284 464.101 379.041 463.733 378.795V378.059C463.487 377.938 463.244 377.813 462.997 377.691C462.63 377.202 462.262 376.709 461.894 376.22H461.159C461.037 375.973 460.912 375.73 460.791 375.484C457.555 373.435 453.657 372.857 448.287 372.909Z" fill="#023F88"/>
<path fill-rule="evenodd" clip-rule="evenodd" d="M173.946 42.1664C170.305 42.2278 167.782 41.9523 165.488 40.6948V40.3269H164.752L164.384 39.5911H163.649L162.546 38.1195L161.81 37.7516V37.0158L160.707 36.28V35.5442H160.339L159.971 34.0726H159.604C159.125 32.9608 158.277 28.1744 158.868 26.3467H159.236V25.243H159.604V24.1393H159.971C160.094 23.5261 160.216 22.9129 160.339 22.2998H160.707L161.075 21.1961L161.81 20.8282V20.0924L163.281 18.9887V18.6208H164.017L164.384 17.885H165.12L165.488 17.1492H166.223V16.7813H167.326C168.663 16.25 171.177 14.9686 173.578 15.6776V16.0455H175.417V16.4134H176.52V16.7813H177.623V17.1492H178.359L178.727 17.885H179.462L180.198 18.9887L182.404 20.8282V21.564L183.14 21.9319V22.6677H183.507C183.63 23.1582 183.752 23.6487 183.875 24.1393H184.243V25.6109H184.611V27.0825H184.978C185.56 29.0644 184.092 34.5957 183.507 35.5442L182.772 35.9121V36.6479C182.518 37.0279 181.393 37.1574 181.669 38.1195H182.036C182.331 39.5959 183.273 40.3136 183.875 41.4306V42.1664H184.243V42.9022H184.611V43.638H184.978V44.3738H185.346V45.1096L186.082 45.4775V46.2133H186.449V46.9491H186.817V47.6849H187.185V48.4207H187.553V49.1565H187.92V49.8923H188.288C188.411 50.3828 188.533 50.8734 188.656 51.3639L189.391 51.7318V52.4676H189.759V53.2034H190.127V53.9392H190.495V54.675H190.862V55.4108H191.23V56.1466H191.598V56.8824L192.333 57.2503V57.9861H192.701V58.7219H193.069V59.4577H193.437V60.1935H193.804V60.9293H194.172V61.6651H194.54V62.4009H194.908V63.1367L195.643 63.5046V64.2404H196.011V64.9762H196.379V65.712H196.746V66.4478H197.114V67.1836H197.482C197.604 67.6741 197.727 68.1647 197.85 68.6552L198.585 69.0231C198.708 69.5136 198.83 70.0042 198.953 70.4947H225.063V10.1591L209.25 9.79118H201.159C197.784 8.83464 192.321 9.42328 188.288 9.42328C185.99 9.42328 183.016 9.29488 181.301 9.79118H170.268V10.1591H165.488L156.662 10.8949V11.2628H154.087V11.6307H151.513C149.776 12.1457 147.3 12.5405 145.629 13.1023H144.158V13.4702H143.055V13.8381H141.584V14.206H140.848V14.5739H139.745V14.9418L137.539 15.6776V16.0455L136.068 16.4134L135.7 17.1492H134.964L134.597 17.885H133.861L132.758 19.3566H132.022L129.816 21.9319L126.874 24.5072V25.243L125.403 26.3467V27.0825L124.3 27.8183V28.5541L123.564 28.922L123.196 30.0257H122.829V30.7615L122.093 31.1294V31.8652H121.725V32.601L120.99 32.9689V33.7047H120.622V34.4405H120.254V35.1763H119.887V35.9121L119.151 36.28V37.0158H118.783L118.416 38.4874H118.048V39.5911H117.68V40.3269H117.312L116.945 41.7985H116.577C116.454 42.4116 116.332 43.0248 116.209 43.638H115.841C115.719 44.3738 115.596 45.1096 115.474 45.8454H115.106V46.9491H114.738V48.0528H114.37V49.1565H114.003V50.2602H113.635V51.7318H113.267V53.2034H112.899V54.675H112.532V56.1466H112.164V57.9861H111.796C111.673 59.2124 111.551 60.4388 111.428 61.6651H111.061C110.815 64.1178 110.57 66.5704 110.325 69.0231H109.957V71.9663H109.59V75.2774H109.222V79.3243H108.854V83.7391H108.486C108.364 86.5597 108.241 89.3802 108.119 92.2008V96.2477C107.514 98.3815 107.751 101.975 107.751 104.709V120.897C107.751 126.935 107.004 137.873 108.119 141.867V148.122H108.486V152.536C109.243 155.136 109.203 158.827 109.957 161.366L111.061 170.931H111.428C111.673 172.771 111.919 174.61 112.164 176.45H112.532C112.654 177.431 112.777 178.412 112.899 179.393H113.267C113.39 180.374 113.512 181.355 113.635 182.336H114.003C114.125 183.195 114.248 184.053 114.37 184.912H114.738V186.015H115.106V187.119H115.474C115.596 187.855 115.719 188.591 115.841 189.326H116.209V190.062H116.577V191.166H116.945V191.902H117.312V193.005H117.68L118.048 194.477H118.416V195.581H118.783L119.151 197.052H119.519L119.887 198.524L120.622 198.892V199.628H120.99V200.363H121.358V201.099H121.725V201.835L122.461 202.203V202.939L123.196 203.307V204.042L123.932 204.41V205.146H124.3L124.667 206.25L125.403 206.618V207.354L126.874 208.457V209.193L129.816 211.768L132.758 215.079H133.493L133.861 215.815L134.964 216.183V216.551H135.7L136.068 217.287H136.803V217.655L139.01 218.391V218.758L142.319 219.494V219.862L145.261 220.23V220.598H147.1V220.966H148.939V221.334H151.513V221.702L158.133 222.437H161.442V222.805H167.326C170.967 223.842 177.643 223.173 182.036 223.173L225.063 222.437V162.102H198.953C198.708 162.838 198.462 163.573 198.217 164.309H197.85V165.045L197.114 165.413V166.149H196.746V166.884H196.379V167.62H196.011V168.356H195.643V169.092H195.275C195.153 169.582 195.03 170.073 194.908 170.563L194.172 170.931V171.667H193.804V172.403H193.437V173.139H193.069V173.875H192.701V174.61H192.333C192.088 175.346 191.843 176.082 191.598 176.818L190.862 177.186V177.921H190.495V178.657H190.127V179.393H189.759V180.129H189.391V180.865H189.024V181.6H188.656V182.336L187.92 182.704V183.44H187.553V184.176H187.185V184.912H186.817V185.647H186.449V186.383H186.082L185.714 187.855L184.978 188.223V188.959H184.611V189.694H184.243V190.43H183.875V191.166H183.507V191.902H183.14V192.638H182.772V193.373H182.404L182.036 194.477H181.669C181.42 195.392 182.186 195.211 182.404 195.581V196.317L183.14 196.684L184.243 199.996H184.611V202.203H184.978V205.146H184.611V207.354H184.243V208.457H183.875L183.14 210.665H182.772V211.4L181.669 212.136V212.872H181.301L180.565 213.976H179.83L179.094 215.079H178.359V215.447L176.888 215.815V216.183H175.785V216.551H174.314V216.919C172.495 217.461 168.073 216.673 166.959 216.183V215.815L165.488 215.447V215.079H164.752L164.017 213.976H163.281L162.178 212.504H161.81V211.768L161.075 211.4V210.665L160.339 210.297V209.561H159.971V208.825H159.604V207.721C159.146 206.51 158.238 203.598 158.868 201.467H159.236V199.628H159.604V198.892H159.971V197.788L160.707 197.42L161.075 195.949L162.178 195.213L164.017 193.005H164.752L165.12 192.27L167.326 191.534V191.166H168.43V190.798H170.636C171.945 190.425 172.181 190.263 173.578 190.798V190.43C174.664 189.48 174.71 188.439 175.417 187.119H175.785V186.383H176.152V185.647H176.52V184.912H176.888V184.176L177.623 183.808V183.072H177.991V182.336H178.359V181.6H178.727V180.865H179.094V180.129H179.462V179.393H179.83V178.657L180.565 178.289V177.554H180.933V176.818H181.301V176.082H181.669V175.346H182.036V174.61H182.404V173.875H182.772L183.14 172.403L183.875 172.035V171.299H184.243V170.563H184.611V169.828H184.978V169.092H185.346V168.356H185.714V167.62H186.082V166.884L186.817 166.517L189.391 160.63L190.127 160.262C190.372 159.526 190.617 158.791 190.862 158.055C191.678 156.53 192.995 155.124 193.437 153.272H233.889C234.57 155.143 234.257 158.523 234.257 160.998V230.899C231.118 232.52 221.968 231.66 217.34 231.635C216.458 232.41 211.026 232.003 209.25 232.003L188.656 232.371L178.359 232.739V232.371H173.578C170.21 232.371 165.796 232.485 164.017 232.003H158.868V231.635H155.191V231.267H152.249V230.899H149.674V230.531H147.468L136.803 227.956V227.588L135.332 227.22V226.852L132.022 225.749L131.655 225.013L130.184 224.645L129.816 223.909H129.08L128.713 223.173L127.609 222.805L126.874 221.702H126.138L122.829 218.023L119.519 215.079V214.344L118.048 213.24V212.504L117.312 212.136V211.4L116.209 210.665V209.929L115.474 209.561V208.825L114.738 208.457L114.37 206.986L113.635 206.618L112.899 204.41L112.164 204.042L111.796 202.571H111.428L110.693 200.363H110.325V199.26H109.957V198.524H109.59L109.222 197.052H108.854V195.949H108.486V195.213H108.119V194.109H107.751V193.373H107.383C107.138 192.27 106.893 191.166 106.648 190.062H106.28V188.959H105.912V187.855H105.544V186.751H105.177C105.054 185.893 104.931 185.034 104.809 184.176H104.441C104.196 182.704 103.951 181.233 103.706 179.761H103.338C103.215 178.657 103.093 177.554 102.97 176.45H102.602C102.48 175.101 102.357 173.752 102.235 172.403H101.867V170.563H101.499V168.356H101.131V166.149H100.764V163.573H100.396V160.998H100.028V157.687H99.6603V154.376H99.2925V150.329H98.9248V145.178C98.2878 142.905 99.2072 139.047 98.557 136.717C97.4825 132.866 98.1893 124.875 98.1893 120.161V105.445C98.1893 102.929 98.0054 99.643 98.557 97.7193V91.0971H98.9248V87.4181C99.0474 85.2107 99.17 83.0033 99.2925 80.7959H99.6603V76.749H100.028V73.07C100.956 69.8671 100.93 65.5126 101.867 62.4009C101.989 60.9293 102.112 59.4577 102.235 57.9861H102.602V56.1466H102.97V54.3071H103.338V52.8355H103.706C103.828 51.7318 103.951 50.6281 104.073 49.5244H104.441C104.564 48.666 104.686 47.8075 104.809 46.9491H105.177V45.8454H105.544V44.7417H105.912V43.638H106.28C106.402 42.9022 106.525 42.1664 106.648 41.4306H107.015V40.6948H107.383V39.5911H107.751V38.8553H108.119V37.7516H108.486V37.0158H108.854C108.977 36.4026 109.099 35.7894 109.222 35.1763H109.59L110.325 32.9689H110.693V32.2331H111.061L111.796 30.0257L112.532 29.6578L113.267 27.4504L114.003 27.0825V26.3467L114.738 25.9788V25.243L115.474 24.8751V24.1393H115.841L116.209 23.0356L116.945 22.6677V21.9319L118.048 21.1961V20.4603L119.519 19.3566V18.6208L124.3 14.206L126.138 11.9986H126.874L127.977 10.527H128.713L129.08 9.79118L130.184 9.42328V9.05538H130.919L131.287 8.31958L132.758 7.95168V7.58378H133.493V7.21588H134.229V6.84798L136.435 6.11218V5.74428H137.539V5.37638H138.642V5.00848H139.745V4.64058H140.848V4.27268H142.319V3.90478H143.79V3.53688H145.629V3.16898H147.468V2.80108H149.307V2.43318H151.881V2.06528H154.455V1.69738H157.397V1.32948H161.442V0.961576L169.165 0.593676H173.21C176.694 -0.384938 182.304 0.225776 186.449 0.225776L233.521 0.593676C234.502 2.51411 234.257 5.37638 234.257 8.31958V78.9564C231.544 80.3467 225.684 79.6922 221.753 79.6922H193.804C193.426 78.9494 192.719 78.1941 192.333 77.4848C192.211 76.9943 192.088 76.5037 191.966 76.0132L191.23 75.6453V74.9095H190.862V74.1737H190.495V73.4379H190.127V72.7021H189.759V71.9663H189.391V71.2305H189.024V70.4947L188.288 70.1268L185.714 64.2404L184.978 63.8725L184.243 61.6651H183.875V60.9293H183.507V60.1935H183.14V59.4577H182.772V58.7219L182.036 58.354V57.6182H181.669V56.8824H181.301V56.1466H180.933V55.4108H180.565V54.675H180.198V53.9392H179.83V53.2034H179.462V52.4676L178.727 52.0997V51.3639H178.359V50.6281H177.991V49.8923H177.623V49.1565H177.256V48.4207H176.888L176.52 46.9491L175.785 46.5812V45.8454C175.134 44.6891 174.3 43.6847 173.946 42.1664ZM170.268 25.243C169.934 25.6418 170.335 25.3243 169.901 25.6109H169.533C168.495 26.4453 168.064 28.0732 168.062 30.0257C168.844 30.7177 168.944 31.6588 169.901 32.2331C170.593 32.9637 170.076 32.2529 171.004 32.601V32.9689C172.592 33.4247 174.311 31.3133 175.417 30.7615C175.539 29.903 175.662 29.0446 175.785 28.1862H175.417V27.0825L173.21 25.243H170.268ZM171.004 199.996C170.211 200.878 169.785 200.293 169.165 200.731V201.099C167.333 202.59 168.349 204.364 168.797 206.25C170.232 207.036 170.506 207.667 172.843 207.721C173.756 206.707 174.599 207.189 175.049 205.514C176.285 204.342 175.38 202.939 175.049 201.467C174.367 201.069 173.748 200.574 173.21 199.996H171.004Z" fill="#0095DA"/>
<path fill-rule="evenodd" clip-rule="evenodd" d="M171.372 133.773H314.794L318.472 138.188L319.575 138.924V139.66L323.252 142.971V143.707L325.091 145.178L326.194 146.65L326.93 147.018V147.754L328.769 149.225C330.244 150.709 331.418 153.684 333.917 154.008V153.64H335.02V153.272H335.756V152.904H337.227V152.536C339.051 151.997 343.464 152.78 344.582 153.272V153.64H345.317V154.008L346.788 154.376L347.524 155.48H348.259L349.363 156.951H349.73V157.687L350.834 158.423V159.159H351.201V159.894H351.569V160.998H351.937V162.102H352.305V163.573H352.672C353.498 166.383 351.947 169.897 351.201 171.299C351.079 171.79 350.956 172.28 350.834 172.771L350.098 173.139V173.875L347.892 175.714C347.769 175.959 347.646 176.205 347.524 176.45H346.788C346.666 176.695 346.543 176.94 346.421 177.186L344.95 177.554V177.921L342.743 178.289V178.657H340.169C340.05 178.83 339.878 178.96 339.679 179.026C339.48 179.092 339.265 179.092 339.066 179.025V178.657H336.491V178.289C335.485 177.925 334.379 178.065 333.549 177.554C333.427 177.308 333.304 177.063 333.182 176.818H332.446C332.324 176.573 332.201 176.327 332.078 176.082H331.343C331.22 175.837 331.098 175.591 330.975 175.346L329.504 174.242V173.507L328.769 173.139V172.403L328.033 172.035C327.523 171.199 327.658 170.106 327.298 169.092H326.93V166.884H326.562V164.309C326.944 163.24 327.191 162.128 327.298 160.998C326.277 160.39 326.212 159.622 325.459 158.791L322.149 155.847V155.112L318.472 151.801V151.065L317.736 150.697L316.633 149.225L315.162 148.122V147.386L311.484 144.075C311.362 143.707 311.239 143.339 311.117 142.971H175.049L172.107 146.282L171.372 146.65V147.386L168.062 150.329L167.694 151.433L164.384 154.376V155.112L163.649 155.48V155.847L160.707 158.423V159.159H160.339C159.53 160.122 158.721 160.517 158.5 162.102H158.868V163.941H159.236C160.005 166.6 158.14 170.706 157.397 172.035V172.771L156.662 173.139V173.875L155.558 174.61L154.087 176.45H153.352L152.984 177.186H152.249C149.682 178.611 146.279 179.458 143.055 178.289H141.952V177.921H140.848V177.554H140.113V177.186H139.377L139.01 176.45H138.274L136.435 174.242L135.7 173.875V173.139L134.964 172.771V172.035H134.597V171.299H134.229V170.196C133.702 168.858 132.413 166.343 133.126 163.941H133.493V162.102H133.861V160.998H134.229V160.262H134.597V159.159L135.332 158.791V158.055L136.435 157.319V156.583L137.171 156.215V155.847H137.906L138.642 154.744C139.934 153.852 142.182 153.009 143.79 152.536H145.629L150.042 152.904C151.035 153.264 151.602 153.833 152.984 154.008L158.133 148.122L159.604 147.018V146.282L163.281 142.971V142.235L165.855 140.028V139.66L166.591 139.292V138.556L167.694 137.82L171.372 133.773ZM144.894 161.734C143.223 163.701 142.287 162.891 142.319 166.884C143.333 167.799 142.852 168.642 144.526 169.092C145.407 169.931 147.596 169.298 148.571 169.092C148.907 168.503 149.844 167.449 150.042 166.884C151.072 163.948 148.412 162.855 147.468 161.734H144.894ZM336.859 168.724H337.595C337.717 168.969 337.84 169.215 337.962 169.46H341.272C341.691 169.041 341.272 169.313 342.008 169.092L342.743 167.988H343.111V167.252H343.479C344.375 164.808 342.065 162.165 340.904 161.734H338.33C337.43 162.773 334.732 164.125 335.756 166.884H336.124V167.62H336.491C336.614 167.988 336.737 168.356 336.859 168.724Z" fill="#023F88"/>
<path fill-rule="evenodd" clip-rule="evenodd" d="M140.848 112.067H344.95C345.388 110.938 345.75 109.723 346.421 108.756L347.524 108.02V107.285L348.259 106.917V106.549H348.995L349.73 105.445H350.466C350.588 105.2 350.711 104.955 350.834 104.709H351.569V104.341H352.305V103.974H353.408V103.606H355.247V103.238C356.503 102.878 358.593 103.393 359.292 103.606L362.234 103.974V104.341H362.969V104.709H363.705C363.827 104.955 363.95 105.2 364.073 105.445H364.808C364.931 105.69 365.053 105.936 365.176 106.181H365.911L369.221 110.596V111.332H369.589V112.435H369.957C370.079 114.52 370.202 116.605 370.324 118.69H369.957V120.529H369.589V121.265H369.221C369.1 121.878 368.975 122.491 368.853 123.104C368.607 123.227 368.364 123.35 368.118 123.472V124.208L367.015 124.944V125.68L366.279 126.048V126.415H365.544L364.808 127.519H364.073C363.95 127.764 363.827 128.01 363.705 128.255H362.969V128.623H361.866C360.685 129.094 357.729 130.343 355.614 129.727V129.359H353.776V128.991H352.672V128.623L351.201 128.255V127.887L349.73 127.519L347.156 124.576L346.421 124.208C346.043 123.646 345.412 121.157 344.95 120.897H140.848C139.964 125.372 132.779 131.151 126.874 129.359L123.932 128.991C119.372 126.99 116.934 123.461 115.474 118.322C115.034 116.777 115.77 112.701 116.209 111.699H116.577L116.945 110.228H117.312L117.68 108.756L118.783 108.02L119.151 106.917L120.254 106.549L120.99 105.445H121.725L122.093 104.709H122.829V104.341H123.564V103.974H124.667V103.606C132.001 101.152 139.804 106.917 140.848 112.067ZM125.771 119.425H126.506L126.874 120.161H130.184C130.602 119.742 130.184 120.014 130.919 119.793C131.778 118.225 132.368 117.985 132.39 115.378C131.376 114.464 131.858 113.621 130.184 113.171V112.803H129.08V112.435C127.359 112.679 125.815 112.993 125.403 114.643C124.671 115.335 125.384 114.82 125.035 115.746C124.385 117.47 125.337 117.862 125.771 119.425ZM354.511 119.425H355.247C355.369 119.671 355.492 119.916 355.614 120.161H358.924C359.65 119.057 359.963 119.815 360.395 118.322C361.149 117.679 361.153 116.831 361.131 115.378C360.117 114.464 360.598 113.621 358.924 113.171C357.753 111.935 356.35 112.84 354.879 113.171C354.531 113.833 354.37 113.75 354.143 114.643C353.411 115.335 354.125 114.82 353.776 115.746C353.126 117.47 354.078 117.862 354.511 119.425Z" fill="#023F88"/>
<path fill-rule="evenodd" clip-rule="evenodd" d="M332.814 78.5885C332.5 79.7897 330.707 81.3845 329.872 82.2675L329.136 82.6354V83.3712L325.827 86.3144V87.0502L323.62 88.8897L322.517 90.3613H322.149V91.0971L318.839 94.0403C318.717 94.4082 318.594 94.7761 318.472 95.144L314.794 98.4551V98.823H306.336C305.711 99.2645 298.907 99.1909 296.407 99.1909H270.296L171.004 98.823L168.797 96.2477L168.062 95.8798V95.144L165.12 92.5687V92.2008L164.384 91.8329V91.0971L160.707 87.786V87.0502L157.029 83.7391V83.0033L153.72 80.0601V79.3243H153.352L152.984 78.5885H152.249C150.019 81.2234 142.948 80.51 140.113 78.9564C133.718 75.4525 130.508 66.0552 135.7 58.7219L136.803 57.9861C139.331 55.4248 141.554 53.9094 146.732 53.9392H148.939V54.3071H150.41V54.675H151.145V55.0429H152.249L152.616 55.7787H153.352L153.72 56.5145H154.455L154.823 57.2503L156.662 58.7219V59.4577L157.397 59.8256L158.133 62.033H158.5C159.103 63.4292 159.604 66.8911 159.236 69.0231C158.991 69.8815 158.745 70.74 158.5 71.5984H158.868L162.913 76.3811L164.017 77.1169V77.8527L167.326 80.7959L167.694 81.8996L171.004 84.8428V85.5786L174.681 88.8897L175.049 89.9934H310.749L314.426 85.5786L315.53 84.8428V84.107L318.839 81.1638C318.962 80.7959 319.085 80.428 319.207 80.0601L322.517 77.1169V76.3811L326.194 73.07V72.3342H326.562C327.073 71.6859 327.145 71.6006 327.298 70.4947C326.74 69.8807 326.93 68.3491 326.93 67.1836C326.93 64.0163 327.323 62.8574 328.401 60.9293V60.1935L329.136 59.8256V59.0898L330.24 58.354L332.446 55.7787H333.182V55.4108L334.653 55.0429V54.675L336.859 54.3071V53.9392H339.433C344.63 53.9293 346.444 55.392 348.995 57.9861L350.098 58.7219V59.4577L350.834 59.8256V60.5614H351.201C351.324 61.0519 351.447 61.5424 351.569 62.033H351.937C352.059 62.7688 352.182 63.5046 352.305 64.2404H352.672C353.143 65.7514 352.614 68.8023 352.305 69.7589C352.182 70.6173 352.059 71.4758 351.937 72.3342C351.054 74.3242 349.352 75.6858 347.892 77.1169L347.156 78.2206H346.421V78.5885L344.214 79.3243V79.6922H343.111V80.0601H341.272V80.428L336.491 80.0601V79.6922H335.02V79.3243L332.814 78.5885ZM145.261 63.1367C144.347 64.151 143.505 63.6694 143.055 65.3441C142.352 65.9416 142.319 66.5747 142.319 67.9194H142.687V69.0231H143.055C143.655 69.7865 143.764 70.2004 144.894 70.4947V70.8626H147.468C148.056 70.1503 148.808 69.8762 149.307 69.0231C149.969 68.3826 150.042 67.4065 150.042 66.0799C148.298 64.5141 148.991 63.1878 145.261 63.1367ZM338.698 63.1367C337.784 64.151 336.941 63.6694 336.491 65.3441C335.256 66.5162 336.16 67.9194 336.491 69.391L337.595 70.1268V70.4947H338.33V70.8626C339.975 71.4663 341.335 70.3644 342.375 70.1268C343.53 67.7722 344.337 65.4107 341.64 63.8725C341 63.2103 340.024 63.1385 338.698 63.1367Z" fill="#023F88"/>
<path fill-rule="evenodd" clip-rule="evenodd" d="M251.909 231.267C251.423 228.535 251.541 224.637 251.541 221.334V154.008C254.254 152.618 260.114 153.272 264.045 153.272H291.994L295.303 158.791V159.526H295.671V160.262H296.039V160.998H296.407V161.734H296.774V162.47H297.142V163.205L297.878 163.573V164.309H298.245V165.045H298.613V165.781H298.981V166.517H299.349V167.252H299.716C299.839 167.743 299.962 168.233 300.084 168.724L300.82 169.092C301.065 169.828 301.31 170.563 301.555 171.299H301.923V172.035H302.291V172.771H302.658V173.507H303.026V174.242L303.762 174.61V175.346H304.129V176.082H304.497V176.818H304.865V177.554H305.233V178.289H305.6V179.025H305.968V179.761H306.336V180.497L307.071 180.865V181.6H307.439V182.336H307.807V183.072H308.175V183.808H308.542V184.544H308.91C309.033 185.034 309.155 185.525 309.278 186.015L310.013 186.383V187.119C310.664 188.275 311.498 189.28 311.852 190.798C313.586 190.766 315.442 190.777 316.633 191.166H318.104V191.534L320.31 192.27V192.638L321.781 193.005L322.885 194.477L323.988 195.213V195.949L324.723 196.317V197.052L325.459 197.42C325.581 197.911 325.704 198.401 325.827 198.892H326.194V200.363H326.562C327.267 202.488 326.915 206.652 326.194 208.457H325.827C325.704 209.07 325.581 209.684 325.459 210.297L324.723 210.665V211.4L323.62 212.136V212.872L322.885 213.24V213.608H322.149L321.414 214.712H320.678V215.079L318.472 215.815V216.183H317.368V216.551L312.22 216.919V216.551L309.278 216.183V215.815L307.071 215.079C306.949 214.834 306.826 214.589 306.704 214.344H305.968L304.497 212.504L303.762 212.136V211.4L303.026 211.033C302.904 210.542 302.781 210.051 302.658 209.561H302.291V208.825H301.923C301.8 207.967 301.678 207.108 301.555 206.25H301.187C300.457 203.768 301.923 198.22 302.658 197.052L303.394 196.684V195.949H303.762C304.129 195.404 304.051 195.038 304.129 194.109C302.573 192.754 302.232 190.492 301.187 188.591H300.82V187.855L300.084 187.487V186.751H299.716V186.015H299.349V185.279H298.981V184.544H298.613V183.808H298.245C298.123 183.317 298 182.827 297.878 182.336L297.142 181.968V181.233H296.774V180.497H296.407V179.761H296.039V179.025H295.671V178.289H295.303V177.554H294.936C294.813 177.063 294.69 176.573 294.568 176.082L293.832 175.714V174.978H293.465V174.242H293.097V173.507H292.729V172.771H292.361V172.035H291.994V171.299H291.626V170.563L290.89 170.196L288.316 164.309L287.581 163.941C287.311 163.523 287.261 162.33 286.845 162.102H260.735V222.437L297.51 223.173V223.541H310.013V223.173H320.678V222.805L332.814 222.07L345.317 219.494V219.126H346.053V218.758H347.156V218.391L348.627 218.023V217.655L350.098 217.287C350.221 217.042 350.343 216.796 350.466 216.551H351.201C351.324 216.306 351.447 216.06 351.569 215.815H352.305L353.04 214.712H353.776L355.247 212.872L358.556 209.929V209.193L360.027 208.089V207.354L361.131 206.618V205.882L361.866 205.514C361.989 205.146 362.111 204.778 362.234 204.41H362.602V203.675L363.337 203.307C363.46 202.816 363.582 202.326 363.705 201.835L364.44 201.467C364.563 200.977 364.686 200.486 364.808 199.996L365.544 199.628C365.666 199.137 365.789 198.647 365.911 198.156H366.279V197.42H366.647C366.892 196.684 367.137 195.949 367.382 195.213H367.75V194.109H368.118C368.239 193.619 368.364 193.128 368.486 192.638H368.853C368.975 192.024 369.1 191.411 369.221 190.798H369.589C369.835 189.694 370.078 188.591 370.324 187.487H370.692V186.751H371.06V185.279H371.428V184.176H371.795V183.072H372.163C372.284 182.091 372.41 181.11 372.531 180.129H372.899V178.657H373.266V177.186H373.634C373.755 176.082 373.881 174.978 374.002 173.875H374.37C374.491 172.526 374.616 171.176 374.737 169.828H375.105V167.62H375.473V165.413H375.841V162.838H376.208V160.262H376.576V157.319H376.944V154.008H377.312V149.961H377.679C377.801 144.443 377.923 138.924 378.047 133.406C378.698 131.059 378.415 127.164 378.415 124.208V100.662H378.047V90.7292H377.679V85.2107H377.312V80.7959H376.944V76.749H376.576C376.455 74.419 376.332 72.0889 376.208 69.7589H375.841V67.1836H375.473V64.6083H375.105V62.4009H374.737V60.1935H374.37V58.354H374.002V56.8824H373.634V55.0429H373.266C373.145 54.0621 373.02 53.0805 372.899 52.0997H372.531C372.41 51.2414 372.284 50.3827 372.163 49.5244H371.795V48.4207H371.428V47.317H371.06V46.2133H370.692C370.571 45.4775 370.446 44.7417 370.324 44.0059H369.957C369.835 43.3926 369.71 42.7797 369.589 42.1664H369.221C369.1 41.676 368.975 41.1852 368.853 40.6948H368.486V39.5911C366.647 36.28 364.808 32.9689 362.969 29.6578L362.234 29.2899V28.5541L361.498 28.1862V27.4504L360.763 27.0825V26.7146L360.027 26.3467V25.6109L358.556 24.5072V23.7714L355.614 21.1961L354.511 19.7245H353.776L352.672 18.2529H351.937L351.201 17.1492H350.466L350.098 16.4134L348.627 16.0455V15.6776H347.892V15.3097L345.685 14.5739V14.206H344.582V13.8381H343.479V13.4702H342.375V13.1023H340.904V12.7344H339.066V12.3665L335.388 11.9986V11.6307L330.607 11.2628V10.8949L323.62 10.527V10.1591L315.53 9.79118H311.484C307.46 8.66467 300.108 9.42328 295.303 9.42328L260.735 9.79118V70.8626H286.845C287.232 69.9502 287.893 69.0768 288.316 68.2873V67.5515H288.684V66.8157H289.052C289.174 66.3252 289.297 65.8346 289.419 65.3441L290.155 64.9762V64.2404H290.523V63.5046H290.89V62.7688H291.258V62.033H291.626V61.2972H291.994V60.5614H292.361V59.8256H292.729V59.0898L293.465 58.7219C293.71 57.9861 293.955 57.2503 294.2 56.5145H294.568V55.7787H294.936V55.0429H295.303V54.3071H295.671V53.5713L296.407 53.2034V52.4676H296.774V51.7318H297.142V50.996H297.51V50.2602H297.878V49.5244H298.245V48.7886H298.613V48.0528L299.349 47.6849L301.923 41.7985L302.658 41.4306V40.6948C303.27 39.608 303.92 39.0094 304.129 37.3837C302.064 35.7068 299.922 28.9853 301.555 24.8751H301.923V24.1393H302.291C302.413 23.5261 302.536 22.9129 302.658 22.2998L303.394 21.9319V21.1961L304.497 20.4603V19.7245L305.233 19.3566V18.9887H305.968L306.704 17.885H307.439V17.5171L309.646 16.7813V16.4134H311.117C312.146 16.0878 315.415 15.5488 317.001 16.0455V16.4134H318.472V16.7813L319.943 17.1492V17.5171H320.678L321.046 18.2529H321.781L322.149 18.9887L324.356 20.8282V21.564L325.091 21.9319C325.214 22.4224 325.336 22.9129 325.459 23.4035H325.827C325.949 24.1393 326.072 24.8751 326.194 25.6109H326.562V27.4504C327.41 30.3321 326.035 34.7462 324.723 36.6479L323.62 37.3837V38.1195H323.252C323.13 38.3647 323.007 38.61 322.885 38.8553H322.149L321.414 39.959H320.678V40.3269L318.472 41.0627V41.4306L315.162 41.7985V42.1664C313.862 42.5652 312.617 41.7738 312.22 42.1664C311.134 43.1163 311.088 44.1571 310.381 45.4775H310.013V46.2133H309.646C309.4 46.9491 309.155 47.6849 308.91 48.4207L308.175 48.7886V49.5244H307.807V50.2602H307.439V50.996H307.071V51.7318H306.704V52.4676H306.336V53.2034H305.968V53.9392H305.6V54.675L304.865 55.0429V55.7787H304.497V56.5145H304.129V57.2503H303.762V57.9861H303.394V58.7219H303.026V59.4577H302.658V60.1935L301.923 60.5614V61.2972H301.555V62.033H301.187V62.7688H300.82V63.5046H300.452V64.2404H300.084C299.962 64.7309 299.839 65.2215 299.716 65.712L298.981 66.0799L296.407 71.9663L295.671 72.3342C295.426 73.07 295.181 73.8058 294.936 74.5416C294.12 76.0665 292.803 77.4723 292.361 79.3243C286.493 80.3857 278.651 79.6922 272.135 79.6922C265.619 79.6922 257.78 80.382 251.909 79.3243C251.404 76.4826 251.541 72.4394 251.541 69.0231V1.69738C251.814 1.48144 252.061 1.23452 252.277 0.961576H257.057C258.079 0.0631646 261.93 0.593676 263.677 0.593676H281.697C285.572 -0.475441 293.515 0.225776 298.245 0.225776C300.98 0.225776 304.571 -0.00784016 306.704 0.593676H312.22L326.562 1.32948V1.69738H329.872V2.06528H332.814V2.43318H335.388V2.80108H337.595V3.16898H339.433V3.53688H341.272V3.90478H342.743V4.27268L345.685 4.64058V5.00848H346.788V5.37638H347.892V5.74428H348.995V6.11218L350.466 6.48008V6.84798L352.305 7.21588L352.672 7.95168L354.879 8.68748V9.05538L355.982 9.42328L356.35 10.1591H357.085L357.453 10.8949L358.556 11.2628L359.66 12.7344H360.395L361.866 14.5739L365.176 17.5171V18.2529L367.015 19.7245V20.4603C367.261 20.5828 367.504 20.7057 367.75 20.8282V21.1961C367.997 21.3186 368.239 21.4415 368.486 21.564V22.2998C368.732 22.4223 368.975 22.5452 369.221 22.6677C369.342 23.0356 369.468 23.4035 369.589 23.7714H369.957V24.5072C370.203 24.6297 370.446 24.7526 370.692 24.8751V25.6109C370.939 25.7334 371.181 25.8563 371.428 25.9788V26.7146C371.674 26.8371 371.917 26.96 372.163 27.0825C372.284 27.5729 372.41 28.0637 372.531 28.5541C372.777 28.6766 373.02 28.7995 373.266 28.922V29.6578H373.634V30.3936H374.002V31.1294H374.37V31.8652H374.737V32.601H375.105V33.3368C386.711 55.1032 387.234 87.4718 387.241 120.897V135.613C387.241 138.131 387.417 141.412 386.873 143.339V148.857H386.505V153.272H386.138V156.951H385.77V159.894H385.402V162.838C384.42 166.231 384.214 170.59 383.196 173.875C383.074 175.101 382.949 176.327 382.828 177.554H382.46V179.393H382.092V180.865H381.725V182.336H381.357V183.808H380.989V185.279H380.621V186.383H380.254V187.855C374.623 203.533 367.221 217.17 354.143 225.381L352.672 225.749V226.116L350.466 226.852V227.22H349.363V227.588H348.627V227.956L346.053 228.324V228.692H344.95V229.06H343.111V229.428H341.64V229.795H339.801V230.163L335.02 230.531V230.899H332.446V231.267H329.136V231.635H324.723V232.003H318.472C316.543 232.542 313.268 232.371 310.749 232.371H285.006V232.003H282.432C279.15 231.992 274.794 232.381 272.135 231.635H266.619C261.833 231.635 256.085 232.017 251.909 231.267ZM312.955 24.8751C312.042 25.8894 311.199 25.4078 310.749 27.0825C309.995 27.7248 309.991 28.5728 310.013 30.0257C311.108 31.0117 310.781 32.1249 312.588 32.601V32.9689H315.162C316.076 31.9546 316.919 32.4362 317.368 30.7615C319.001 29.0964 316.89 26.1627 315.897 25.6109C315.257 24.9487 314.281 24.8769 312.955 24.8751ZM313.323 199.628V199.996L311.484 200.363C310.536 201.023 310.03 203.086 310.013 204.778H310.381V205.882H310.749C311.349 206.645 311.458 207.059 312.588 207.354V207.721H315.53C316.098 206.822 315.968 207.494 316.633 206.986C317.02 206.691 317.28 205.88 317.736 205.514C317.859 204.778 317.981 204.042 318.104 203.307H317.736V201.835L316.265 200.731V200.363C315.926 200.172 313.768 199.716 313.323 199.628Z" fill="#0095DA"/>
</svg>
