<svg width="1132" height="325" viewBox="0 0 1132 325" fill="none" xmlns="http://www.w3.org/2000/svg">
<path fill-rule="evenodd" clip-rule="evenodd" d="M234.477 121.685C234.477 127.286 233.267 131.744 230.845 134.999C227.874 139.104 223.143 141.157 216.649 141.157H111.169V147.139C111.169 150.306 112.269 153.209 114.47 155.848C116.671 158.487 119.092 159.807 121.733 159.807H232.662V188.838H115.461C104.126 188.838 94.6616 184.028 87.0682 174.41C80.9058 166.669 77.8242 159.397 77.8242 152.593V99.1054C77.8242 90.8955 81.6208 83.2415 89.2144 76.1455C96.8079 69.049 104.126 65.5005 111.169 65.5005H206.91C212.632 65.5005 218.658 68.5794 224.985 74.7081C231.313 80.8669 234.477 86.6141 234.477 92.0095V121.685ZM201.958 103.592C201.958 100.983 200.995 98.8711 199.069 97.2879C197.144 95.6751 194.805 94.8829 192.054 94.8829H122.723C119.863 94.8829 117.222 96.232 114.8 98.9304C112.379 101.627 111.169 104.619 111.169 107.903V113.006H201.793L201.958 103.592ZM446.098 188.662H412.754V112.302C412.754 111.128 412.286 110.044 411.351 109.047C410.415 108.05 409.453 107.552 408.462 107.552C407.472 107.552 406.536 107.786 405.656 108.255C404.775 108.725 404.06 109.604 403.51 110.894L363.398 188.662H331.869L290.601 110.543C290.271 109.135 289.446 107.991 288.125 107.111C286.804 106.232 285.814 105.792 285.154 105.792C284.163 105.792 283.255 106.349 282.43 107.464C281.605 108.578 281.192 109.78 281.192 111.07V188.662H248.508V93.8275C248.508 85.0305 252.305 77.4645 259.897 71.1307C266.391 65.7348 272.718 63.0378 278.881 63.0378C286.475 63.0378 292.857 65.1491 298.029 69.3716C302.761 73.242 307.989 80.2218 313.711 90.3089L346.725 153.825L380.73 90.1327C385.132 81.3356 389.699 74.8255 394.431 70.6026C400.044 65.5597 406.756 63.0378 414.569 63.0378C423.483 63.0378 431.077 66.5563 437.349 73.5941C443.182 80.1629 446.098 87.3763 446.098 95.2356V188.662ZM609.85 168.956C609.85 173.178 608.639 177.167 606.218 180.921C602.917 186.082 598.35 188.662 592.517 188.662H461.78V112.83H562.969C565.281 112.83 567.536 111.715 569.737 109.487C571.388 107.844 572.214 105.85 572.214 103.504C572.214 101.511 571.388 99.5161 569.737 97.5223C567.646 95.0591 565.005 93.8275 561.814 93.8275H461.78V65.5005H583.438C588.83 65.5005 593.782 68.1398 598.295 73.4183C602.476 78.2274 604.567 82.9193 604.567 87.4932V104.913C604.567 109.37 603.632 112.947 601.761 115.645C600.551 117.405 597.689 120.22 593.177 124.09C598.129 127.61 601.705 130.541 603.907 132.888C607.869 136.992 609.85 140.863 609.85 144.5V168.956ZM575.349 151.01C575.349 148.547 574.8 146.611 573.699 145.203C572.268 143.444 570.122 142.564 567.261 142.564H494.959V158.927H568.582C570.673 158.927 572.323 158.164 573.534 156.64C574.744 155.115 575.349 153.238 575.349 151.01Z" fill="#00406A"/>
<path fill-rule="evenodd" clip-rule="evenodd" d="M732.749 119.768H703.351V182.286H675.619H667.078H639.346V119.768H599.398V84.6243H667.078H675.619H743.298V93.1872L743.365 93.1258L743.919 92.6298L744.478 92.1456L745.039 91.6748L745.605 91.2153L746.173 90.7704L746.741 90.3411L747.316 89.9221L747.893 89.518L748.472 89.1296L749.056 88.7534L749.647 88.3902L750.24 88.0424L750.837 87.7102L751.434 87.3945L752.041 87.0911L752.651 86.8046L753.26 86.5353L753.878 86.2809L754.502 86.0424L755.128 85.8219L755.758 85.6188L756.389 85.4348L757.029 85.2665L757.67 85.1179L758.311 84.9886L758.956 84.8781L759.609 84.7868L760.261 84.7156L760.914 84.6645L761.563 84.6341L762.163 84.6243H826.163L827.217 84.66L828.381 84.7758L829.536 84.9676L830.674 85.2291L831.795 85.5586L832.898 85.9514L833.979 86.4045L835.044 86.9144L836.091 87.4802L837.116 88.0949L838.124 88.7587L839.12 89.4708L840.1 90.2301L841.065 91.0308L842.02 91.8767L842.974 92.7744L843.898 93.7004L844.769 94.6233L845.599 95.5613L846.389 96.5168L847.135 97.4902L847.834 98.4814L848.451 99.4398L848.735 99.036L849.191 98.4149L849.663 97.7998L850.15 97.1928L850.651 96.5924L851.169 95.9973L851.696 95.413L852.241 94.8317L852.801 94.2565L853.359 93.7028L853.862 93.214L854.37 92.735L854.879 92.2662L855.391 91.8085L855.905 91.3623L856.419 90.9309L856.931 90.5145L857.449 90.1062L857.972 89.7089L858.495 89.3274L859.016 88.9611L859.545 88.6039L860.077 88.2598L860.61 87.9312L861.148 87.6148L861.693 87.3108L862.241 87.022L862.794 86.7481L863.347 86.491L863.91 86.2464L864.478 86.0185L865.049 85.8077L865.624 85.6148L866.211 85.4364L866.798 85.2791L867.391 85.1398L867.986 85.0212L868.587 84.9217L869.197 84.8433L869.805 84.7868L870.41 84.753L870.961 84.7417H938.152V84.6243H974.426V115.943H1014.97V84.6243H1051.68V182.286H1014.97V151.321H974.426V182.286H944.41H938.152H877.595L876.653 182.276L875.682 182.246L874.718 182.193L873.762 182.119L872.813 182.023L871.872 181.906L870.941 181.766L870.016 181.604L869.098 181.419L868.193 181.212L867.294 180.982L866.403 180.728L865.522 180.45L864.652 180.149L863.791 179.823L862.941 179.474L862.101 179.101L861.275 178.705L860.458 178.283L859.656 177.839L858.864 177.369L858.086 176.877L857.324 176.361L856.577 175.824L855.841 175.262L855.122 174.678L854.419 174.073L853.732 173.446L853.06 172.797L852.406 172.129L851.766 171.438L851.147 170.732L850.667 170.154L850.457 169.892V182.287H765.034L764.193 182.276L763.308 182.24L762.43 182.18L761.558 182.096L760.687 181.987L759.823 181.853L758.965 181.695L758.112 181.511L757.264 181.301L756.425 181.067L755.593 180.807L754.77 180.522L753.955 180.212L753.151 179.878L752.353 179.518L751.564 179.132L750.789 178.723L750.024 178.289L749.267 177.831L748.526 177.351L747.798 176.848L747.08 176.323L746.373 175.774L745.681 175.204L745.002 174.614L744.335 174.002L743.682 173.371L743.043 172.72L742.415 172.048L741.8 171.357L741.2 170.648L740.633 169.947L740.188 169.381L739.755 168.814L739.333 168.244L738.928 167.679L738.53 167.109L738.141 166.533L737.763 165.952L737.402 165.374L737.049 164.792L736.709 164.205L736.381 163.616L736.066 163.025L735.763 162.429L735.473 161.83L735.194 161.226L734.93 160.62L734.68 160.015L734.443 159.4L734.217 158.776L734.009 158.153L733.815 157.53L733.634 156.896L733.468 156.255L733.322 155.619L733.189 154.977L733.074 154.328L732.975 153.68L732.894 153.028L732.83 152.375L732.785 151.72L732.757 151.063L732.749 150.461V119.768ZM938.152 119.416H885.432L885.149 119.424L884.968 119.439L884.789 119.464L884.614 119.498L884.44 119.543L884.259 119.6L884.073 119.669L883.88 119.753L883.675 119.855L883.458 119.977L883.228 120.122L882.986 120.289L882.73 120.484L882.462 120.705L882.18 120.959L881.882 121.249L881.585 121.557L881.319 121.852L881.086 122.13L880.887 122.388L880.722 122.619L880.588 122.826L880.48 123.009L880.4 123.163L880.34 123.291L880.3 123.392L880.277 123.46L880.264 123.508L880.257 123.54L880.256 123.547L880.253 123.666V142.691L880.258 142.949L880.269 143.101L880.285 143.238L880.308 143.377L880.338 143.517L880.372 143.648L880.415 143.782L880.47 143.929L880.534 144.082L880.608 144.236L880.697 144.403L880.808 144.588L880.933 144.781L881.077 144.982L881.244 145.196L881.425 145.41L881.589 145.589L881.725 145.721L881.856 145.837L881.99 145.943L882.119 146.035L882.241 146.111L882.371 146.182L882.515 146.25L882.666 146.312L882.827 146.368L883.001 146.417L883.202 146.462L883.426 146.501L883.668 146.53L883.936 146.549L884.311 146.558H938.153L938.152 119.416Z" fill="#003D6E"/>
<path fill-rule="evenodd" clip-rule="evenodd" d="M737.228 112.108H697.282V174.627H675.492V92.4025H737.228V112.108ZM669.55 174.627H647.76V112.108H607.812V92.4025H669.55V174.627ZM845.598 129.86C845.598 133.593 844.791 136.565 843.177 138.734C841.196 141.472 838.042 142.84 833.712 142.84H763.392V146.828C763.392 148.94 764.126 150.875 765.593 152.634C767.061 154.393 768.675 155.274 770.436 155.274H844.387V174.627H766.253C758.697 174.627 752.388 171.421 747.325 165.009C743.217 159.848 741.163 155 741.163 150.464V114.807C741.163 109.332 743.694 104.23 748.756 99.4997C753.818 94.7685 758.697 92.4025 763.392 92.4025H827.22C831.035 92.4025 835.051 94.4557 839.27 98.5413C843.489 102.647 845.598 106.479 845.598 110.076V129.86ZM823.918 117.798C823.918 116.058 823.276 114.649 821.993 113.594C820.709 112.519 819.15 111.991 817.316 111.991H771.096C769.188 111.991 767.427 112.891 765.813 114.689C764.199 116.487 763.392 118.482 763.392 120.671V124.072H823.808L823.918 117.798ZM938.341 174.627H878.805C869.855 174.627 862.811 171.616 857.676 165.596C853.64 160.826 851.623 155.703 851.623 150.23V115.393C851.623 109.841 854.228 104.524 859.436 99.4408C864.132 94.8274 868.387 92.5199 872.202 92.5199H937.9V111.757H886.508C883.501 111.757 880.694 113.066 878.09 115.686C875.485 118.305 874.183 120.945 874.183 123.604V142.84C874.183 145.734 875.229 148.373 877.319 150.757C879.41 153.143 882.106 154.335 885.408 154.335H938.341V174.627ZM1045.61 174.627H1023.38V143.661H982.332V123.721H1023.38V92.4025H1045.61V174.627ZM968.356 174.627H946.566V92.4025H968.356V174.627Z" fill="#D8DB40"/>
<path fill-rule="evenodd" clip-rule="evenodd" d="M55.4609 201.336C1083.51 201.336 1080.99 201.336 1080.99 201.336H55.4609Z" fill="#1B1918"/>
<path d="M55.4609 201.336C1083.51 201.336 1080.99 201.336 1080.99 201.336" stroke="#1B1918" stroke-width="5.33333"/>
<path fill-rule="evenodd" clip-rule="evenodd" d="M1086.38 186.972C1093.06 186.972 1098.51 192.779 1098.51 199.899C1098.51 207.02 1093.06 212.827 1086.38 212.827C1079.7 212.827 1074.25 207.02 1074.25 199.899C1074.25 192.779 1079.7 186.972 1086.38 186.972Z" fill="#00406A"/>
<path fill-rule="evenodd" clip-rule="evenodd" d="M45.6207 186.972C52.3009 186.972 57.7491 192.779 57.7491 199.899C57.7491 207.02 52.3009 212.827 45.6207 212.827C38.9404 212.827 33.4922 207.02 33.4922 199.899C33.4922 192.779 38.9404 186.972 45.6207 186.972Z" fill="#D8DB40"/>
<path fill-rule="evenodd" clip-rule="evenodd" d="M403.167 227.675L403.131 244.316H399.04L399.004 216.774H403.095L403.131 223.43H406.469L406.505 227.675H403.167ZM428.35 244.316C427.345 244.316 426.484 244.163 425.754 243.857C425.024 243.551 424.372 243.003 423.805 242.212C423.015 241.167 422.62 239.98 422.62 238.654V229.818C422.62 227.727 423.188 226.178 424.324 225.17C425.461 224.163 427.034 223.659 429.044 223.659H433.889C435.564 223.659 436.898 224.131 437.891 225.075C438.884 226.018 439.38 227.382 439.38 229.168L439.416 231.807L426.711 237.775V238.272L426.783 238.846C426.879 239.356 427.052 239.693 427.304 239.86C427.555 240.025 427.95 240.108 428.476 240.108H439.595L439.631 244.316H428.35ZM435.289 229.129C435.289 228.594 435.175 228.25 434.948 228.097C434.72 227.943 434.32 227.867 433.745 227.867H428.434C427.286 227.867 426.711 228.542 426.711 229.894L426.718 233.153L435.289 229.129ZM464.09 244.316C462.541 244.316 461.195 243.832 460.046 242.856C458.832 241.811 458.222 240.465 458.222 238.827V229.034C458.222 227.396 458.635 226.146 459.461 225.292C460.286 224.43 461.476 223.888 463.032 223.659H464H471.86L471.896 227.867H463.97C463.468 227.867 463.061 228.014 462.763 228.307C462.463 228.6 462.313 229.002 462.313 229.512V238.119C462.313 238.654 462.487 239.12 462.834 239.515C463.181 239.91 463.606 240.108 464.108 240.108H471.896L471.932 244.316H464.09ZM503.084 244.316V228.977C503.084 228.594 502.898 228.326 502.528 228.173C502.157 228.02 501.756 227.943 501.325 227.943H496.229C495.536 227.943 495.057 228.046 494.794 228.25C494.53 228.454 494.398 228.9 494.398 229.588V244.316H490.271L490.307 229.168C490.307 227.306 490.84 225.923 491.905 225.017C492.969 224.112 494.398 223.659 496.193 223.659H501.325C503.12 223.659 504.544 224.112 505.596 225.017C506.649 225.923 507.175 227.319 507.175 229.206V244.316H503.084ZM537.945 244.316H532.035C530.485 244.316 529.181 243.857 528.128 242.939C526.986 241.945 526.412 240.631 526.412 238.998V228.709C526.412 227.025 526.963 225.738 528.057 224.845C529.038 224.055 530.354 223.659 531.999 223.659H537.909H538.734C540.188 223.888 541.324 224.373 542.132 225.12C543.065 225.961 543.531 227.14 543.531 228.652V238.979C543.531 240.593 542.987 241.887 541.904 242.856C540.815 243.832 539.494 244.316 537.945 244.316ZM539.439 229.779C539.439 228.504 538.83 227.867 537.609 227.867H532.405C531.137 227.867 530.503 228.504 530.503 229.779V237.928C530.503 238.667 530.641 239.216 530.922 239.573C531.197 239.93 531.688 240.108 532.387 240.108H537.669C538.847 240.108 539.439 239.433 539.439 238.081V229.779ZM562.804 244.316V216.774H566.931L566.967 244.316H562.804ZM597.701 244.316H591.791C590.241 244.316 588.937 243.857 587.885 242.939C586.742 241.945 586.168 240.631 586.168 238.998V228.709C586.168 227.025 586.719 225.738 587.813 224.845C588.794 224.055 590.11 223.659 591.755 223.659H597.665H598.49C599.944 223.888 601.08 224.373 601.888 225.12C602.821 225.961 603.288 227.14 603.288 228.652V238.979C603.288 240.593 602.743 241.887 601.66 242.856C600.572 243.832 599.25 244.316 597.701 244.316ZM599.196 229.779C599.196 228.504 598.586 227.867 597.365 227.867H592.162C590.894 227.867 590.259 228.504 590.259 229.779V237.928C590.259 238.667 590.397 239.216 590.678 239.573C590.953 239.93 591.444 240.108 592.143 240.108H597.426C598.604 240.108 599.196 239.433 599.196 238.081V229.779ZM633.614 251.049H622.596L622.561 246.802H633.471C634.284 246.802 634.817 246.644 635.068 246.324C635.319 246.006 635.445 245.412 635.445 244.545H628.159C626.604 244.545 625.312 243.984 624.283 242.862C623.255 241.74 622.74 240.338 622.74 238.654V229.244C622.74 226.694 623.811 224.96 625.958 224.042C626.598 223.787 627.196 223.659 627.74 223.659H634.571C636.073 223.659 637.281 224.137 638.196 225.094C639.111 226.05 639.572 227.344 639.572 228.977V245.693C639.572 247.478 638.986 248.843 637.813 249.786C636.761 250.628 635.361 251.049 633.614 251.049ZM635.445 229.435C635.445 228.415 635.014 227.905 634.152 227.905H628.697C627.453 227.905 626.831 228.492 626.831 229.665V238.654L626.939 239.19C627.202 239.93 627.711 240.3 628.452 240.3H634.219C634.697 240.3 635.026 240.133 635.194 239.802C635.361 239.471 635.445 239.024 635.445 238.463V229.435ZM660.89 222.321C660.148 222.321 659.508 222.046 658.97 221.498C658.432 220.949 658.163 220.293 658.163 219.528C658.163 218.788 658.426 218.151 658.952 217.615C659.479 217.08 660.101 216.812 660.818 216.812C661.536 216.812 662.158 217.08 662.684 217.615C663.211 218.151 663.475 218.801 663.475 219.566C663.475 220.331 663.223 220.982 662.72 221.517C662.218 222.052 661.608 222.321 660.89 222.321ZM658.773 244.316V223.43H662.9L662.936 244.316H658.773ZM694.064 244.316H687.652C686.222 244.316 684.948 243.736 683.835 242.575C682.728 241.415 682.172 240.07 682.172 238.54V236.168C682.172 234.23 682.603 232.675 683.47 231.501C684.428 230.226 685.797 229.588 687.574 229.588H695.092C695.092 228.798 695.045 228.339 694.949 228.212C694.781 227.981 694.327 227.867 693.585 227.867H682.208L682.172 223.659H694.075C695.601 223.659 696.833 224.086 697.772 224.941C698.712 225.795 699.184 227.025 699.184 228.632V238.807C699.184 240.287 698.681 241.574 697.682 242.671C696.678 243.767 695.469 244.316 694.064 244.316ZM695.092 235.441C695.092 234.932 694.919 234.53 694.573 234.236C694.219 233.943 693.782 233.797 693.257 233.797H688.1C687.622 233.797 687.197 233.943 686.82 234.236C686.449 234.53 686.264 234.932 686.264 235.441V238.616C686.264 239.228 686.467 239.65 686.874 239.879C687.167 240.032 687.646 240.108 688.316 240.108H693.077C693.723 240.108 694.219 240.019 694.573 239.841C694.919 239.662 695.092 239.254 695.092 238.616V235.441ZM769.984 244.316C768.978 244.316 768.117 244.163 767.388 243.857C766.657 243.551 766.006 243.003 765.438 242.212C764.648 241.167 764.253 239.98 764.253 238.654V229.818C764.253 227.727 764.822 226.178 765.958 225.17C767.094 224.163 768.667 223.659 770.678 223.659H775.522C777.197 223.659 778.531 224.131 779.524 225.075C780.517 226.018 781.013 227.382 781.013 229.168L781.049 231.807L768.344 237.775V238.272L768.416 238.846C768.512 239.356 768.685 239.693 768.937 239.86C769.188 240.025 769.583 240.108 770.109 240.108H781.228L781.264 244.316H769.984ZM776.922 229.129C776.922 228.594 776.808 228.25 776.581 228.097C776.354 227.943 775.953 227.867 775.379 227.867H770.067C768.919 227.867 768.344 228.542 768.344 229.894L768.351 233.153L776.922 229.129ZM818.877 244.316V229.321C818.877 228.403 818.374 227.943 817.37 227.943H814.57L814.247 228.059C814.032 228.186 813.882 228.377 813.799 228.632C813.715 228.888 813.673 229.18 813.673 229.519V244.316H809.545L809.581 229.588C809.581 228.492 809.055 227.943 808.003 227.943H805.49C804.94 227.943 804.551 228.039 804.323 228.231C804.096 228.422 803.983 228.811 803.983 229.397V244.316H799.855L799.891 229.091C799.891 227.382 800.304 226.05 801.13 225.094C801.955 224.137 803.169 223.659 804.773 223.659H807.679C808.421 223.659 809.115 223.768 809.761 223.984C810.407 224.201 810.958 224.564 811.412 225.075C811.843 224.616 812.405 224.265 813.098 224.022C813.792 223.78 814.474 223.659 815.145 223.659H818.123C819.702 223.659 820.905 224.137 821.73 225.094C822.556 226.05 822.968 227.396 822.968 229.129V244.316H818.877ZM853.774 244.316H847.398C846.655 244.316 845.985 244.15 845.376 243.819C844.766 243.487 844.191 243.009 843.653 242.384C843.121 241.759 842.743 241.135 842.528 240.51C842.313 239.885 842.205 239.127 842.205 238.234V216.774H846.261L846.296 223.43H853.349C854.958 223.43 856.196 223.749 857.058 224.386C858.044 225.125 858.678 226.299 858.965 227.905C859.061 228.365 859.097 228.696 859.073 228.9V238.616C859.073 241.064 858.009 242.786 855.885 243.781C855.502 243.959 855.138 244.093 854.796 244.182C854.449 244.271 854.108 244.316 853.774 244.316ZM854.982 229.435C854.982 228.773 854.863 228.313 854.623 228.059C854.383 227.803 853.924 227.675 853.253 227.675H847.918C847.295 227.675 846.865 227.797 846.637 228.039C846.41 228.282 846.296 228.721 846.296 229.359V238.158C846.296 238.667 846.452 239.113 846.764 239.496C847.08 239.879 847.487 240.07 847.989 240.07H853.648C854.079 240.07 854.384 239.949 854.551 239.707C854.719 239.464 854.863 239.075 854.982 238.54V229.435ZM890.237 244.316H883.825C882.395 244.316 881.121 243.736 880.008 242.575C878.902 241.415 878.346 240.07 878.346 238.54V236.168C878.346 234.23 878.776 232.675 879.643 231.501C880.601 230.226 881.97 229.588 883.747 229.588H891.266C891.266 228.798 891.218 228.339 891.122 228.212C890.954 227.981 890.5 227.867 889.758 227.867H878.382L878.346 223.659H890.249C891.774 223.659 893.006 224.086 893.945 224.941C894.885 225.795 895.357 227.025 895.357 228.632V238.807C895.357 240.287 894.855 241.574 893.856 242.671C892.851 243.767 891.642 244.316 890.237 244.316ZM891.266 235.441C891.266 234.932 891.093 234.53 890.746 234.236C890.392 233.943 889.955 233.797 889.43 233.797H884.273C883.795 233.797 883.37 233.943 882.994 234.236C882.622 234.53 882.437 234.932 882.437 235.441V238.616C882.437 239.228 882.64 239.65 883.048 239.879C883.34 240.032 883.819 240.108 884.489 240.108H889.25C889.896 240.108 890.392 240.019 890.746 239.841C891.093 239.662 891.266 239.254 891.266 238.616V235.441ZM918.757 244.316H914.63L914.666 229.302C914.666 227.561 914.989 226.254 915.636 225.368C916.281 224.482 917.406 223.914 919.008 223.659H919.87H922.131L922.167 227.905L920.839 227.867C920.097 227.867 919.565 227.95 919.243 228.116C918.919 228.282 918.757 228.721 918.757 229.435V244.316ZM945.334 244.316C943.785 244.316 942.439 243.832 941.29 242.856C940.076 241.811 939.466 240.465 939.466 238.827V229.034C939.466 227.396 939.878 226.146 940.704 225.292C941.53 224.43 942.72 223.888 944.275 223.659H945.244H953.104L953.14 227.867H945.214C944.712 227.867 944.305 228.014 944.006 228.307C943.707 228.6 943.557 229.002 943.557 229.512V238.119C943.557 238.654 943.731 239.12 944.078 239.515C944.424 239.91 944.849 240.108 945.352 240.108H953.14L953.176 244.316H945.334ZM983.407 244.316H976.994C975.565 244.316 974.291 243.736 973.178 242.575C972.071 241.415 971.515 240.07 971.515 238.54V236.168C971.515 234.23 971.946 232.675 972.813 231.501C973.771 230.226 975.14 229.588 976.917 229.588H984.435C984.435 228.798 984.388 228.339 984.292 228.212C984.124 227.981 983.669 227.867 982.928 227.867H971.551L971.515 223.659H983.418C984.943 223.659 986.176 224.086 987.115 224.941C988.054 225.795 988.526 227.025 988.526 228.632V238.807C988.526 240.287 988.024 241.574 987.025 242.671C986.021 243.767 984.812 244.316 983.407 244.316ZM984.435 235.441C984.435 234.932 984.262 234.53 983.915 234.236C983.562 233.943 983.125 233.797 982.599 233.797H977.443C976.964 233.797 976.54 233.943 976.163 234.236C975.792 234.53 975.606 234.932 975.606 235.441V238.616C975.606 239.228 975.81 239.65 976.217 239.879C976.51 240.032 976.988 240.108 977.658 240.108H982.419C983.066 240.108 983.562 240.019 983.915 239.841C984.262 239.662 984.435 239.254 984.435 238.616V235.441ZM1019.05 244.316H1012.71C1012.37 244.316 1012.03 244.271 1011.68 244.182C1011.34 244.093 1010.99 243.959 1010.63 243.781C1009.55 243.27 1008.76 242.601 1008.23 241.772C1007.7 240.944 1007.44 239.904 1007.44 238.654V228.9C1007.44 227.09 1007.96 225.725 1008.98 224.807C1010.01 223.888 1011.39 223.43 1013.11 223.43H1020.22V216.774H1024.34L1024.31 238.234C1024.31 239.152 1024.21 239.904 1024 240.491C1023.8 241.078 1023.42 241.689 1022.88 242.327C1022.33 242.964 1021.74 243.456 1021.12 243.8C1020.5 244.144 1019.81 244.316 1019.05 244.316ZM1020.22 229.359C1020.22 228.721 1020.09 228.282 1019.84 228.039C1019.59 227.797 1019.15 227.675 1018.53 227.675H1013.26C1012.61 227.675 1012.16 227.797 1011.91 228.039C1011.66 228.282 1011.53 228.747 1011.53 229.435V238.425C1011.63 238.884 1011.7 239.19 1011.75 239.343C1011.95 239.827 1012.3 240.07 1012.84 240.07H1018.56C1019.03 240.07 1019.43 239.879 1019.75 239.496C1020.06 239.113 1020.22 238.667 1020.22 238.158V229.359ZM1055.47 244.316H1049.06C1047.63 244.316 1046.36 243.736 1045.24 242.575C1044.14 241.415 1043.58 240.07 1043.58 238.54V236.168C1043.58 234.23 1044.01 232.675 1044.88 231.501C1045.84 230.226 1047.21 229.588 1048.98 229.588H1056.5C1056.5 228.798 1056.45 228.339 1056.36 228.212C1056.19 227.981 1055.74 227.867 1054.99 227.867H1043.62L1043.58 223.659H1055.48C1057.01 223.659 1058.24 224.086 1059.18 224.941C1060.12 225.795 1060.59 227.025 1060.59 228.632V238.807C1060.59 240.287 1060.09 241.574 1059.09 242.671C1058.09 243.767 1056.88 244.316 1055.47 244.316ZM1056.5 235.441C1056.5 234.932 1056.33 234.53 1055.98 234.236C1055.63 233.943 1055.19 233.797 1054.67 233.797H1049.51C1049.03 233.797 1048.61 233.943 1048.23 234.236C1047.86 234.53 1047.67 234.932 1047.67 235.441V238.616C1047.67 239.228 1047.88 239.65 1048.28 239.879C1048.58 240.032 1049.05 240.108 1049.72 240.108H1054.49C1055.13 240.108 1055.63 240.019 1055.98 239.841C1056.33 239.662 1056.5 239.254 1056.5 238.616V235.441Z" fill="#1B1918"/>
</svg>
