<svg width="555" height="517" viewBox="0 0 555 517" fill="none" xmlns="http://www.w3.org/2000/svg">
<path fill-rule="evenodd" clip-rule="evenodd" d="M23.5072 0L548.718 0.319926C549.301 0.959777 549.88 1.59963 550.463 2.23948V4.47896C549.999 5.01196 549.531 5.54559 549.067 6.07859L62.2437 6.39852C52.1526 6.39852 27.7096 8.5289 21.0643 5.11881C20.4948 2.96699 20.6009 2.40168 21.7623 0.639852L23.5072 0Z" fill="black"/>
<path fill-rule="evenodd" clip-rule="evenodd" d="M58.0559 93.7382L59.1029 87.9796H489.741C495.538 87.9796 514.997 86.8048 516.961 89.5792C517.433 90.379 517.569 90.7057 517.31 91.4988C516.846 92.2452 516.379 92.9919 515.914 93.7382H58.0559Z" fill="black"/>
<path fill-rule="evenodd" clip-rule="evenodd" d="M359.224 141.727C378.421 141.57 400.651 139.635 418.201 142.687C449.665 148.158 471.057 162.714 485.204 183.957C489.898 191.006 493.053 199.45 495.674 208.272C498.808 218.829 498.804 234.096 496.023 244.743C486.576 280.923 462.381 303.246 423.435 312.248C413.859 314.461 401.666 313.442 390.981 313.207C387.728 332.886 373.469 348.226 356.083 355.118C351.43 356.503 346.777 357.889 342.124 359.277C336.007 362.374 330.288 367.403 323.977 370.794C311.812 377.333 297.071 379.109 280.355 381.671C274.307 382.599 266.717 381.575 261.859 380.712C230.853 375.209 209.997 362.793 194.506 343.28C190.388 338.094 179.336 323.682 181.245 316.087C182.889 315.529 183.503 315.176 185.433 315.447C189.083 318.432 189.878 324.917 192.412 328.884C196.6 334.534 200.788 340.186 204.975 345.84C223.89 367.838 268.65 384.56 308.622 370.154C315.853 367.547 324.595 365.24 329.212 360.236C328.532 357.405 327.946 356.602 329.56 354.478C337.745 352.773 346.204 352.379 352.942 349.679C375.018 340.83 394.17 313.337 380.511 284.414C376.152 275.184 368.112 268.756 360.62 262.339L332.003 236.105C326.135 230.724 320.084 222.278 311.414 219.789C296.244 215.434 281.053 228.073 285.24 242.504C287.833 251.438 297.038 254.462 301.293 261.699C300.064 266.21 294.01 268.049 291.173 271.297C287.676 275.302 284.07 280.138 281.751 285.054C275.132 299.082 277.608 318.966 285.24 330.163C287.997 334.21 292.185 337.122 294.314 341.681C293.566 343.226 293.057 343.757 291.522 344.56C285.43 343.466 282.122 336.671 279.308 332.403C269.127 316.962 268.776 290.718 279.657 275.456C283.372 270.245 288.876 266.501 292.918 261.699L283.495 252.421C281.55 249.979 281.378 247.3 279.657 244.423C279.54 244.103 279.424 243.783 279.308 243.464C276.833 241.712 260.632 244.525 259.765 245.063C255.539 285.404 198.355 326.11 143.206 310.968C118.748 304.252 99.9469 290.812 87.719 272.897C82.8616 265.78 79.0497 256.993 76.5518 247.942C61.7087 194.167 104.026 153.752 146.347 143.967C159.657 140.889 177.002 141.679 193.11 141.727C192.436 115.041 219.511 111.62 234.988 127.011L242.665 120.292C253.619 114.205 268.493 119.044 273.375 127.011L274.771 126.051C280.156 115.472 299.672 116.211 308.622 122.851C311.69 125.128 312.605 129.14 315.252 131.809V131.17C319.306 126.673 322.204 121.077 328.514 118.692C346.741 111.806 359.548 126 359.224 141.727ZM214.398 123.491C208.253 125.815 203.644 126.648 201.137 132.129C198.611 137.651 199.741 147.396 199.741 154.844C199.741 172.113 195.687 198.359 216.841 195.795C222.199 195.145 226.673 192.789 229.055 189.396C232.736 184.152 231.498 173.208 231.498 164.762C231.498 145.362 235.792 123.635 214.398 123.491ZM253.134 123.491C246.399 126.044 241.364 127.204 239.175 133.729C239.059 140.874 238.943 148.019 238.826 155.164C238.826 172.442 234.28 199.781 256.973 195.795C262.679 194.792 267.614 191.3 269.536 186.837C271.901 181.346 270.234 170.872 270.234 164.122C270.234 144.619 274.473 123.837 253.134 123.491ZM291.871 123.491C285.647 125.824 281.133 126.595 278.61 132.129C276.027 137.799 277.214 147.866 277.214 155.484C277.214 172.777 273.064 199.817 295.71 195.795C301.235 194.813 306.007 191.431 307.924 187.157C310.439 181.547 308.971 171.64 308.971 163.802C308.971 144.456 312.99 123.822 291.871 123.491ZM335.493 123.491C328.661 126.074 323.87 127.206 321.534 133.729C321.418 140.874 321.301 148.019 321.185 155.164C321.185 172.334 316.46 198.244 337.587 195.795C343.101 195.155 347.711 192.858 350.15 189.396C353.832 184.168 352.593 173.213 352.593 164.762C352.593 145.315 356.948 123.639 335.493 123.491ZM278.61 237.705C278.711 219.021 302.585 205.991 320.487 217.55L350.499 244.743C370.712 263.276 388.695 272.357 392.027 307.129C407.02 307.905 422.078 307.381 433.556 303.29C472.788 289.305 507.731 245.511 484.158 195.475C473.437 172.717 451.912 156.258 423.435 149.725C412.854 147.298 399.408 147.806 386.793 147.806L359.224 148.126C359.625 172.667 363.977 195.003 342.822 200.913C336.516 202.675 329.202 201.294 324.675 198.674C319.52 195.691 318.573 190.742 314.554 186.837C312.653 197.228 297.365 205.301 284.193 200.274C279.701 198.559 276.752 195.356 273.724 192.275C258.19 204.115 250.701 205.714 234.988 192.275H234.639C228.789 204.724 205.606 203.637 197.647 193.875C190.418 185.009 192.906 162.917 193.11 147.806C177.77 147.644 160.737 146.812 148.092 149.725C109.377 158.646 68.2618 197.522 83.1823 246.983C85.7299 255.426 89.3917 263.58 94.0006 270.337C110.201 294.089 149.182 316.904 193.11 304.569C205.204 301.173 215.619 295.341 224.518 288.893C235.062 281.253 244.333 269.529 249.645 257.22C252.078 251.581 252.328 242.877 255.926 238.025L278.61 237.705Z" fill="black"/>
<path fill-rule="evenodd" clip-rule="evenodd" d="M358.875 330.163C364.566 330.87 362.354 335.279 359.573 337.202C354.16 340.948 347.306 343.536 339.332 344.88C333.295 345.897 325.039 345.363 328.863 339.441C343.313 338.053 350.063 335.88 358.875 330.163Z" fill="black"/>
<path fill-rule="evenodd" clip-rule="evenodd" d="M343.52 176.279L345.962 176.599C347.156 177.116 347.132 177.12 347.707 178.199C349.578 183.646 342.504 191.725 336.191 189.076C334.634 188.42 334.337 187.691 333.399 186.517C333.516 186.197 333.632 185.877 333.748 185.557C335.175 183.154 339.12 183.851 340.728 181.718C342.124 179.865 341.932 177.805 343.52 176.279Z" fill="black"/>
<path fill-rule="evenodd" clip-rule="evenodd" d="M299.548 176.279C301.905 176.236 302.781 176.542 304.085 177.239V177.879C307.103 186.121 294.96 192.412 289.777 187.157C289.85 185.345 290.155 185.009 290.824 183.957C297.591 183.126 296.272 179.937 299.548 176.279Z" fill="black"/>
<path fill-rule="evenodd" clip-rule="evenodd" d="M260.812 176.279L263.953 176.599C270.758 179.764 260.665 191.409 252.087 189.076C251.464 187.969 250.758 186.972 251.39 185.557C252.785 183.181 255.048 184.161 257.322 182.678L260.812 176.279Z" fill="black"/>
<path fill-rule="evenodd" clip-rule="evenodd" d="M222.075 176.279L224.518 176.599L226.961 178.199C227.122 184.997 222.754 189.464 215.794 189.716C214.442 188.838 213.262 187.756 212.304 186.517C212.42 186.197 212.537 185.877 212.653 185.557C214.093 183.1 218.009 183.837 219.633 181.718C220.88 180.089 220.852 177.709 222.075 176.279Z" fill="black"/>
<path fill-rule="evenodd" clip-rule="evenodd" d="M166.588 219.469C178.983 219.764 181.19 236.05 169.729 238.345C159.263 240.44 153.932 229.44 159.259 222.988C160.956 220.934 163.765 220.557 166.588 219.469ZM165.89 225.868L164.494 227.467C164.261 228.214 164.029 228.96 163.796 229.707C165.338 232.08 167.341 233.072 170.427 231.306C171.219 228.423 170.729 227.567 168.682 225.868H165.89Z" fill="black"/>
<path fill-rule="evenodd" clip-rule="evenodd" d="M158.91 181.718C174.998 181.368 183.684 180.105 183.688 195.155C183.572 199.42 183.455 203.686 183.339 207.952L181.594 209.551L179.151 209.231C177.959 208.714 177.983 208.711 177.406 207.632C175.901 202.038 178.688 192.659 176.01 188.116C171.523 187.278 161.547 187.061 158.212 188.756C157.077 195.129 159.302 205.086 156.119 209.551C153.451 209.484 153.363 208.941 151.931 207.952C150.512 202.971 149.806 189.102 152.629 185.237C154.06 183.279 156.51 182.849 158.91 181.718Z" fill="black"/>
<path fill-rule="evenodd" clip-rule="evenodd" d="M191.016 213.39C207.753 212.865 216.029 210.475 218.237 224.588C218.825 228.348 219.284 235.824 217.539 238.985C214.577 244.352 183.031 246.661 189.272 237.705C195.082 236.787 206.773 238.513 211.606 236.105C211.9 231.021 212.809 223.463 210.559 219.789C203.706 219.497 183.729 221.874 189.272 214.03L191.016 213.39Z" fill="black"/>
<path fill-rule="evenodd" clip-rule="evenodd" d="M153.327 247.303L157.166 248.262C158.471 253.566 156.243 264.222 158.91 268.738C163.669 269.381 173.096 269.843 176.708 268.098C177.779 262.115 175.519 252.038 178.453 247.623L179.151 247.303C187.816 247.768 184.281 272.297 178.453 274.496L166.588 275.136C153.592 275.136 151.233 272.658 151.233 260.74C151.349 256.794 151.466 252.848 151.582 248.902C152.164 248.369 152.745 247.836 153.327 247.303Z" fill="black"/>
<path fill-rule="evenodd" clip-rule="evenodd" d="M125.409 213.39C132.378 213.061 150.994 211.237 145.649 219.149C139.123 220.131 128.131 218.059 123.315 220.749C123.111 226.188 122.554 232.021 123.664 236.425L124.711 236.745C132.716 239.48 140.148 235.132 146.696 239.624C146.652 241.54 146.37 241.77 145.649 242.824C137.442 244.376 120.914 244.259 117.731 239.624C115.207 235.949 115.169 220.896 117.731 217.23C119.461 214.755 122.186 214.617 125.409 213.39Z" fill="black"/>
<path fill-rule="evenodd" clip-rule="evenodd" d="M402.497 179.798C425.648 179.323 426.971 208 407.382 211.791C394.425 214.298 383.565 203.208 387.142 191.636C389.48 184.068 394.837 182.668 402.497 179.798ZM402.846 185.877C399.269 187.287 396.282 188.07 394.47 190.996C390.014 198.194 397.252 207.958 406.685 205.712C418.49 202.901 417.164 185.602 402.846 185.877Z" fill="black"/>
<path fill-rule="evenodd" clip-rule="evenodd" d="M436.348 212.431C461.498 211.712 462.744 240.878 440.884 244.423C428.454 246.439 418.483 234.689 422.04 223.948C424.346 216.979 429.413 215.268 436.348 212.431ZM437.046 218.509C422.392 224.937 428.374 241.866 442.28 238.025C453.877 234.822 451.34 218.038 437.046 218.509Z" fill="black"/>
<path fill-rule="evenodd" clip-rule="evenodd" d="M401.101 243.783C426.615 243.043 427.801 272.065 406.685 275.776C394.474 277.922 383.484 266.811 387.142 255.621C389.452 248.553 394.324 246.838 401.101 243.783ZM401.799 249.862C398.871 251.339 396.083 252.352 394.47 254.981C390.15 262.031 397.189 271.445 405.987 269.697C418.794 267.153 417.499 249.218 401.799 249.862Z" fill="black"/>
<path fill-rule="evenodd" clip-rule="evenodd" d="M366.552 212.431C391.836 211.706 393.186 240.84 371.089 244.423C359.321 246.332 348.594 235.424 352.244 224.268C354.596 217.075 359.569 215.489 366.552 212.431ZM367.25 218.509C352.97 225.047 358.595 241.866 372.485 238.025C384.172 234.794 381.705 217.955 367.25 218.509Z" fill="black"/>
<path fill-rule="evenodd" clip-rule="evenodd" d="M327.816 19.8354C338.611 19.5814 344.211 22.5452 349.801 26.8738C349.805 28.8983 349.501 29.2994 348.754 30.3929C348.52 30.4995 348.29 30.6063 348.056 30.7129C342.996 30.2547 340.804 26.541 336.191 25.2741C323.408 21.7629 313.577 30.169 311.065 38.3911C306.642 52.8716 318.735 66.883 334.795 63.6652C340.35 62.5522 343.093 59.3977 347.358 57.2667C348.66 57.7495 349.107 57.7856 349.801 58.8663C349.916 59.6127 350.035 60.3594 350.15 61.1058C345.908 64.1365 342.163 67.201 335.842 68.4641C313.028 73.0227 298.036 51.6008 306.877 33.2723C311.032 24.6589 317.974 23.5072 327.816 19.8354ZM370.74 19.8354C407.641 19.0772 408.761 63.6739 375.975 68.784C356.467 71.8233 341.253 51.6107 348.754 34.8719C353.103 25.1708 359.883 23.8367 370.74 19.8354ZM407.731 25.5941V42.5501C415.248 42.4017 432.868 40.4952 435.999 44.7896C435.545 45.7647 435.486 46.1167 434.603 46.7092C431.078 48.6812 413.444 47.413 407.731 47.349C407.616 53.7475 407.5 60.146 407.382 66.5446C406.8 67.0779 406.22 67.6109 405.638 68.1442C403.722 68.0514 403.306 67.9202 402.497 66.8645C400.986 64.585 401.216 26.6255 402.148 22.0749C402.731 21.6484 403.31 21.2216 403.893 20.7952C410.541 20.601 440.399 18.8462 438.79 23.9944L437.744 25.5941H407.731ZM445.77 25.5941V42.5501C453.287 42.4017 470.907 40.4952 474.037 44.7896C473.584 45.7647 473.524 46.1167 472.641 46.7092C469.117 48.6812 451.483 47.413 445.77 47.349C445.655 53.7475 445.539 60.146 445.421 66.5446C444.838 67.0779 444.259 67.6109 443.676 68.1442C441.76 68.0514 441.345 67.9202 440.535 66.8645C439.024 64.585 439.255 26.6255 440.186 22.0749C440.769 21.6484 441.348 21.2216 441.931 20.7952C448.579 20.601 478.438 18.8462 476.829 23.9944L475.782 25.5941H445.77ZM483.809 25.5941V41.5903C489.797 41.3792 513.357 39.7412 511.727 44.7896L510.68 46.3892H483.809V63.0254L514.868 63.3453L515.914 65.5848C515.356 66.2989 515.325 66.6527 514.519 67.1844C511.762 68.7764 479.778 67.9631 478.574 66.5446C475.775 62.4143 477.876 38.7942 477.876 31.9926C477.876 28.4443 477.035 23.0455 479.272 21.435C482.622 19.5433 510.628 20.3582 514.868 21.435C514.983 21.6484 515.101 21.8615 515.217 22.0749C515.101 23.0347 514.983 23.9944 514.868 24.9542L513.821 25.2741L483.809 25.5941ZM522.894 25.5941V41.5903C528.883 41.3792 552.442 39.7412 550.812 44.7896L549.765 46.3892H522.894V63.0254L553.953 63.3453L555 65.5848C554.442 66.2989 554.41 66.6527 553.604 67.1844C550.847 68.7764 518.863 67.9631 517.659 66.5446C514.861 62.4143 516.961 38.7942 516.961 31.9926C516.961 28.4443 516.12 23.0455 518.357 21.435C521.708 19.5433 549.713 20.3582 553.953 21.435C554.068 21.6484 554.187 21.8615 554.302 22.0749C554.187 23.0347 554.068 23.9944 553.953 24.9542L552.906 25.2741L522.894 25.5941ZM371.438 24.6343C362.483 27.9014 356.285 29.5813 353.64 38.3911C349.651 51.6696 360.312 66.3024 375.277 63.9851C400.93 60.0123 399.653 24.2113 371.438 24.6343Z" fill="black"/>
<path fill-rule="evenodd" clip-rule="evenodd" d="M26.648 51.1881V40.9505H47.2376V65.2649C44.0619 65.4466 37.3267 66.1203 36.4193 63.9851C19.2625 71.7913 -3.58606 60.0581 0.474642 40.6306C4.23697 22.6306 30.8681 12.861 44.0968 29.4332L43.7479 30.073L33.9765 35.8317C26.6361 28.9981 10.0262 33.5471 12.6889 45.7494C14.5733 54.3903 28.4759 59.9893 34.6744 51.1881H26.648ZM264.651 21.1151C273.31 20.8816 281.297 22.0352 285.938 25.5941L280.006 34.552C275.255 32.3429 266.523 29.1388 260.812 32.6324C260.696 33.1656 260.579 33.6988 260.463 34.2321C265.418 42.7421 284.759 35.7607 287.683 50.2283C291.777 70.486 258.683 68.054 247.202 62.0656C247.318 61.7457 247.434 61.4257 247.551 61.1058L252.785 53.1077C257.985 53.9596 270.663 60.7219 274.771 53.7475C273.297 47.5618 257.055 48.1763 252.087 44.7896C249.414 42.966 248.649 40.5221 247.9 36.7915C245.594 25.3045 256.148 24.2129 264.651 21.1151ZM68.8742 22.0749H80.0415C85.7415 36.47 91.4415 50.8667 97.1414 65.2649L83.8803 64.9449C83.1823 63.0254 82.4844 61.1058 81.7864 59.1863H67.1294C65.2899 66.7685 61.5841 65.674 51.7743 65.2649C57.4743 50.8699 63.1743 36.4732 68.8742 22.0749ZM102.376 22.0749C106.291 21.9872 112.188 21.531 114.939 22.7147L125.758 39.3509L126.456 39.0309L137.623 22.0749H149.488V64.9449H137.274C137.158 57.6933 137.041 50.4416 136.925 43.19V43.8298C132.877 48.2941 130.944 55.1379 126.107 58.8663H125.758C120.754 54.8993 119.275 47.7614 114.59 43.5099V64.9449H102.376V22.0749ZM157.515 22.3948H194.855V32.3125H169.729V39.0309H193.459V48.9486H169.729V55.3472H194.855V65.2649H157.515V22.3948ZM201.835 22.3948H226.961C241.965 25.4315 241.996 38.2631 233.941 47.6689L244.41 65.2649C240.99 65.3711 232.407 66.2697 230.451 64.625L222.424 52.1479H214.398C214.514 56.5202 214.631 60.8925 214.747 65.2649H201.835V22.3948ZM214.049 31.9926V41.2704C219.606 41.5084 224.549 41.798 226.263 38.3911C229.791 32.2904 220.388 31.6515 214.049 31.9926ZM74.1089 38.3911L70.6191 49.2686H78.2966C77.2368 46.3892 76.4771 40.2534 74.1089 38.3911Z" fill="black"/>
<path fill-rule="evenodd" clip-rule="evenodd" d="M264.302 397.668C265.116 397.773 265.93 397.882 266.745 397.988C267.21 398.202 267.675 398.413 268.14 398.628C270.06 405.931 268.838 416.745 268.838 425.181V481.808C268.722 492.577 268.606 503.348 268.489 514.121C267.846 515.551 267.089 516.251 265.698 517C263.966 516.309 262.984 515.688 262.208 514.121V426.781C262.208 418.872 259.715 402.006 264.302 397.668Z" fill="black"/>
<path fill-rule="evenodd" clip-rule="evenodd" d="M223.471 385.83C225.668 386.269 226.59 387.293 227.659 388.71V450.455C227.659 455.078 228.95 470.579 226.961 473.17C226.333 474.437 225.777 474.754 224.518 475.41C224.053 475.195 223.588 474.984 223.122 474.77C222.308 474.024 221.494 473.278 220.679 472.53V389.03C221.61 387.964 222.541 386.898 223.471 385.83Z" fill="black"/>
<path fill-rule="evenodd" clip-rule="evenodd" d="M306.179 393.829C312.904 395.022 310.018 414.979 310.018 422.302C309.901 453.226 309.785 484.152 309.669 515.08L307.226 517C305.169 516.562 304.748 515.727 303.387 514.761V427.421C303.387 417.938 300.755 400.122 305.481 394.149C305.714 394.043 305.946 393.934 306.179 393.829Z" fill="black"/>
<path fill-rule="evenodd" clip-rule="evenodd" d="M347.009 373.673C347.822 373.779 348.639 373.888 349.452 373.993C349.916 374.313 350.384 374.633 350.848 374.953C350.964 398.839 351.081 422.726 351.197 446.616C351.197 454.535 353.591 469.187 350.15 475.09C348.241 475.56 347.418 475.71 345.613 475.09C342.83 466.125 344.567 451.844 344.567 441.178V396.388C344.567 389.394 343.712 380.548 345.264 374.633C345.846 374.313 346.428 373.993 347.009 373.673Z" fill="black"/>
</svg>
