<svg width="682" height="455" viewBox="0 0 682 455" fill="none" xmlns="http://www.w3.org/2000/svg">
<path d="M608.878 443H73.1216C32.737 443 0 410.258 0 369.87H682C682 410.258 649.262 443 608.878 443Z" fill="#8A4E98"/>
<path d="M442.508 43.8361H455.371L449.055 22.843H448.777L442.508 43.8361ZM458.994 55.9115H438.885L434.985 69.0552H418.453L440.512 1.43273H448.916V1.47909L448.963 1.43273H457.368L479.473 69.0552H462.94L458.994 55.9115Z" fill="#1D1D1B"/>
<path d="M438.872 122.18H446.813C449.97 122.18 452.385 121.46 454.057 120.021C455.729 118.581 456.565 116.514 456.565 113.82C456.565 111.065 455.706 108.844 453.988 107.155C452.27 105.469 449.847 104.624 446.72 104.624H438.872V122.18ZM438.872 134.256V160.171H423.176V92.5496H446.72C454.552 92.5496 460.76 94.3608 465.342 97.9831C469.924 101.605 472.215 106.56 472.215 112.845C472.215 116.344 471.294 119.347 469.452 121.856C467.609 124.363 464.893 126.406 461.302 127.986C465.45 129.163 468.43 131.121 470.241 133.861C472.052 136.601 472.957 140.015 472.957 144.102V148.375C472.957 150.14 473.22 152.153 473.747 154.412C474.273 156.672 475.187 158.283 476.487 159.243V160.171H460.28C459.042 159.212 458.237 157.523 457.865 155.109C457.493 152.694 457.308 150.418 457.308 148.281V144.194C457.308 140.975 456.456 138.514 454.754 136.81C453.051 135.108 450.559 134.256 447.278 134.256H438.872Z" fill="#1D1D1B"/>
<path d="M523.344 131.237H499.521V148.096H528.08V160.171H483.824V92.5495H528.126V104.625H499.521V119.161H523.344V131.237Z" fill="#1D1D1B"/>
<path d="M475.094 228.483L475.187 228.763C475.31 236.472 473.135 242.316 468.663 246.295C464.188 250.274 457.85 252.262 449.646 252.262C441.286 252.262 434.576 249.708 429.514 244.599C424.452 239.49 421.922 232.803 421.922 224.536V210.417C421.922 202.181 424.361 195.501 429.236 190.376C434.113 185.253 440.559 182.69 448.578 182.69C457.152 182.69 463.786 184.687 468.476 188.681C473.166 192.676 475.449 198.481 475.327 206.098L475.187 206.377H459.909C459.909 202.228 459.026 199.255 457.261 197.459C455.497 195.663 452.602 194.765 448.578 194.765C445.048 194.765 442.339 196.181 440.451 199.015C438.562 201.848 437.618 205.618 437.618 210.324V224.536C437.618 229.273 438.654 233.066 440.729 235.915C442.804 238.764 445.776 240.188 449.646 240.188C453.237 240.188 455.83 239.29 457.424 237.494C459.019 235.698 459.816 232.694 459.816 228.483H475.094Z" fill="#1D1D1B"/>
<path d="M499.567 213.296H507.507C510.666 213.296 513.08 212.576 514.752 211.137C516.424 209.697 517.26 207.63 517.26 204.936C517.26 202.181 516.401 199.96 514.683 198.272C512.965 196.585 510.542 195.74 507.415 195.74H499.567V213.296ZM499.567 225.372V251.287H483.87V183.666H507.415C515.247 183.666 521.455 185.477 526.037 189.099C530.618 192.721 532.91 197.676 532.91 203.961C532.91 207.461 531.988 210.463 530.147 212.971C528.304 215.479 525.588 217.523 521.997 219.102C526.145 220.279 529.125 222.237 530.936 224.977C532.747 227.717 533.653 231.131 533.653 235.218V239.491C533.653 241.256 533.915 243.269 534.442 245.528C534.968 247.788 535.882 249.399 537.182 250.359V251.287H520.975C519.737 250.328 518.932 248.641 518.56 246.225C518.188 243.81 518.003 241.534 518.003 239.397V235.31C518.003 232.091 517.151 229.63 515.448 227.927C513.746 226.224 511.254 225.372 507.972 225.372H499.567Z" fill="#1D1D1B"/>
<path d="M584.039 222.353H560.216V239.212H588.775V251.287H544.519V183.666H588.822V195.74H560.216V210.278H584.039V222.353Z" fill="#1D1D1B"/>
<path d="M442.508 317.185H455.371L449.055 296.193H448.777L442.508 317.185ZM458.994 329.26H438.885L434.985 342.404H418.453L440.512 274.782H448.916V274.828L448.963 274.782H457.368L479.473 342.404H462.94L458.994 329.26Z" fill="#1D1D1B"/>
<path d="M526.78 286.857H508.901V342.404H493.204V286.857H475.651V274.782H526.78V286.857Z" fill="#1D1D1B"/>
<path d="M549.767 342.404H534.116V274.782H549.767V342.404Z" fill="#1D1D1B"/>
<path d="M585.757 324.058L586.221 326.52H586.499L586.964 324.244L600.384 274.781H616.824L594.905 342.404H577.954L556.128 274.781H572.522L585.757 324.058Z" fill="#1D1D1B"/>
<path d="M633.311 317.185H646.174L639.859 296.193H639.58L633.311 317.185ZM649.797 329.26H629.688L625.788 342.404H609.256L631.315 274.782H639.719V274.828L639.766 274.782H648.172L670.276 342.404H653.743L649.797 329.26Z" fill="#1D1D1B"/>
<path d="M254.872 78.6073L256.553 76.2594L258.32 75.123C257.128 76.2429 255.979 77.405 254.872 78.6073ZM369.599 106.9L369.864 107.095L364.348 64.3231L331.129 62.2997C322.969 58.8042 313.973 56.8632 304.518 56.8632C293.969 56.8632 283.988 59.278 275.105 63.5762V60.3443L251.039 65.3183L245.524 67.3067L243.017 95.159L245.381 91.8582C240.249 101.273 237.334 112.053 237.334 123.508C237.334 131.952 238.94 140.016 241.829 147.451L240.073 147.102C239.242 145.885 238.385 144.675 237.484 143.479L235.343 145.396L235.329 145.391L235.216 145.51L224.568 155.043L235.329 145.391L236.043 144.73L189.169 102.391L189.871 102.287L175.191 89.7658C173.323 92.262 171.632 94.8119 170.071 97.405C173.664 89.4876 175.746 80.745 175.961 71.5347L176.166 71.5368C176.166 70.2686 176.087 69.0179 175.946 67.7868C175.797 63.128 175.173 58.5899 174.116 54.2196L174.329 54.3762L168.813 11.604L137.665 9.70733C129.132 5.71312 119.611 3.4806 109.567 3.4806C98.7719 3.4806 88.5799 6.05928 79.5685 10.6315V7.62524L55.503 12.5992L49.9878 14.5886L47.4815 42.4399L61.0182 23.5403L63.8809 21.6982C51.1034 33.8148 43.1324 50.9548 43.1324 69.9595C43.1324 70.5632 43.1622 71.1587 43.1777 71.7573L42.8017 71.1206C42.8017 114.401 56.6227 153.363 80.7459 184.266L77.3352 184.971L72.4679 186.726L70.2563 211.303L82.2015 194.626L86.8349 191.645C86.8607 191.674 86.8864 191.705 86.9122 191.734C74.9165 202.259 67.3194 217.599 67.2113 234.709C67.0361 235.811 66.9146 236.928 66.8672 238.066L67.2782 238.07C68.2187 256.378 77.7473 272.427 91.9371 282.365C98.9872 288.001 106.61 292.463 114.822 295.765C136.233 305.646 161.378 310.839 184.524 309.847C191.817 309.535 198.966 308.882 205.964 307.924C205.961 307.924 205.959 307.925 205.955 307.925C204.968 310.367 204.411 313.025 204.411 315.815C204.411 323.429 208.466 330.086 214.538 333.831L228.566 303.631C236.369 301.71 243.939 299.376 251.251 296.654C244.019 300.058 239.005 307.347 239.005 315.815C239.005 323.429 243.061 330.086 249.132 333.831L266.892 295.598C264.843 294.95 262.663 294.596 260.398 294.596C258.285 294.596 256.247 294.911 254.32 295.477C322.212 268.943 367.267 208.597 370.808 134.322C371.388 130.801 371.702 127.191 371.702 123.508C371.702 117.774 370.972 112.208 369.599 106.9Z" fill="white"/>
<path d="M313.154 117.737C314.083 96.8678 331.678 80.483 352.825 80.995C357.135 81.1001 361.257 81.9088 365.099 83.2904C374.596 86.3914 389.715 94.5972 395.638 116.009C404.557 148.257 388.204 168.915 388.204 168.915L388.178 168.897C385.362 173.165 380.466 175.943 374.948 175.809C374.948 175.809 348.759 178.641 326.045 153.914C314.163 140.978 312.266 127.58 313.154 117.737Z" fill="#8A4E98"/>
<path d="M46.3524 33.1617C64.982 24.415 87.3241 32.0233 96.5488 50.4109C98.4287 54.1578 99.6093 58.0676 100.16 61.9958C101.799 71.5667 101.556 88.2998 85.5863 103.176C61.5342 125.582 36.0327 120.992 36.0327 120.992L36.0368 120.962C31.0253 120.497 26.362 117.565 23.9546 112.767C23.9546 112.767 9.5073 91.5811 20.6892 60.774C26.5392 44.657 37.3595 36.9014 46.3524 33.1617Z" fill="#509D61"/>
<path d="M66.4709 203.488C83.7686 195.367 104.511 202.431 113.076 219.503C114.821 222.982 115.917 226.612 116.429 230.26C117.951 239.146 117.725 254.68 102.898 268.493C80.566 289.296 56.8899 285.035 56.8899 285.035L56.8929 285.006C52.241 284.575 47.9114 281.853 45.676 277.397C45.676 277.397 32.2619 257.728 42.6444 229.124C48.0752 214.161 58.1219 206.96 66.4709 203.488Z" fill="#CEA24A"/>
<path d="M230.44 306.728C233.284 306.011 236.098 305.241 238.88 304.415C237.043 307.815 235.998 311.696 235.998 315.815C235.998 322.828 239.001 329.333 244.192 333.886H217.825L230.44 306.728ZM207.42 315.815C207.42 314.236 207.628 312.674 208.04 311.15C213.109 310.418 218.101 309.519 223.008 308.464L213.366 329.223C209.594 325.803 207.42 320.991 207.42 315.815ZM184.372 306.369C178.052 306.64 171.562 306.434 165.03 305.787C197.038 302.448 224.815 284.822 241.753 259.477C262.372 258.243 283.753 252.59 302.172 243.324C303.901 242.453 304.592 240.359 303.716 238.643C302.841 236.929 300.73 236.243 298.998 237.113C282.863 245.23 264.358 250.442 246.227 252.152C254.508 237.239 259.228 220.118 259.228 201.923C259.228 192.061 258.226 183.022 256.162 174.612C268.816 186.4 285.831 193.633 304.518 193.633C329.454 193.633 351.415 180.76 364.004 161.36C347.803 243.447 277.225 302.389 184.372 306.369ZM70.7112 235.08C70.7112 234.569 70.7204 234.061 70.7349 233.555L70.8636 233.566L71.0614 231.422C74.4175 220.788 84.3869 213.179 96.1714 213.179C100.334 213.179 104.278 214.132 107.788 215.835C110.872 217.528 113.667 219.764 116.013 222.491C116.283 222.806 116.607 223.046 116.956 223.219C119.899 226.967 121.838 231.553 122.356 236.612C122.511 238.134 123.805 239.293 125.348 239.293C126.891 239.293 128.185 238.134 128.341 236.611C129.008 230.101 132.029 224.375 136.515 220.21C136.757 220.091 136.987 219.938 137.197 219.749C137.2 219.746 137.203 219.743 137.206 219.74C137.306 219.669 137.404 219.594 137.498 219.511C137.82 219.217 138.15 218.933 138.483 218.657C139.231 218.055 140.005 217.497 140.803 216.977C144.806 214.562 149.508 213.179 154.525 213.179C166.577 213.179 176.755 221.258 179.864 232.241L180.298 233.978C180.31 234.037 180.321 234.098 180.333 234.158C180.339 234.465 180.345 234.772 180.345 235.08C180.345 239.375 179.838 243.554 178.884 247.565C178.712 247.847 178.576 248.156 178.489 248.491C178.397 248.838 178.362 249.188 178.377 249.529C171.981 272.52 150.713 289.456 125.528 289.456C95.302 289.456 70.7112 265.063 70.7112 235.08ZM75.0819 187.981L88.7309 185.814C82.8912 190.117 77.8406 195.418 73.8345 201.459L75.0819 187.981ZM49.4465 105.672C61.6585 126.162 84.0347 139.92 109.567 139.92C127.573 139.92 144.01 133.077 156.421 121.858C154.528 129.996 153.604 138.72 153.604 148.209C153.604 158.55 155.128 168.751 158.084 178.515L141.839 175.91C136.64 174.498 131.173 173.74 125.528 173.74C122.118 173.74 118.773 174.02 115.512 174.548L115.506 174.51L81.8364 179.857C65.61 158.305 54.5137 133.079 49.4465 105.672ZM52.5183 15.6091L69.0146 12.9902C61.9212 18.0569 55.8116 24.4155 51.0278 31.7188L52.5183 15.6091ZM120.724 7.95441L128.259 9.79958C143.548 14.5716 156.352 25.0367 164.186 38.7048C158.672 35.8542 152.49 34.3171 146.115 34.3171C139.179 34.3171 132.457 36.1354 126.559 39.5197C119.259 43.1925 113.377 49.2523 109.985 56.7432C108.709 53.9245 107.078 51.3097 105.154 48.9474C105.038 48.6796 104.88 48.4251 104.68 48.1923C96.9533 39.2127 85.7045 34.0626 73.8139 34.0626C67.1758 34.0626 60.7283 35.6718 54.9638 38.676C63.1625 24.3897 76.794 13.6115 93.0141 9.17939L99.8809 7.70924C103.039 7.21885 106.274 6.96231 109.567 6.96231C113.373 6.96231 117.102 7.3033 120.724 7.95441ZM167.571 16.1026L169.153 33.362C164.346 25.5622 158.053 18.7739 150.672 13.393L167.571 16.1026ZM165.666 116.524C165.705 116.449 165.748 116.378 165.79 116.305C168.026 112.334 171.714 109.274 176.138 107.836C176.271 107.792 176.403 107.749 176.537 107.709C176.722 107.653 176.909 107.601 177.097 107.55C177.306 107.496 177.516 107.445 177.728 107.398C177.863 107.367 177.996 107.333 178.132 107.304C178.479 107.234 178.828 107.174 179.18 107.124C179.295 107.107 179.413 107.095 179.529 107.079C179.804 107.045 180.079 107.017 180.356 106.995C180.471 106.986 180.585 106.975 180.7 106.969C181.082 106.945 181.464 106.929 181.849 106.929C182.163 106.929 182.475 106.937 182.786 106.953C182.829 106.956 182.872 106.96 182.915 106.962C183.186 106.978 183.456 106.997 183.725 107.024C183.73 107.024 183.734 107.025 183.739 107.026C192.991 107.967 200.232 115.743 200.232 125.165C200.232 135.22 191.985 143.401 181.849 143.401C171.713 143.401 163.466 135.22 163.466 125.165C163.466 122.04 164.263 119.097 165.666 116.524ZM46.8383 70.2774C46.8764 69.3625 46.9609 68.46 47.0793 67.5689L47.7046 67.6256L48.1671 62.6289C51.9786 50.3836 63.4344 41.6111 76.9804 41.6111C92.5207 41.6111 105.423 53.158 106.993 68.4693C107.148 69.993 108.442 71.151 109.985 71.151C111.528 71.151 112.822 69.993 112.978 68.4693C113.748 60.9589 117.25 54.3592 122.447 49.5779C122.934 49.4667 123.4 49.2348 123.797 48.8763C125.516 47.3155 127.385 45.9608 129.36 44.809C133.461 42.7588 138.094 41.6111 142.991 41.6111C156.574 41.6111 168.087 50.5649 171.853 62.835L172.338 68.12L172.463 68.1087C172.48 68.7238 172.492 69.3399 172.492 69.9601C172.492 79.09 170.539 87.7707 167.034 95.6108C165.463 98.2142 164.036 100.874 162.749 103.595C151.583 121.228 131.918 132.957 109.567 132.957C75.2787 132.957 47.3111 105.357 46.658 71.1809C46.7621 70.8986 46.8259 70.5957 46.8383 70.2774ZM182.831 187.724L182.344 182.404L165.853 179.76C162.408 169.668 160.624 159.021 160.624 148.209C160.624 144.624 160.767 141.161 161.048 137.801C165.344 144.734 173.06 149.369 181.849 149.369C195.303 149.369 206.249 138.512 206.249 125.165C206.249 124.221 206.189 123.292 206.081 122.376L230.832 144.731L182.831 187.724ZM248.053 68.3281L264.529 65.7124C257.581 70.4577 251.527 76.4 246.674 83.2408L248.053 68.3281ZM364.298 101.746C357.437 96.3392 348.895 93.335 339.981 93.335C331.848 93.335 324.01 95.8313 317.448 100.428C311.684 104.137 307.047 109.439 304.184 115.761C301.631 110.121 297.662 105.294 292.743 101.685C285.654 96.1537 276.858 93.0816 267.679 93.0816C259.768 93.0816 252.129 95.3615 245.596 99.5751C255.122 76.5793 277.943 60.3438 304.518 60.3438C331.922 60.3438 355.339 77.6075 364.298 101.746ZM363.107 68.8206L364.758 86.8476C359.616 78.5635 352.786 71.4168 344.748 65.8783L363.107 68.8206ZM242.818 120.306L243.24 120.345L243.374 118.897C247.946 108.111 258.672 100.629 271.179 100.629C277.928 100.629 284.177 102.809 289.219 106.527C290.929 107.881 292.52 109.404 293.967 111.085C294.152 111.299 294.362 111.477 294.588 111.628C298.191 116.015 300.573 121.456 301.192 127.488C301.347 129.011 302.641 130.17 304.184 130.17C305.727 130.17 307.021 129.011 307.177 127.488C307.956 119.889 311.528 113.221 316.825 108.428C317.124 108.3 317.407 108.124 317.66 107.894C318.61 107.034 319.608 106.24 320.64 105.501C325.402 102.414 331.09 100.629 337.189 100.629C353.824 100.629 367.357 114.054 367.357 130.555C367.357 130.763 367.379 130.966 367.42 131.162C367.389 132.111 367.353 133.059 367.309 134.002C362.255 163.853 336.024 186.671 304.518 186.671C271.206 186.671 243.79 161.163 241.069 128.802C241.242 125.827 241.845 122.976 242.818 120.306ZM230.65 162.963C240.786 162.963 249.033 171.144 249.033 181.201C249.033 191.256 240.786 199.436 230.65 199.436C220.512 199.436 212.265 191.256 212.265 181.201C212.265 171.144 220.512 162.963 230.65 162.963ZM175.848 188.415L177.014 201.147C173.213 195.489 168.488 190.492 163.059 186.365L175.848 188.415ZM115.358 213.423C109.046 208.531 101.231 205.814 93.077 205.814C87.5103 205.814 82.0939 207.078 77.1926 209.454C86.441 192.357 104.637 180.703 125.528 180.703C128.684 180.703 131.778 180.972 134.79 181.483L140.354 182.725C155.297 186.895 167.671 197.203 174.528 210.722C169.262 207.687 163.231 206.038 156.992 206.038C149.72 206.038 142.712 208.274 136.848 212.389C131.922 215.568 127.919 220.049 125.348 225.386C123.046 220.605 119.594 216.51 115.358 213.423ZM127.862 296.371C154.43 295.388 176.764 277.7 184.478 253.609C198.326 256.955 212.792 258.974 227.538 259.612C229.349 259.69 231.177 259.728 233.012 259.732C215.099 283.778 186.326 299.402 153.94 299.402C144.645 299.402 135.974 298.393 127.862 296.371ZM252.209 201.923C252.209 220.509 246.935 237.895 237.798 252.692C234.446 252.805 231.121 252.798 227.844 252.656C213.581 252.038 199.597 250.089 186.215 246.864C186.966 243.049 187.364 239.109 187.364 235.08C187.364 230.671 186.888 226.371 185.994 222.224L183.632 196.455L206.924 175.562C206.487 177.372 206.249 179.259 206.249 181.201C206.249 194.546 217.195 205.405 230.65 205.405C239.757 205.405 247.71 200.425 251.902 193.07C252.105 195.941 252.209 198.889 252.209 201.923ZM250.02 300.774C252.691 299.815 255.328 298.806 257.933 297.748C258.74 297.641 259.562 297.58 260.397 297.58C261.135 297.58 261.869 297.623 262.599 297.711L247.961 329.223C244.188 325.803 242.014 320.991 242.014 315.815C242.014 309.577 245.19 304.063 250.02 300.774ZM374.302 134.733C374.897 131.077 375.212 127.329 375.212 123.507C375.212 119.016 374.779 114.622 373.961 110.363L369.603 62.8092L317.279 54.421L317.262 54.5251C313.127 53.7761 308.868 53.3815 304.518 53.3815C301.082 53.3815 297.703 53.6309 294.396 54.1037L294.367 53.9224L241.562 62.3075L238.129 99.399C235.345 106.92 233.824 115.041 233.824 123.507C233.824 129.098 234.491 134.534 235.743 139.749L177.396 87.0496C178.774 81.578 179.511 75.853 179.511 69.9601C179.511 65.7598 179.138 61.6461 178.426 57.6477L174.067 10.0901L129.84 3.00003C123.42 1.05186 116.614 0 109.567 0C103.331 0 97.285 0.824162 91.5267 2.36333L46.0255 9.58836L42.1729 51.2304C40.5144 57.1944 39.6234 63.4747 39.6234 69.9601C39.6234 70.3474 39.6326 70.7338 39.6388 71.1201H39.2917C39.2917 112.12 51.6592 150.095 74.0333 181.095L68.5902 181.96L64.6943 224.056C64.0381 227.633 63.692 231.317 63.692 235.08C63.692 259.482 78.1331 280.601 98.9816 290.471C103.884 293.643 107.499 296.507 112.908 298.723C133.271 308.202 156.817 313.449 178.877 313.449C180.822 313.449 182.756 313.407 184.675 313.325C190.442 313.078 196.125 312.623 201.72 311.973C201.513 313.24 201.403 314.522 201.403 315.815C201.403 322.828 204.406 329.333 209.596 333.886H179.55V340.849H292.566V333.886H252.431L272.791 291.001C332.014 261.118 370.912 204.006 374.302 134.733Z" fill="#1D1D1B"/>
<path d="M331.592 135.444C335.284 135.444 338.278 132.475 338.278 128.812C338.278 125.15 335.284 122.182 331.592 122.182C327.901 122.182 324.907 125.15 324.907 128.812C324.907 132.475 327.901 135.444 331.592 135.444Z" fill="#1D1D1B"/>
<path d="M274.77 135.444C278.462 135.444 281.456 132.475 281.456 128.812C281.456 125.15 278.462 122.182 274.77 122.182C271.078 122.182 268.085 125.15 268.085 128.812C268.085 132.475 271.078 135.444 274.77 135.444Z" fill="#1D1D1B"/>
<path d="M139.065 79.0779C142.757 79.0779 145.751 76.1088 145.751 72.4463C145.751 68.7838 142.757 65.8147 139.065 65.8147C135.373 65.8147 132.38 68.7838 132.38 72.4463C132.38 76.1088 135.373 79.0779 139.065 79.0779Z" fill="#1D1D1B"/>
<path d="M82.243 79.0779C85.9349 79.0779 88.9284 76.1088 88.9284 72.4463C88.9284 68.7838 85.9349 65.8147 82.243 65.8147C78.551 65.8147 75.5575 68.7838 75.5575 72.4463C75.5575 76.1088 78.551 79.0779 82.243 79.0779Z" fill="#1D1D1B"/>
<path d="M151.576 243.629C155.004 243.629 157.783 240.872 157.783 237.471C157.783 234.071 155.004 231.314 151.576 231.314C148.148 231.314 145.368 234.071 145.368 237.471C145.368 240.872 148.148 243.629 151.576 243.629Z" fill="#1D1D1B"/>
<path d="M98.8122 231.314C95.384 231.314 92.6048 234.071 92.6048 237.472C92.6048 240.872 95.384 243.629 98.8122 243.629C102.24 243.629 105.02 240.872 105.02 237.472C105.02 234.071 102.24 231.314 98.8122 231.314Z" fill="#1D1D1B"/>
<path d="M184.482 429.654V438H156.842V429.654H184.482ZM160.337 386.071V438H149.637V386.071H160.337ZM180.88 407.221V415.352H156.842V407.221H180.88ZM184.447 386.071V394.452H156.842V386.071H184.447Z" fill="white"/>
<path d="M206.666 438H195.36L195.432 429.654H206.666C209.472 429.654 211.838 429.024 213.764 427.764C215.689 426.48 217.14 424.613 218.115 422.164C219.113 419.715 219.613 416.755 219.613 413.284V410.751C219.613 408.088 219.327 405.746 218.757 403.725C218.21 401.704 217.39 400.004 216.296 398.625C215.202 397.246 213.859 396.212 212.266 395.522C210.673 394.809 208.842 394.452 206.773 394.452H195.146V386.071H206.773C210.245 386.071 213.419 386.665 216.296 387.854C219.197 389.019 221.705 390.696 223.821 392.883C225.937 395.071 227.566 397.686 228.707 400.729C229.872 403.749 230.455 407.114 230.455 410.823V413.284C230.455 416.969 229.872 420.333 228.707 423.377C227.566 426.42 225.937 429.036 223.821 431.223C221.729 433.387 219.22 435.063 216.296 436.252C213.395 437.417 210.185 438 206.666 438ZM201.423 386.071V438H190.724V386.071H201.423Z" fill="white"/>
<path d="M266.905 386.071H277.569V420.381C277.569 424.376 276.713 427.74 275.001 430.474C273.313 433.209 270.971 435.265 267.975 436.644C265.003 438.024 261.579 438.713 257.703 438.713C253.828 438.713 250.38 438.024 247.36 436.644C244.364 435.265 242.011 433.209 240.299 430.474C238.61 427.74 237.766 424.376 237.766 420.381V386.071H248.466V420.381C248.466 422.711 248.834 424.613 249.572 426.088C250.309 427.562 251.367 428.644 252.746 429.333C254.149 430.023 255.801 430.367 257.703 430.367C259.653 430.367 261.305 430.023 262.661 429.333C264.04 428.644 265.086 427.562 265.799 426.088C266.536 424.613 266.905 422.711 266.905 420.381V386.071Z" fill="white"/>
<path d="M316.48 420.773H327.144C326.93 424.269 325.967 427.371 324.255 430.082C322.567 432.793 320.201 434.909 317.157 436.43C314.138 437.952 310.5 438.713 306.244 438.713C302.915 438.713 299.931 438.142 297.292 437.001C294.653 435.836 292.394 434.172 290.515 432.008C288.661 429.844 287.246 427.229 286.271 424.162C285.296 421.094 284.809 417.659 284.809 413.854V410.252C284.809 406.448 285.308 403.012 286.307 399.945C287.329 396.854 288.78 394.226 290.658 392.063C292.56 389.899 294.831 388.235 297.47 387.07C300.109 385.905 303.058 385.322 306.315 385.322C310.643 385.322 314.292 386.107 317.264 387.676C320.26 389.245 322.579 391.409 324.219 394.167C325.884 396.925 326.882 400.064 327.215 403.583H316.515C316.397 401.49 315.98 399.719 315.267 398.269C314.554 396.794 313.472 395.689 312.022 394.952C310.595 394.191 308.693 393.81 306.315 393.81C304.532 393.81 302.975 394.143 301.643 394.809C300.311 395.475 299.194 396.485 298.29 397.841C297.387 399.196 296.709 400.908 296.258 402.976C295.83 405.021 295.616 407.423 295.616 410.181V413.854C295.616 416.541 295.818 418.907 296.222 420.952C296.626 422.973 297.244 424.685 298.076 426.088C298.932 427.467 300.026 428.513 301.358 429.226C302.713 429.916 304.342 430.26 306.244 430.26C308.479 430.26 310.322 429.904 311.772 429.19C313.222 428.477 314.328 427.419 315.089 426.016C315.873 424.613 316.337 422.866 316.48 420.773Z" fill="white"/>
<path d="M355.284 394.952L341.16 438H329.783L349.078 386.071H356.318L355.284 394.952ZM367.018 438L352.858 394.952L351.717 386.071H359.029L378.431 438H367.018ZM366.376 418.669V427.051H338.949V418.669H366.376Z" fill="white"/>
<path d="M412.705 420.773H423.369C423.155 424.269 422.192 427.371 420.48 430.082C418.792 432.793 416.426 434.909 413.383 436.43C410.363 437.952 406.725 438.713 402.469 438.713C399.14 438.713 396.156 438.142 393.517 437.001C390.878 435.836 388.619 434.172 386.741 432.008C384.886 429.844 383.471 427.229 382.496 424.162C381.522 421.094 381.034 417.659 381.034 413.854V410.252C381.034 406.448 381.533 403.012 382.532 399.945C383.554 396.854 385.005 394.226 386.883 392.063C388.785 389.899 391.056 388.235 393.695 387.07C396.335 385.905 399.283 385.322 402.54 385.322C406.868 385.322 410.517 386.107 413.49 387.676C416.485 389.245 418.804 391.409 420.444 394.167C422.109 396.925 423.107 400.064 423.44 403.583H412.741C412.622 401.49 412.206 399.719 411.492 398.269C410.779 396.794 409.697 395.689 408.247 394.952C406.82 394.191 404.918 393.81 402.54 393.81C400.757 393.81 399.2 394.143 397.868 394.809C396.537 395.475 395.419 396.485 394.516 397.841C393.612 399.196 392.934 400.908 392.483 402.976C392.055 405.021 391.841 407.423 391.841 410.181V413.854C391.841 416.541 392.043 418.907 392.447 420.952C392.851 422.973 393.469 424.685 394.302 426.088C395.158 427.467 396.251 428.513 397.583 429.226C398.938 429.916 400.567 430.26 402.469 430.26C404.704 430.26 406.547 429.904 407.997 429.19C409.448 428.477 410.553 427.419 411.314 426.016C412.099 424.613 412.562 422.866 412.705 420.773ZM398.653 437.857H406.392L406 439.961C407.355 440.199 408.592 440.77 409.709 441.673C410.827 442.577 411.385 444.063 411.385 446.131C411.385 447.392 411.112 448.533 410.565 449.555C410.042 450.578 409.257 451.457 408.211 452.195C407.165 452.955 405.857 453.526 404.288 453.907C402.719 454.311 400.912 454.513 398.867 454.513L398.617 448.806C399.378 448.806 400.068 448.699 400.686 448.485C401.304 448.271 401.791 447.939 402.148 447.487C402.505 447.059 402.683 446.488 402.683 445.775C402.683 445.109 402.505 444.586 402.148 444.206C401.791 443.825 401.233 443.54 400.472 443.35C399.735 443.159 398.76 443.029 397.547 442.957L398.653 437.857Z" fill="white"/>
<path d="M451.509 394.952L437.385 438H426.008L445.303 386.071H452.543L451.509 394.952ZM463.243 438L449.084 394.952L447.942 386.071H455.254L474.656 438H463.243ZM462.601 418.669V427.051H435.174V418.669H462.601ZM457.857 372.34L463.778 372.732C463.778 374.468 463.433 376.049 462.743 377.476C462.054 378.878 461.103 380.008 459.89 380.864C458.678 381.696 457.287 382.112 455.717 382.112C454.576 382.112 453.589 381.958 452.757 381.648C451.949 381.339 451.2 380.983 450.51 380.579C449.821 380.151 449.107 379.782 448.37 379.473C447.657 379.164 446.837 379.009 445.909 379.009C445.077 379.009 444.364 379.306 443.77 379.901C443.199 380.495 442.914 381.351 442.914 382.469L436.957 382.148C436.957 380.436 437.302 378.867 437.992 377.44C438.681 376.013 439.632 374.872 440.845 374.016C442.058 373.136 443.437 372.696 444.982 372.696C445.957 372.696 446.849 372.863 447.657 373.196C448.465 373.505 449.238 373.862 449.975 374.266C450.736 374.67 451.509 375.027 452.294 375.336C453.078 375.645 453.91 375.799 454.79 375.799C455.622 375.799 456.336 375.502 456.93 374.908C457.548 374.29 457.857 373.434 457.857 372.34Z" fill="white"/>
<path d="M521.484 410.823V413.284C521.484 417.231 520.949 420.773 519.879 423.912C518.809 427.051 517.3 429.725 515.35 431.937C513.4 434.124 511.07 435.8 508.359 436.965C505.673 438.131 502.689 438.713 499.407 438.713C496.15 438.713 493.166 438.131 490.455 436.965C487.769 435.8 485.439 434.124 483.465 431.937C481.492 429.725 479.958 427.051 478.864 423.912C477.794 420.773 477.259 417.231 477.259 413.284V410.823C477.259 406.852 477.794 403.309 478.864 400.194C479.934 397.056 481.444 394.381 483.394 392.17C485.367 389.959 487.697 388.27 490.384 387.105C493.095 385.94 496.079 385.358 499.336 385.358C502.617 385.358 505.601 385.94 508.288 387.105C510.999 388.27 513.329 389.959 515.279 392.17C517.252 394.381 518.774 397.056 519.844 400.194C520.937 403.309 521.484 406.852 521.484 410.823ZM510.678 413.284V410.751C510.678 407.993 510.428 405.568 509.929 403.476C509.429 401.383 508.692 399.624 507.717 398.197C506.743 396.771 505.554 395.701 504.151 394.987C502.748 394.25 501.143 393.882 499.336 393.882C497.529 393.882 495.924 394.25 494.521 394.987C493.142 395.701 491.965 396.771 490.99 398.197C490.039 399.624 489.314 401.383 488.815 403.476C488.316 405.568 488.066 407.993 488.066 410.751V413.284C488.066 416.018 488.316 418.443 488.815 420.559C489.314 422.652 490.051 424.423 491.026 425.874C492.001 427.3 493.19 428.382 494.593 429.119C495.995 429.856 497.6 430.225 499.407 430.225C501.215 430.225 502.819 429.856 504.222 429.119C505.625 428.382 506.802 427.3 507.753 425.874C508.704 424.423 509.429 422.652 509.929 420.559C510.428 418.443 510.678 416.018 510.678 413.284Z" fill="white"/>
</svg>
