<svg width="591" height="327" viewBox="0 0 591 327" fill="none" xmlns="http://www.w3.org/2000/svg">
<path d="M481.56 88.5856C474.797 82.5489 476.352 71.5829 484.519 67.7113C489.009 65.5828 492.014 65.5765 496.099 67.6869C500.604 70.0144 502.804 73.5939 502.804 78.5998C502.804 86.9779 498.37 91.587 490.273 91.625C486.067 91.6447 484.294 91.0261 481.56 88.5856ZM510.912 68.8269C496.377 62.5145 504.364 40.1786 519.532 44.7187C525.555 46.5213 528.457 50.5501 528.457 57.1078C528.457 63.6259 525.546 67.7155 519.762 69.3201C514.759 70.7083 515.315 70.7393 510.912 68.8269ZM474.958 58.968C470.52 57.4719 465.994 51.5224 466 47.1932C466.006 43.0916 469.74 37.4787 473.89 35.3352C484.003 30.1106 495.725 41.1877 491.294 51.782C488.539 58.3696 481.876 61.3005 474.958 58.968Z" fill="black"/>
<path d="M481.56 88.5856C474.797 82.5489 476.352 71.5829 484.519 67.7113C489.009 65.5828 492.014 65.5765 496.099 67.6869C500.604 70.0144 502.804 73.5939 502.804 78.5998C502.804 86.9779 498.37 91.587 490.273 91.625C486.067 91.6447 484.294 91.0261 481.56 88.5856ZM510.912 68.8269C496.377 62.5145 504.364 40.1786 519.532 44.7187C525.555 46.5213 528.457 50.5501 528.457 57.1078C528.457 63.6259 525.546 67.7155 519.762 69.3201C514.759 70.7083 515.315 70.7393 510.912 68.8269ZM474.958 58.968C470.52 57.4719 465.994 51.5224 466 47.1932C466.006 43.0916 469.74 37.4787 473.89 35.3352C484.003 30.1106 495.725 41.1877 491.294 51.782C488.539 58.3696 481.876 61.3005 474.958 58.968Z" fill="#D54125"/>
<path d="M150.767 324C148.216 322.325 144.954 318.906 143.517 316.402C141.022 312.054 140.904 310.868 140.904 290.121V268.393H155.404L156.52 307.033L159.649 309.719C163.027 312.619 169.921 313.37 173.856 311.266C178.057 309.02 178.812 305.676 179.385 286.778L179.943 268.393L195.038 267.733L194.443 325.22L187.382 325.554C181.068 325.853 180.258 325.648 179.727 323.618C179.136 321.364 179.108 321.365 175.634 323.841C172.919 325.776 170.261 326.414 163.77 326.689C156.213 327.01 154.956 326.75 150.767 324ZM248.784 324.019C242.497 320.889 238.574 316.852 234.917 309.75C231.94 303.968 231.603 290.53 234.282 284.394C236.722 278.806 243.594 271.47 248.94 268.746C259.77 263.226 274.544 265.399 283.844 273.878C290.175 279.651 289.929 281.012 281.73 285.579L276.577 288.449L273.081 285.107C269.989 282.15 268.809 281.764 262.88 281.764C256.614 281.764 255.936 282.025 252.517 285.752C247.625 291.085 246.677 296.47 249.506 302.858C253.968 312.936 264.39 314.407 275.6 306.542C277.23 305.399 278.467 305.639 282.846 307.949C285.75 309.481 288.282 311.567 288.472 312.585C288.938 315.078 281.631 322.203 275.979 324.767C268.805 328.022 256.124 327.673 248.784 324.019ZM311.342 323.551C305.128 319.991 299.967 313.532 297.64 306.404C295.655 300.32 296.671 287.364 299.573 281.764C307.007 267.417 323.472 261.729 336.998 268.837C342.856 271.916 343.172 271.966 343.714 269.896C344.214 267.985 345.128 267.765 351.343 268.059L358.405 268.393V325.22H351.205C344.452 325.22 343.964 325.048 343.349 322.445C342.901 320.548 342.42 320.113 341.829 321.068C339.804 324.342 332.296 326.891 324.709 326.881C318.357 326.872 316.2 326.335 311.342 323.551ZM338.713 307.526C342.485 303.759 342.789 302.963 342.789 296.869C342.789 286.55 336.972 280.639 326.964 280.79C311.548 281.022 306.407 302.939 320.01 310.438C326.117 313.805 333.593 312.641 338.713 307.526ZM484.078 325.477C478.31 323.634 470.032 315.497 467.176 308.866C463.663 300.707 464.312 288.247 468.634 280.88C477.099 266.449 495.675 261.47 510.657 269.616C516.322 272.696 520.693 277.337 520.693 280.272C520.693 281.102 518.325 283.209 515.43 284.956C511.312 287.441 509.796 287.859 508.459 286.881C499.764 280.521 493.887 279.539 487.565 283.39C476.512 290.122 479.134 307.913 491.675 311.287C496.543 312.596 502.778 311.103 505.641 307.943C508.226 305.089 510.128 305.14 515.953 308.222C521.972 311.408 522.137 314.251 516.583 319.123C510.086 324.821 504.494 326.855 495.597 326.753C491.303 326.704 486.119 326.13 484.078 325.477ZM545.789 324.812C540.705 322.499 533.437 314.953 531.306 309.776C525.398 295.424 530.08 278.51 542.202 270.406C550.969 264.545 563.421 264.14 571.27 269.461C574.969 271.969 575.166 271.991 575.697 269.961C576.174 268.14 577.311 267.835 583.627 267.835H591L590.405 325.22H583.745C577.931 325.22 576.925 324.898 575.82 322.683C574.651 320.34 574.435 320.29 572.999 322.02C568.808 327.068 554.07 328.58 545.789 324.812ZM566.993 310.802C572.311 308.582 575.338 303.221 575.343 296.009C575.346 291.1 574.812 289.589 571.899 286.275C562.593 275.687 546.377 280.729 544.605 294.761C543.054 307.045 555.18 315.732 566.993 310.802ZM89.3211 324.384C87.5587 322.165 62.2697 252.762 62.2697 250.144C62.2697 247.962 62.8652 247.779 69.9409 247.779C74.7331 247.779 78.0349 248.302 78.7389 249.172C79.3588 249.938 84.2559 262.74 89.6213 277.621C94.9867 292.503 99.559 304.496 99.7819 304.274C100.005 304.051 104.478 291.899 109.722 277.269C114.966 262.639 119.797 250.019 120.458 249.224C121.228 248.296 124.405 247.779 129.329 247.779C136.269 247.779 137.001 247.992 137.001 250.018C137.001 252.492 111.625 322.159 109.914 324.384C109.21 325.299 105.686 325.777 99.6351 325.777C93.6027 325.777 90.046 325.297 89.3211 324.384ZM207.434 324.303C206.475 323.148 206.204 311.932 206.419 282.19L206.712 241.65H221.212V325.22L214.977 325.549C210.637 325.778 208.344 325.399 207.434 324.303ZM374.254 325.083C373.819 324.647 373.462 311.589 373.462 296.063V267.835H380.712C387.236 267.835 387.962 268.06 387.962 270.08C387.962 272.201 388.214 272.158 392.554 269.289C395.988 267.018 398.87 266.15 403.987 265.843C413.089 265.298 419.487 268.57 424.212 276.189L427.558 281.584L427.938 302.346C428.377 326.352 428.474 326.101 419.005 325.56L413.058 325.22L412.459 306.277C412.129 295.859 411.44 286.439 410.929 285.344C408.756 280.689 400.409 278.791 394.816 281.68C389.715 284.316 388.743 288.006 388.046 307.392L387.405 325.22L381.226 325.547C377.827 325.727 374.69 325.518 374.254 325.083ZM439.772 324.363C439.474 323.585 439.364 310.674 439.528 295.671L439.828 268.393H454.328L454.627 295.554C454.837 314.655 454.548 323.169 453.654 324.246C451.988 326.251 440.534 326.347 439.772 324.363ZM440.3 254.55C436.256 250.511 436.143 246.786 439.927 242.293C445.649 235.5 456.001 239.391 456.001 248.336C456.001 257.109 446.589 260.833 440.3 254.55ZM311.786 255.992C311.4 255.606 314.145 251.595 317.885 247.078L324.685 238.865H337.638L344.117 246.719C347.681 251.04 350.764 255.051 350.969 255.633C351.18 256.237 348.015 256.693 343.613 256.693C337.282 256.693 335.517 256.287 333.85 254.447L331.816 252.201L329.423 254.447C327.529 256.225 325.514 256.693 319.759 256.693C315.76 256.693 312.172 256.377 311.786 255.992ZM151.237 230.018C144.716 227.923 135.885 220.756 135.885 217.558C135.885 216.656 143.409 211.475 146.36 210.343C147.12 210.052 149.096 211.067 150.75 212.599C157.308 218.67 167.689 219.023 174.001 213.389C176.817 210.876 177.546 209.227 178.02 204.298L178.599 198.276L175.054 201.257C166.36 208.565 151.012 207.937 141.254 199.875C128.631 189.444 127.586 167.101 139.18 155.518C149.248 145.46 165.459 143.611 174.791 151.455L178.107 154.242L178.467 151.704C178.8 149.361 179.382 149.167 186.077 149.167H193.327L193.627 177.023C193.803 193.42 193.445 207.199 192.755 210.518C191.342 217.322 186.742 223.244 179.637 227.403C175.209 229.995 173.043 230.465 164.383 230.711C158.831 230.869 152.916 230.557 151.237 230.018ZM168.546 190.538C177.531 186.713 180.998 176.326 175.845 168.666C168.138 157.211 150.805 159.457 147.235 172.373C143.709 185.13 156.213 195.788 168.546 190.538ZM460.385 211.13C407.422 199.605 370.426 148 376.809 94.5528C381.272 57.1873 402.591 27.0222 436.25 10.4475C453.915 1.7487 461.888 0 483.885 0C505.029 0 512.797 1.58891 529.2 9.26789C559.947 23.6619 582.804 52.4147 589.337 84.919C591.889 97.6147 591.13 122.149 587.806 134.435C584.798 145.552 577.445 160.566 570.557 169.657C566.447 175.081 565.503 177.018 566.623 177.727C567.434 178.241 568.348 178.696 568.655 178.739C568.961 178.783 573.981 179.435 579.809 180.19L590.405 181.561V200.423L582.597 200.074C555.637 198.87 531.64 187.431 506.595 163.845L497.516 155.295H469.823L465.979 159.284C463.865 161.478 457.242 167.323 451.26 172.272C445.279 177.222 440.385 181.476 440.385 181.727C440.385 182.739 457.03 189.768 463.808 191.619C473.87 194.367 494.147 194.353 503.962 191.591C507.95 190.469 512.467 189.336 514.001 189.072C517.515 188.469 533.984 197.401 534.04 199.941C534.082 201.871 521.46 207.467 510.097 210.557C499.539 213.429 472.385 213.742 460.385 211.13ZM432.578 162.149C434.725 160.565 442.229 153.988 449.254 147.532L462.027 135.796H506.137L514.252 143.72C523.935 153.176 535.269 162.712 541.08 166.291C546.065 169.362 546.241 169.265 553.788 159.319C567.664 141.033 574.131 116.843 570.952 95.1224C568.18 76.1851 560.986 61.1822 548.129 47.5284C529.729 27.9889 509.636 19.0966 483.885 19.0966C468.556 19.0966 457.779 21.6006 444.197 28.318C426.864 36.8902 414.132 49.7924 405.207 67.8259C398.883 80.6053 396.875 88.3503 396.1 102.942C395.585 112.66 395.885 116.266 397.862 124.074C401.656 139.06 407.872 150.864 418.542 163.338C423.57 169.217 422.921 169.272 432.578 162.149ZM460.362 123.878C441.239 114.352 428.919 90.6432 432.348 69.9677C434.292 58.2504 435.739 57.5383 446.892 62.8095C465.791 71.741 478.619 96.2782 475.192 116.94C473.234 128.74 471.63 129.491 460.362 123.878ZM488.014 125.64C485.07 124.737 482.35 123.184 481.968 122.191C480.882 119.363 486.885 109.125 492.955 103.453C503.331 93.7579 518.664 89.105 532.46 91.4657C540.657 92.8684 543.001 94.2832 543.001 97.8292C543.001 103.712 531.146 117.104 521.641 121.958C510.955 127.415 498.307 128.8 488.014 125.64ZM81.789 205.585C70.0837 200.254 64.1414 190.822 64.1097 177.521C64.0943 171.058 64.668 167.91 66.5813 163.962C77.3217 141.797 109.026 140.517 120.61 161.78C124.17 168.314 125.856 179.898 123.636 182.571C122.469 183.976 118.717 184.266 101.729 184.266C79.6753 184.266 78.471 184.63 83.8411 189.67C89.3369 194.828 97.5281 195.533 105.116 191.503L110.372 188.711L115.321 191.609C118.353 193.384 120.27 195.306 120.27 196.572C120.27 198.956 114.743 203.484 108.813 205.96C102.918 208.42 87.547 208.207 81.789 205.585ZM108.001 169.989C108.001 168.878 106.551 166.582 104.779 164.886C98.5982 158.97 86.4204 160.023 82.2645 166.831C81.0873 168.76 80.1223 170.714 80.12 171.173C80.1178 171.633 86.3899 172.009 94.0582 172.009C106.777 172.009 108.001 171.832 108.001 169.989ZM249.097 205.82C243.784 203.031 238.537 197.537 235.427 191.509C233.093 186.984 232.549 184.356 232.533 177.521C232.508 166.983 235.278 160.737 243.092 153.719C252.152 145.581 265.594 144.145 274.73 150.339C279.581 153.628 279.367 153.61 280.108 150.783C280.643 148.736 281.439 148.533 287.767 148.833L294.828 149.167L295.127 176.328C295.342 195.922 295.06 203.929 294.112 205.07C293.196 206.172 290.922 206.552 286.608 206.323C281.053 206.028 280.352 205.71 279.768 203.22C279.323 201.323 278.843 200.887 278.252 201.843C277.777 202.611 275.434 204.236 273.046 205.453C267.55 208.254 254.126 208.46 249.097 205.82ZM270.084 191.927C280.378 186.63 282.464 173.797 274.301 165.984C262.918 155.09 244.344 166.475 248.478 181.812C249.582 185.907 254.031 191.149 257.462 192.396C260.441 193.479 267.583 193.213 270.084 191.927ZM323.61 206.03C317.811 203.511 310.336 195.817 307.668 189.623C305.683 185.012 305.285 182.342 305.637 175.999C306.136 167.002 308.333 161.691 313.942 155.922C320.455 149.222 325.875 147.043 336.097 147.014C343.892 146.992 345.77 147.4 350.958 150.249C357.315 153.741 362.436 159.347 365.113 165.747C367.225 170.796 367.264 184.27 365.182 189.249C362.919 194.659 354.716 203.192 349.481 205.581C343.99 208.087 328.945 208.348 323.61 206.03ZM343.031 191.319C348.202 188.868 351.149 183.871 351.134 177.58C351.118 171.261 349.349 167.745 344.56 164.521C334.524 157.765 321.055 164.935 321.043 177.041C321.032 189.112 332.28 196.416 343.031 191.319ZM0.335746 205.203C0.0293162 204.406 -0.0892683 186.206 0.0722171 164.76L0.365836 125.767L18.5469 125.461C28.5465 125.292 38.6116 125.661 40.9138 126.281C43.216 126.9 47.2235 129.223 49.8193 131.442C59.1203 139.396 62.2921 151.321 57.8499 161.637C56.5009 164.77 54.1829 168.472 52.6988 169.865C51.2147 171.258 50.0005 172.979 50.0005 173.689C50.0005 174.4 52.5101 181.366 55.5774 189.17C58.6447 196.974 61.1543 204.099 61.1543 205.002C61.1543 206.335 59.539 206.584 52.5808 206.32L44.0073 205.994L34.0125 178.695H16.6076L15.9812 205.994L8.43706 206.324C3.02377 206.561 0.735522 206.244 0.335746 205.203ZM39.2989 160.967C44.9107 155.698 44.0128 145.726 37.6295 142.429C35.6507 141.406 31.1872 140.81 25.5174 140.81H16.5389V164.431L26.489 164.042C35.1696 163.702 36.804 163.31 39.2989 160.967ZM206.677 205.191C206.367 204.384 206.248 191.448 206.413 176.445L206.712 149.167L221.808 148.507L221.212 205.994L214.227 206.326C209.23 206.564 207.08 206.24 206.677 205.191ZM265.27 136.795C258.768 134.291 257.528 134.14 253.247 135.332C250.623 136.063 248.326 136.466 248.143 136.228C247.96 135.99 246.67 133.901 245.276 131.586C243.179 128.103 242.987 127.08 244.165 125.662C248.529 120.409 257.285 119.398 266.615 123.072C272.232 125.284 275.886 125.399 281.643 123.546C283.695 122.885 284.446 123.491 286.46 127.435C288.773 131.963 288.784 132.178 286.818 134.384C284.38 137.119 278.575 139.716 275.065 139.641C273.665 139.611 269.257 138.33 265.27 136.795ZM207.777 135.846C201.99 130.066 205.992 119.639 213.997 119.639C218.124 119.639 224.001 124.868 224.001 128.541C224.001 137.267 213.798 141.861 207.777 135.846ZM75.643 97.0752C68.4559 92.1887 65.5997 85.3436 67.1975 76.8351C69.8045 62.9527 89.185 57.5456 99.4786 67.8287C101.9 70.248 101.786 71.392 98.9722 72.8964C97.0652 73.9159 96.1946 73.7337 94.2318 71.9039C86.6425 64.8291 73.4416 70.5842 73.4277 80.9738C73.421 85.8023 76.5226 90.6788 80.7118 92.4274C86.0035 94.6362 88.116 94.4257 92.8472 91.2183C96.1036 89.0106 97.4215 88.6687 99.1375 89.5861C102.15 91.1969 101.891 92.155 97.3655 96.1241C93.8455 99.2116 92.6676 99.5823 86.3766 99.5823C80.9056 99.5823 78.506 99.0219 75.643 97.0752ZM108.447 95.7938C105.106 92.4568 104.654 91.3149 104.654 86.2112C104.654 81.1074 105.106 79.9656 108.447 76.6286C111.606 73.472 113.048 72.8429 117.091 72.8572C119.759 72.8661 122.651 73.3219 123.516 73.8691C124.474 74.4749 125.834 74.3994 126.993 73.6762C128.041 73.0229 129.717 72.8025 130.718 73.1864C133.435 74.2279 133.435 98.1945 130.718 99.236C129.717 99.6199 128.041 99.3995 126.993 98.7462C125.834 98.023 124.474 97.9475 123.516 98.5533C122.651 99.1005 119.759 99.5559 117.091 99.5652C113.048 99.5795 111.606 98.9504 108.447 95.7938ZM123.368 92.2764C125.113 91.055 125.847 89.4068 125.847 86.7051C125.847 79.6502 118.899 76.0073 113.749 80.3613C105.863 87.0272 114.89 98.2087 123.368 92.2764ZM140.347 89.6839C140.347 80.7227 140.136 79.7304 138.116 79.2028C136.743 78.8441 135.885 77.6829 135.885 76.1829C135.885 74.6828 136.743 73.5216 138.116 73.163C139.343 72.8424 140.347 71.6638 140.347 70.5438C140.347 67.3644 145.006 62.925 148.712 62.5727C151.45 62.3124 152.123 62.71 152.414 64.7599C152.672 66.5687 152.016 67.5517 150.057 68.2959C145.968 69.849 145.381 72.6271 149.052 73.0505C151.423 73.3239 152.058 73.9863 152.058 76.1829C152.058 78.3934 151.425 79.0413 148.991 79.3211L145.924 79.6737V89.628C145.924 99.5031 145.901 99.5823 143.135 99.5823C140.37 99.5823 140.347 99.4994 140.347 89.6839ZM156.408 95.7938C153.314 92.7026 152.616 91.1543 152.616 87.3816C152.616 78.1114 157.598 72.8401 166.36 72.8401C171.06 72.8401 172.317 73.3557 175.593 76.6286C178.501 79.5339 179.385 81.3521 179.385 84.4284V88.4397H169.347C163.826 88.4397 159.308 88.8634 159.308 89.3813C159.308 91.2669 163.461 94.011 166.315 94.011C167.925 94.011 170.539 93.4207 172.124 92.6992C174.479 91.6271 175.321 91.7014 176.726 93.1059C178.277 94.6545 178.147 95.0598 175.419 97.2034C173.167 98.9733 170.832 99.5823 166.296 99.5823C160.851 99.5823 159.796 99.178 156.408 95.7938ZM172.693 82.3505C172.693 78.6024 164.791 77.1431 161.348 80.2555C158.028 83.2569 158.934 83.9827 166.001 83.9827C171.134 83.9827 172.693 83.6026 172.693 82.3505ZM184.095 97.8477C182.731 96.8937 181.616 95.4233 181.616 94.58C181.616 92.4762 185.834 91.3081 187.737 92.8852C189.751 94.5552 195.558 93.8884 195.558 91.9872C195.558 91.1805 192.798 89.4239 189.424 88.0837C183.483 85.7241 183.278 85.5005 182.951 81.0194C182.676 77.2469 183.082 76.0637 185.151 74.616C188.807 72.058 196.252 72.3199 199.252 75.112C202.246 77.8987 202.25 78.035 199.391 79.5638C197.697 80.4696 196.682 80.4574 195.548 79.5174C193.49 77.8109 188.866 78.5538 188.866 80.5909C188.866 81.5588 190.891 82.791 193.885 83.6452C202.503 86.1037 205.156 91.7667 200.07 96.8473C197.921 98.995 196.178 99.5823 191.953 99.5823C188.89 99.5823 185.507 98.8356 184.095 97.8477ZM222.216 95.7938C218.876 92.4568 218.424 91.3149 218.424 86.2112C218.424 81.1074 218.876 79.9656 222.216 76.6286C225.376 73.472 226.818 72.8429 230.86 72.8572C233.529 72.8661 236.465 73.3538 237.385 73.9399C238.775 74.8252 239.153 74.0208 239.616 69.1872C240.125 63.8724 240.415 63.3689 242.962 63.3689H245.751L246.058 80.9425C246.329 96.4563 246.148 98.5993 244.516 99.2251C243.499 99.615 241.81 99.3995 240.763 98.7462C239.603 98.023 238.243 97.9475 237.285 98.5533C236.42 99.1005 233.529 99.5559 230.86 99.5652C226.818 99.5795 225.376 98.9504 222.216 95.7938ZM237.137 92.2764C238.883 91.055 239.616 89.4068 239.616 86.7051C239.616 79.6502 232.669 76.0073 227.518 80.3613C219.632 87.0272 228.659 98.2087 237.137 92.2764ZM255.18 96.5181C249.081 91.0739 249.543 80.1758 256.09 75.0308C259.198 72.589 266.261 72.0989 269.947 74.0694C271.663 74.9869 272.456 74.9591 273.074 73.9597C273.53 73.2233 274.846 72.8015 276 73.0224C277.888 73.3842 278.128 74.7246 278.411 86.5032L278.725 99.5823H275.994C274.492 99.5823 273.033 98.9555 272.752 98.1895C272.343 97.0752 271.945 97.0752 270.763 98.1895C269.95 98.9555 266.884 99.5823 263.949 99.5823C259.703 99.5823 257.911 98.956 255.18 96.5181ZM270.286 91.7859C273.049 88.7356 272.734 82.8446 269.675 80.37C262.17 74.2989 252.631 84.6023 259.122 91.7681C261.791 94.7141 267.625 94.7234 270.286 91.7859ZM162.654 69.9991C162.654 69.6622 163.42 67.9073 164.356 66.0992C165.662 63.5767 166.83 62.8117 169.375 62.8117C173.316 62.8117 173.393 63.1575 170.386 67.3754C168.923 69.4286 167.088 70.6116 165.367 70.6116C163.875 70.6116 162.654 70.336 162.654 69.9991Z" fill="black"/>
<path d="M150.767 324C148.216 322.325 144.954 318.906 143.517 316.402C141.022 312.054 140.904 310.868 140.904 290.121V268.393H155.404L156.52 307.033L159.649 309.719C163.027 312.619 169.921 313.37 173.856 311.266C178.057 309.02 178.812 305.676 179.385 286.778L179.943 268.393L195.038 267.733L194.443 325.22L187.382 325.554C181.068 325.853 180.258 325.648 179.727 323.618C179.136 321.364 179.108 321.365 175.634 323.841C172.919 325.776 170.261 326.414 163.77 326.689C156.213 327.01 154.956 326.75 150.767 324ZM248.784 324.019C242.497 320.889 238.574 316.852 234.917 309.75C231.94 303.968 231.603 290.53 234.282 284.394C236.722 278.806 243.594 271.47 248.94 268.746C259.77 263.226 274.544 265.399 283.844 273.878C290.175 279.651 289.929 281.012 281.73 285.579L276.577 288.449L273.081 285.107C269.989 282.15 268.809 281.764 262.88 281.764C256.614 281.764 255.936 282.025 252.517 285.752C247.625 291.085 246.677 296.47 249.506 302.858C253.968 312.936 264.39 314.407 275.6 306.542C277.23 305.399 278.467 305.639 282.846 307.949C285.75 309.481 288.282 311.567 288.472 312.585C288.938 315.078 281.631 322.203 275.979 324.767C268.805 328.022 256.124 327.673 248.784 324.019ZM311.342 323.551C305.128 319.991 299.967 313.532 297.64 306.404C295.655 300.32 296.671 287.364 299.573 281.764C307.007 267.417 323.472 261.729 336.998 268.837C342.856 271.916 343.172 271.966 343.714 269.896C344.214 267.985 345.128 267.765 351.343 268.059L358.405 268.393V325.22H351.205C344.452 325.22 343.964 325.048 343.349 322.445C342.901 320.548 342.42 320.113 341.829 321.068C339.804 324.342 332.296 326.891 324.709 326.881C318.357 326.872 316.2 326.335 311.342 323.551ZM338.713 307.526C342.485 303.759 342.789 302.963 342.789 296.869C342.789 286.55 336.972 280.639 326.964 280.79C311.548 281.022 306.407 302.939 320.01 310.438C326.117 313.805 333.593 312.641 338.713 307.526ZM484.078 325.477C478.31 323.634 470.032 315.497 467.176 308.866C463.663 300.707 464.312 288.247 468.634 280.88C477.099 266.449 495.675 261.47 510.657 269.616C516.322 272.696 520.693 277.337 520.693 280.272C520.693 281.102 518.325 283.209 515.43 284.956C511.312 287.441 509.796 287.859 508.459 286.881C499.764 280.521 493.887 279.539 487.565 283.39C476.512 290.122 479.134 307.913 491.675 311.287C496.543 312.596 502.778 311.103 505.641 307.943C508.226 305.089 510.128 305.14 515.953 308.222C521.972 311.408 522.137 314.251 516.583 319.123C510.086 324.821 504.494 326.855 495.597 326.753C491.303 326.704 486.119 326.13 484.078 325.477ZM545.789 324.812C540.705 322.499 533.437 314.953 531.306 309.776C525.398 295.424 530.08 278.51 542.202 270.406C550.969 264.545 563.421 264.14 571.27 269.461C574.969 271.969 575.166 271.991 575.697 269.961C576.174 268.14 577.311 267.835 583.627 267.835H591L590.405 325.22H583.745C577.931 325.22 576.925 324.898 575.82 322.683C574.651 320.34 574.435 320.29 572.999 322.02C568.808 327.068 554.07 328.58 545.789 324.812ZM566.993 310.802C572.311 308.582 575.338 303.221 575.343 296.009C575.346 291.1 574.812 289.589 571.899 286.275C562.593 275.687 546.377 280.729 544.605 294.761C543.054 307.045 555.18 315.732 566.993 310.802ZM89.3211 324.384C87.5587 322.165 62.2697 252.762 62.2697 250.144C62.2697 247.962 62.8652 247.779 69.9409 247.779C74.7331 247.779 78.0349 248.302 78.7389 249.172C79.3588 249.938 84.2559 262.74 89.6213 277.621C94.9867 292.503 99.559 304.496 99.7819 304.274C100.005 304.051 104.478 291.899 109.722 277.269C114.966 262.639 119.797 250.019 120.458 249.224C121.228 248.296 124.405 247.779 129.329 247.779C136.269 247.779 137.001 247.992 137.001 250.018C137.001 252.492 111.625 322.159 109.914 324.384C109.21 325.299 105.686 325.777 99.6351 325.777C93.6027 325.777 90.046 325.297 89.3211 324.384ZM207.434 324.303C206.475 323.148 206.204 311.932 206.419 282.19L206.712 241.65H221.212V325.22L214.977 325.549C210.637 325.778 208.344 325.399 207.434 324.303ZM374.254 325.083C373.819 324.647 373.462 311.589 373.462 296.063V267.835H380.712C387.236 267.835 387.962 268.06 387.962 270.08C387.962 272.201 388.214 272.158 392.554 269.289C395.988 267.018 398.87 266.15 403.987 265.843C413.089 265.298 419.487 268.57 424.212 276.189L427.558 281.584L427.938 302.346C428.377 326.352 428.474 326.101 419.005 325.56L413.058 325.22L412.459 306.277C412.129 295.859 411.44 286.439 410.929 285.344C408.756 280.689 400.409 278.791 394.816 281.68C389.715 284.316 388.743 288.006 388.046 307.392L387.405 325.22L381.226 325.547C377.827 325.727 374.69 325.518 374.254 325.083ZM439.772 324.363C439.474 323.585 439.364 310.674 439.528 295.671L439.828 268.393H454.328L454.627 295.554C454.837 314.655 454.548 323.169 453.654 324.246C451.988 326.251 440.534 326.347 439.772 324.363ZM440.3 254.55C436.256 250.511 436.143 246.786 439.927 242.293C445.649 235.5 456.001 239.391 456.001 248.336C456.001 257.109 446.589 260.833 440.3 254.55ZM311.786 255.992C311.4 255.606 314.145 251.595 317.885 247.078L324.685 238.865H337.638L344.117 246.719C347.681 251.04 350.764 255.051 350.969 255.633C351.18 256.237 348.015 256.693 343.613 256.693C337.282 256.693 335.517 256.287 333.85 254.447L331.816 252.201L329.423 254.447C327.529 256.225 325.514 256.693 319.759 256.693C315.76 256.693 312.172 256.377 311.786 255.992ZM151.237 230.018C144.716 227.923 135.885 220.756 135.885 217.558C135.885 216.656 143.409 211.475 146.36 210.343C147.12 210.052 149.096 211.067 150.75 212.599C157.308 218.67 167.689 219.023 174.001 213.389C176.817 210.876 177.546 209.227 178.02 204.298L178.599 198.276L175.054 201.257C166.36 208.565 151.012 207.937 141.254 199.875C128.631 189.444 127.586 167.101 139.18 155.518C149.248 145.46 165.459 143.611 174.791 151.455L178.107 154.242L178.467 151.704C178.8 149.361 179.382 149.167 186.077 149.167H193.327L193.627 177.023C193.803 193.42 193.445 207.199 192.755 210.518C191.342 217.322 186.742 223.244 179.637 227.403C175.209 229.995 173.043 230.465 164.383 230.711C158.831 230.869 152.916 230.557 151.237 230.018ZM168.546 190.538C177.531 186.713 180.998 176.326 175.845 168.666C168.138 157.211 150.805 159.457 147.235 172.373C143.709 185.13 156.213 195.788 168.546 190.538ZM460.385 211.13C407.422 199.605 370.426 148 376.809 94.5528C381.272 57.1873 402.591 27.0222 436.25 10.4475C453.915 1.7487 461.888 0 483.885 0C505.029 0 512.797 1.58891 529.2 9.26789C559.947 23.6619 582.804 52.4147 589.337 84.919C591.889 97.6147 591.13 122.149 587.806 134.435C584.798 145.552 577.445 160.566 570.557 169.657C566.447 175.081 565.503 177.018 566.623 177.727C567.434 178.241 568.348 178.696 568.655 178.739C568.961 178.783 573.981 179.435 579.809 180.19L590.405 181.561V200.423L582.597 200.074C555.637 198.87 531.64 187.431 506.595 163.845L497.516 155.295H469.823L465.979 159.284C463.865 161.478 457.242 167.323 451.26 172.272C445.279 177.222 440.385 181.476 440.385 181.727C440.385 182.739 457.03 189.768 463.808 191.619C473.87 194.367 494.147 194.353 503.962 191.591C507.95 190.469 512.467 189.336 514.001 189.072C517.515 188.469 533.984 197.401 534.04 199.941C534.082 201.871 521.46 207.467 510.097 210.557C499.539 213.429 472.385 213.742 460.385 211.13ZM432.578 162.149C434.725 160.565 442.229 153.988 449.254 147.532L462.027 135.796H506.137L514.252 143.72C523.935 153.176 535.269 162.712 541.08 166.291C546.065 169.362 546.241 169.265 553.788 159.319C567.664 141.033 574.131 116.843 570.952 95.1224C568.18 76.1851 560.986 61.1822 548.129 47.5284C529.729 27.9889 509.636 19.0966 483.885 19.0966C468.556 19.0966 457.779 21.6006 444.197 28.318C426.864 36.8902 414.132 49.7924 405.207 67.8259C398.883 80.6053 396.875 88.3503 396.1 102.942C395.585 112.66 395.885 116.266 397.862 124.074C401.656 139.06 407.872 150.864 418.542 163.338C423.57 169.217 422.921 169.272 432.578 162.149ZM460.362 123.878C441.239 114.352 428.919 90.6432 432.348 69.9677C434.292 58.2504 435.739 57.5383 446.892 62.8095C465.791 71.741 478.619 96.2782 475.192 116.94C473.234 128.74 471.63 129.491 460.362 123.878ZM488.014 125.64C485.07 124.737 482.35 123.184 481.968 122.191C480.882 119.363 486.885 109.125 492.955 103.453C503.331 93.7579 518.664 89.105 532.46 91.4657C540.657 92.8684 543.001 94.2832 543.001 97.8292C543.001 103.712 531.146 117.104 521.641 121.958C510.955 127.415 498.307 128.8 488.014 125.64ZM81.789 205.585C70.0837 200.254 64.1414 190.822 64.1097 177.521C64.0943 171.058 64.668 167.91 66.5813 163.962C77.3217 141.797 109.026 140.517 120.61 161.78C124.17 168.314 125.856 179.898 123.636 182.571C122.469 183.976 118.717 184.266 101.729 184.266C79.6753 184.266 78.471 184.63 83.8411 189.67C89.3369 194.828 97.5281 195.533 105.116 191.503L110.372 188.711L115.321 191.609C118.353 193.384 120.27 195.306 120.27 196.572C120.27 198.956 114.743 203.484 108.813 205.96C102.918 208.42 87.547 208.207 81.789 205.585ZM108.001 169.989C108.001 168.878 106.551 166.582 104.779 164.886C98.5982 158.97 86.4204 160.023 82.2645 166.831C81.0873 168.76 80.1223 170.714 80.12 171.173C80.1178 171.633 86.3899 172.009 94.0582 172.009C106.777 172.009 108.001 171.832 108.001 169.989ZM249.097 205.82C243.784 203.031 238.537 197.537 235.427 191.509C233.093 186.984 232.549 184.356 232.533 177.521C232.508 166.983 235.278 160.737 243.092 153.719C252.152 145.581 265.594 144.145 274.73 150.339C279.581 153.628 279.367 153.61 280.108 150.783C280.643 148.736 281.439 148.533 287.767 148.833L294.828 149.167L295.127 176.328C295.342 195.922 295.06 203.929 294.112 205.07C293.196 206.172 290.922 206.552 286.608 206.323C281.053 206.028 280.352 205.71 279.768 203.22C279.323 201.323 278.843 200.887 278.252 201.843C277.777 202.611 275.434 204.236 273.046 205.453C267.55 208.254 254.126 208.46 249.097 205.82ZM270.084 191.927C280.378 186.63 282.464 173.797 274.301 165.984C262.918 155.09 244.344 166.475 248.478 181.812C249.582 185.907 254.031 191.149 257.462 192.396C260.441 193.479 267.583 193.213 270.084 191.927ZM323.61 206.03C317.811 203.511 310.336 195.817 307.668 189.623C305.683 185.012 305.285 182.342 305.637 175.999C306.136 167.002 308.333 161.691 313.942 155.922C320.455 149.222 325.875 147.043 336.097 147.014C343.892 146.992 345.77 147.4 350.958 150.249C357.315 153.741 362.436 159.347 365.113 165.747C367.225 170.796 367.264 184.27 365.182 189.249C362.919 194.659 354.716 203.192 349.481 205.581C343.99 208.087 328.945 208.348 323.61 206.03ZM343.031 191.319C348.202 188.868 351.149 183.871 351.134 177.58C351.118 171.261 349.349 167.745 344.56 164.521C334.524 157.765 321.055 164.935 321.043 177.041C321.032 189.112 332.28 196.416 343.031 191.319ZM0.335746 205.203C0.0293162 204.406 -0.0892683 186.206 0.0722171 164.76L0.365836 125.767L18.5469 125.461C28.5465 125.292 38.6116 125.661 40.9138 126.281C43.216 126.9 47.2235 129.223 49.8193 131.442C59.1203 139.396 62.2921 151.321 57.8499 161.637C56.5009 164.77 54.1829 168.472 52.6988 169.865C51.2147 171.258 50.0005 172.979 50.0005 173.689C50.0005 174.4 52.5101 181.366 55.5774 189.17C58.6447 196.974 61.1543 204.099 61.1543 205.002C61.1543 206.335 59.539 206.584 52.5808 206.32L44.0073 205.994L34.0125 178.695H16.6076L15.9812 205.994L8.43706 206.324C3.02377 206.561 0.735522 206.244 0.335746 205.203ZM39.2989 160.967C44.9107 155.698 44.0128 145.726 37.6295 142.429C35.6507 141.406 31.1872 140.81 25.5174 140.81H16.5389V164.431L26.489 164.042C35.1696 163.702 36.804 163.31 39.2989 160.967ZM206.677 205.191C206.367 204.384 206.248 191.448 206.413 176.445L206.712 149.167L221.808 148.507L221.212 205.994L214.227 206.326C209.23 206.564 207.08 206.24 206.677 205.191ZM265.27 136.795C258.768 134.291 257.528 134.14 253.247 135.332C250.623 136.063 248.326 136.466 248.143 136.228C247.96 135.99 246.67 133.901 245.276 131.586C243.179 128.103 242.987 127.08 244.165 125.662C248.529 120.409 257.285 119.398 266.615 123.072C272.232 125.284 275.886 125.399 281.643 123.546C283.695 122.885 284.446 123.491 286.46 127.435C288.773 131.963 288.784 132.178 286.818 134.384C284.38 137.119 278.575 139.716 275.065 139.641C273.665 139.611 269.257 138.33 265.27 136.795ZM207.777 135.846C201.99 130.066 205.992 119.639 213.997 119.639C218.124 119.639 224.001 124.868 224.001 128.541C224.001 137.267 213.798 141.861 207.777 135.846ZM75.643 97.0752C68.4559 92.1887 65.5997 85.3436 67.1975 76.8351C69.8045 62.9527 89.185 57.5456 99.4786 67.8287C101.9 70.248 101.786 71.392 98.9722 72.8964C97.0652 73.9159 96.1946 73.7337 94.2318 71.9039C86.6425 64.8291 73.4416 70.5842 73.4277 80.9738C73.421 85.8023 76.5226 90.6788 80.7118 92.4274C86.0035 94.6362 88.116 94.4257 92.8472 91.2183C96.1036 89.0106 97.4215 88.6687 99.1375 89.5861C102.15 91.1969 101.891 92.155 97.3655 96.1241C93.8455 99.2116 92.6676 99.5823 86.3766 99.5823C80.9056 99.5823 78.506 99.0219 75.643 97.0752ZM108.447 95.7938C105.106 92.4568 104.654 91.3149 104.654 86.2112C104.654 81.1074 105.106 79.9656 108.447 76.6286C111.606 73.472 113.048 72.8429 117.091 72.8572C119.759 72.8661 122.651 73.3219 123.516 73.8691C124.474 74.4749 125.834 74.3994 126.993 73.6762C128.041 73.0229 129.717 72.8025 130.718 73.1864C133.435 74.2279 133.435 98.1945 130.718 99.236C129.717 99.6199 128.041 99.3995 126.993 98.7462C125.834 98.023 124.474 97.9475 123.516 98.5533C122.651 99.1005 119.759 99.5559 117.091 99.5652C113.048 99.5795 111.606 98.9504 108.447 95.7938ZM123.368 92.2764C125.113 91.055 125.847 89.4068 125.847 86.7051C125.847 79.6502 118.899 76.0073 113.749 80.3613C105.863 87.0272 114.89 98.2087 123.368 92.2764ZM140.347 89.6839C140.347 80.7227 140.136 79.7304 138.116 79.2028C136.743 78.8441 135.885 77.6829 135.885 76.1829C135.885 74.6828 136.743 73.5216 138.116 73.163C139.343 72.8424 140.347 71.6638 140.347 70.5438C140.347 67.3644 145.006 62.925 148.712 62.5727C151.45 62.3124 152.123 62.71 152.414 64.7599C152.672 66.5687 152.016 67.5517 150.057 68.2959C145.968 69.849 145.381 72.6271 149.052 73.0505C151.423 73.3239 152.058 73.9863 152.058 76.1829C152.058 78.3934 151.425 79.0413 148.991 79.3211L145.924 79.6737V89.628C145.924 99.5031 145.901 99.5823 143.135 99.5823C140.37 99.5823 140.347 99.4994 140.347 89.6839ZM156.408 95.7938C153.314 92.7026 152.616 91.1543 152.616 87.3816C152.616 78.1114 157.598 72.8401 166.36 72.8401C171.06 72.8401 172.317 73.3557 175.593 76.6286C178.501 79.5339 179.385 81.3521 179.385 84.4284V88.4397H169.347C163.826 88.4397 159.308 88.8634 159.308 89.3813C159.308 91.2669 163.461 94.011 166.315 94.011C167.925 94.011 170.539 93.4207 172.124 92.6992C174.479 91.6271 175.321 91.7014 176.726 93.1059C178.277 94.6545 178.147 95.0598 175.419 97.2034C173.167 98.9733 170.832 99.5823 166.296 99.5823C160.851 99.5823 159.796 99.178 156.408 95.7938ZM172.693 82.3505C172.693 78.6024 164.791 77.1431 161.348 80.2555C158.028 83.2569 158.934 83.9827 166.001 83.9827C171.134 83.9827 172.693 83.6026 172.693 82.3505ZM184.095 97.8477C182.731 96.8937 181.616 95.4233 181.616 94.58C181.616 92.4762 185.834 91.3081 187.737 92.8852C189.751 94.5552 195.558 93.8884 195.558 91.9872C195.558 91.1805 192.798 89.4239 189.424 88.0837C183.483 85.7241 183.278 85.5005 182.951 81.0194C182.676 77.2469 183.082 76.0637 185.151 74.616C188.807 72.058 196.252 72.3199 199.252 75.112C202.246 77.8987 202.25 78.035 199.391 79.5638C197.697 80.4696 196.682 80.4574 195.548 79.5174C193.49 77.8109 188.866 78.5538 188.866 80.5909C188.866 81.5588 190.891 82.791 193.885 83.6452C202.503 86.1037 205.156 91.7667 200.07 96.8473C197.921 98.995 196.178 99.5823 191.953 99.5823C188.89 99.5823 185.507 98.8356 184.095 97.8477ZM222.216 95.7938C218.876 92.4568 218.424 91.3149 218.424 86.2112C218.424 81.1074 218.876 79.9656 222.216 76.6286C225.376 73.472 226.818 72.8429 230.86 72.8572C233.529 72.8661 236.465 73.3538 237.385 73.9399C238.775 74.8252 239.153 74.0208 239.616 69.1872C240.125 63.8724 240.415 63.3689 242.962 63.3689H245.751L246.058 80.9425C246.329 96.4563 246.148 98.5993 244.516 99.2251C243.499 99.615 241.81 99.3995 240.763 98.7462C239.603 98.023 238.243 97.9475 237.285 98.5533C236.42 99.1005 233.529 99.5559 230.86 99.5652C226.818 99.5795 225.376 98.9504 222.216 95.7938ZM237.137 92.2764C238.883 91.055 239.616 89.4068 239.616 86.7051C239.616 79.6502 232.669 76.0073 227.518 80.3613C219.632 87.0272 228.659 98.2087 237.137 92.2764ZM255.18 96.5181C249.081 91.0739 249.543 80.1758 256.09 75.0308C259.198 72.589 266.261 72.0989 269.947 74.0694C271.663 74.9869 272.456 74.9591 273.074 73.9597C273.53 73.2233 274.846 72.8015 276 73.0224C277.888 73.3842 278.128 74.7246 278.411 86.5032L278.725 99.5823H275.994C274.492 99.5823 273.033 98.9555 272.752 98.1895C272.343 97.0752 271.945 97.0752 270.763 98.1895C269.95 98.9555 266.884 99.5823 263.949 99.5823C259.703 99.5823 257.911 98.956 255.18 96.5181ZM270.286 91.7859C273.049 88.7356 272.734 82.8446 269.675 80.37C262.17 74.2989 252.631 84.6023 259.122 91.7681C261.791 94.7141 267.625 94.7234 270.286 91.7859ZM162.654 69.9991C162.654 69.6622 163.42 67.9073 164.356 66.0992C165.662 63.5767 166.83 62.8117 169.375 62.8117C173.316 62.8117 173.393 63.1575 170.386 67.3754C168.923 69.4286 167.088 70.6116 165.367 70.6116C163.875 70.6116 162.654 70.336 162.654 69.9991Z" fill="#415A3F"/>
</svg>
