<svg width="395" height="320" viewBox="0 0 395 320" fill="none" xmlns="http://www.w3.org/2000/svg">
<path d="M123.1 203.184V191.955H174.591V203.184H155.397V256.375H142.295V203.184H123.1Z" fill="#162E50"/>
<path d="M206.582 235.803V208.06H219.623V256.375H207.102V247.599H206.613C205.551 250.43 203.786 252.705 201.316 254.425C198.867 256.144 195.878 257.004 192.347 257.004C189.204 257.004 186.439 256.27 184.051 254.802C181.663 253.334 179.796 251.248 178.449 248.543C177.122 245.838 176.449 242.598 176.428 238.823V208.06H189.469V236.432C189.49 239.284 190.235 241.539 191.704 243.195C193.173 244.852 195.143 245.68 197.612 245.68C199.184 245.68 200.653 245.313 202.021 244.579C203.388 243.824 204.49 242.713 205.327 241.245C206.184 239.777 206.602 237.963 206.582 235.803Z" fill="#162E50"/>
<path d="M230.054 256.375V208.06H242.698V216.49H243.187C244.045 213.491 245.483 211.226 247.504 209.695C249.524 208.144 251.851 207.368 254.484 207.368C255.137 207.368 255.841 207.41 256.596 207.493C257.351 207.577 258.014 207.693 258.586 207.84V219.73C257.973 219.541 257.126 219.373 256.045 219.226C254.963 219.08 253.973 219.006 253.075 219.006C251.157 219.006 249.443 219.436 247.932 220.296C246.443 221.135 245.259 222.309 244.381 223.819C243.524 225.329 243.096 227.069 243.096 229.04V256.375H230.054Z" fill="#162E50"/>
<path d="M265.328 256.375V208.06H278.369V256.375H265.328ZM271.879 201.832C269.941 201.832 268.277 201.171 266.889 199.85C265.522 198.508 264.838 196.904 264.838 195.037C264.838 193.192 265.522 191.609 266.889 190.287C268.277 188.945 269.941 188.274 271.879 188.274C273.818 188.274 275.471 188.945 276.839 190.287C278.226 191.609 278.92 193.192 278.92 195.037C278.92 196.904 278.226 198.508 276.839 199.85C275.471 201.171 273.818 201.832 271.879 201.832Z" fill="#162E50"/>
<path d="M301.857 228.443V256.375H288.816V208.06H301.245V216.584H301.796C302.837 213.774 304.582 211.551 307.031 209.916C309.48 208.259 312.449 207.431 315.939 207.431C319.204 207.431 322.052 208.165 324.48 209.632C326.909 211.1 328.797 213.197 330.144 215.924C331.491 218.629 332.164 221.858 332.164 225.612V256.375H319.123V228.002C319.143 225.046 318.409 222.739 316.919 221.082C315.429 219.405 313.378 218.566 310.766 218.566C309.01 218.566 307.459 218.954 306.112 219.73C304.786 220.506 303.745 221.638 302.99 223.127C302.255 224.595 301.878 226.367 301.857 228.443Z" fill="#162E50"/>
<path d="M363.626 275.5C359.402 275.5 355.779 274.902 352.759 273.707C349.759 272.533 347.371 270.928 345.595 268.894C343.82 266.86 342.667 264.574 342.136 262.037L354.198 260.37C354.565 261.334 355.147 262.236 355.943 263.075C356.739 263.914 357.79 264.585 359.096 265.088C360.422 265.612 362.035 265.875 363.933 265.875C366.769 265.875 369.106 265.162 370.943 263.736C372.8 262.331 373.729 259.971 373.729 256.658V247.819H373.178C372.606 249.161 371.749 250.43 370.606 251.625C369.463 252.821 367.994 253.796 366.198 254.551C364.402 255.306 362.259 255.683 359.769 255.683C356.239 255.683 353.024 254.844 350.126 253.167C347.249 251.468 344.953 248.878 343.238 245.397C341.544 241.895 340.697 237.47 340.697 232.123C340.697 226.65 341.565 222.078 343.299 218.408C345.034 214.739 347.34 211.992 350.218 210.167C353.116 208.343 356.29 207.431 359.739 207.431C362.371 207.431 364.575 207.892 366.351 208.815C368.127 209.716 369.555 210.849 370.637 212.212C371.739 213.554 372.586 214.875 373.178 216.175H373.668V208.06H386.617V256.847C386.617 260.957 385.637 264.396 383.678 267.164C381.719 269.932 379.004 272.008 375.535 273.392C372.086 274.797 368.116 275.5 363.626 275.5ZM363.902 245.617C366.004 245.617 367.78 245.083 369.229 244.013C370.698 242.923 371.821 241.371 372.596 239.358C373.392 237.324 373.79 234.891 373.79 232.06C373.79 229.229 373.402 226.776 372.627 224.7C371.851 222.603 370.729 220.977 369.259 219.824C367.79 218.671 366.004 218.094 363.902 218.094C361.759 218.094 359.953 218.692 358.483 219.887C357.014 221.061 355.902 222.697 355.147 224.794C354.392 226.891 354.014 229.313 354.014 232.06C354.014 234.849 354.392 237.261 355.147 239.295C355.922 241.308 357.034 242.87 358.483 243.982C359.953 245.072 361.759 245.617 363.902 245.617Z" fill="#162E50"/>
<path d="M20.6026 256.375V191.955H62.8485V203.184H33.858V218.534H60.675V229.764H33.858V245.145H62.9709V256.375H20.6026Z" fill="#162E50"/>
<path d="M98.4896 191.955H111.592V236.873C111.592 241.025 110.684 244.632 108.867 247.693C107.071 250.755 104.571 253.114 101.367 254.771C98.1631 256.427 94.4385 257.256 90.1935 257.256C86.4179 257.256 82.9893 256.574 79.9076 255.211C76.8463 253.827 74.4176 251.73 72.6217 248.92C70.8257 246.089 69.9379 242.535 69.9583 238.257H83.1525C83.1934 239.955 83.5301 241.413 84.1628 242.629C84.8158 243.824 85.7036 244.747 86.8261 245.397C87.969 246.026 89.316 246.341 90.867 246.341C92.4997 246.341 93.8773 245.984 94.9998 245.271C96.1426 244.537 97.01 243.468 97.6019 242.063C98.1937 240.658 98.4896 238.928 98.4896 236.873V191.955Z" fill="#162E50"/>
<path d="M5.68725 282.755V310.394H0V282.755H5.68725Z" fill="#162E50"/>
<path d="M15.8567 298.41V310.394H10.2614V289.665H15.594V293.322H15.8304C16.277 292.116 17.0256 291.163 18.0764 290.461C19.1272 289.75 20.4012 289.395 21.8985 289.395C23.2996 289.395 24.5211 289.71 25.5631 290.339C26.6051 290.969 27.4151 291.869 27.993 293.039C28.5709 294.199 28.8598 295.585 28.8598 297.195V310.394H23.2645V298.221C23.2733 296.952 22.9581 295.963 22.3189 295.252C21.6796 294.532 20.7996 294.172 19.6788 294.172C18.9258 294.172 18.2603 294.339 17.6824 294.672C17.1132 295.004 16.6666 295.49 16.3426 296.129C16.0274 296.759 15.8654 297.519 15.8567 298.41Z" fill="#162E50"/>
<path d="M42.3851 310.799C40.3449 310.799 38.5805 310.354 37.0919 309.463C35.6121 308.563 34.4694 307.313 33.6638 305.711C32.8582 304.101 32.4554 302.234 32.4554 300.11C32.4554 297.969 32.8582 296.098 33.6638 294.496C34.4694 292.886 35.6121 291.635 37.0919 290.744C38.5805 289.844 40.3449 289.395 42.3851 289.395C44.4254 289.395 46.1854 289.844 47.6652 290.744C49.1538 291.635 50.3009 292.886 51.1065 294.496C51.912 296.098 52.3148 297.969 52.3148 300.11C52.3148 302.234 51.912 304.101 51.1065 305.711C50.3009 307.313 49.1538 308.563 47.6652 309.463C46.1854 310.354 44.4254 310.799 42.3851 310.799ZM42.4114 306.346C43.3396 306.346 44.1145 306.076 44.7362 305.536C45.3579 304.987 45.8264 304.24 46.1416 303.295C46.4656 302.351 46.6276 301.276 46.6276 300.07C46.6276 298.864 46.4656 297.789 46.1416 296.844C45.8264 295.9 45.3579 295.153 44.7362 294.604C44.1145 294.055 43.3396 293.781 42.4114 293.781C41.4745 293.781 40.6864 294.055 40.0472 294.604C39.4167 295.153 38.9395 295.9 38.6155 296.844C38.3003 297.789 38.1427 298.864 38.1427 300.07C38.1427 301.276 38.3003 302.351 38.6155 303.295C38.9395 304.24 39.4167 304.987 40.0472 305.536C40.6864 306.076 41.4745 306.346 42.4114 306.346Z" fill="#162E50"/>
<path d="M74.1116 289.665L67.0583 310.394H60.7538L53.7005 289.665H59.6111L63.801 304.497H64.0111L68.1879 289.665H74.1116Z" fill="#162E50"/>
<path d="M82.186 310.786C80.8989 310.786 79.7518 310.556 78.7448 310.097C77.7378 309.63 76.941 308.941 76.3543 308.033C75.7764 307.115 75.4874 305.972 75.4874 304.605C75.4874 303.453 75.6932 302.486 76.1048 301.703C76.5163 300.92 77.0767 300.29 77.786 299.813C78.4952 299.337 79.3008 298.977 80.2027 298.734C81.1134 298.491 82.0678 298.32 83.0661 298.221C84.2394 298.095 85.1851 297.978 85.9031 297.87C86.6211 297.753 87.1421 297.582 87.4661 297.357C87.7901 297.132 87.9521 296.799 87.9521 296.359V296.278C87.9521 295.423 87.6894 294.762 87.164 294.294C86.6474 293.826 85.9119 293.592 84.9574 293.592C83.9505 293.592 83.1492 293.821 82.5538 294.28C81.9584 294.73 81.5643 295.297 81.3717 295.981L76.1967 295.549C76.4594 294.289 76.976 293.2 77.7466 292.283C78.5171 291.356 79.511 290.645 80.7281 290.15C81.954 289.647 83.3725 289.395 84.9837 289.395C86.1045 289.395 87.1772 289.53 88.2017 289.799C89.2349 290.069 90.1499 290.488 90.9468 291.055C91.7524 291.621 92.3872 292.35 92.8513 293.241C93.3154 294.123 93.5474 295.18 93.5474 296.413V310.394H88.2411V307.52H88.0835C87.7595 308.167 87.326 308.739 86.7831 309.234C86.2402 309.72 85.5879 310.102 84.8261 310.381C84.0643 310.651 83.1843 310.786 82.186 310.786ZM83.7885 306.818C84.6116 306.818 85.3383 306.651 85.9688 306.319C86.5993 305.977 87.094 305.518 87.453 304.942C87.812 304.366 87.9915 303.714 87.9915 302.985V300.785C87.8164 300.902 87.5756 301.01 87.2691 301.109C86.9714 301.199 86.6343 301.285 86.2578 301.366C85.8812 301.438 85.5047 301.505 85.1282 301.568C84.7517 301.622 84.4102 301.671 84.1037 301.716C83.447 301.815 82.8734 301.973 82.3831 302.189C81.8927 302.405 81.5118 302.697 81.2404 303.066C80.9689 303.426 80.8332 303.876 80.8332 304.416C80.8332 305.198 81.109 305.797 81.6607 306.211C82.2211 306.615 82.9303 306.818 83.7885 306.818Z" fill="#162E50"/>
<path d="M107.004 310.799C104.937 310.799 103.16 310.349 101.671 309.45C100.191 308.541 99.053 307.281 98.2561 305.671C97.4681 304.06 97.074 302.207 97.074 300.11C97.074 297.987 97.4725 296.125 98.2693 294.523C99.0749 292.913 100.218 291.657 101.697 290.758C103.177 289.849 104.937 289.395 106.977 289.395C108.738 289.395 110.279 289.723 111.601 290.38C112.923 291.037 113.969 291.959 114.74 293.146C115.511 294.334 115.935 295.729 116.014 297.33H110.734C110.585 296.296 110.191 295.463 109.552 294.833C108.921 294.195 108.094 293.875 107.069 293.875C106.203 293.875 105.445 294.118 104.797 294.604C104.158 295.081 103.659 295.778 103.3 296.696C102.941 297.614 102.761 298.725 102.761 300.029C102.761 301.352 102.936 302.477 103.287 303.403C103.646 304.33 104.149 305.036 104.797 305.522C105.445 306.008 106.203 306.251 107.069 306.251C107.709 306.251 108.282 306.116 108.79 305.846C109.307 305.576 109.731 305.185 110.064 304.672C110.406 304.15 110.629 303.525 110.734 302.796H116.014C115.926 304.38 115.506 305.774 114.753 306.98C114.009 308.176 112.98 309.112 111.666 309.787C110.353 310.462 108.799 310.799 107.004 310.799ZM105.69 310.286H108.265L108.055 311.46C108.956 311.604 109.692 311.951 110.261 312.5C110.839 313.048 111.132 313.795 111.141 314.74C111.15 316.081 110.546 317.147 109.329 317.939C108.111 318.739 106.404 319.14 104.206 319.14L104.154 316.575C105.257 316.575 106.119 316.436 106.741 316.157C107.372 315.887 107.7 315.464 107.726 314.888C107.744 314.34 107.538 313.921 107.109 313.633C106.68 313.345 106.01 313.143 105.099 313.026L105.69 310.286Z" fill="#162E50"/>
<path d="M125.349 310.786C124.062 310.786 122.915 310.556 121.908 310.097C120.901 309.63 120.104 308.941 119.518 308.033C118.94 307.115 118.651 305.972 118.651 304.605C118.651 303.453 118.857 302.486 119.268 301.703C119.68 300.92 120.24 300.29 120.949 299.813C121.659 299.337 122.464 298.977 123.366 298.734C124.277 298.491 125.231 298.32 126.229 298.221C127.403 298.095 128.348 297.978 129.066 297.87C129.784 297.753 130.305 297.582 130.629 297.357C130.953 297.132 131.115 296.799 131.115 296.359V296.278C131.115 295.423 130.853 294.762 130.327 294.294C129.811 293.826 129.075 293.592 128.121 293.592C127.114 293.592 126.313 293.821 125.717 294.28C125.122 294.73 124.728 295.297 124.535 295.981L119.36 295.549C119.623 294.289 120.139 293.2 120.91 292.283C121.68 291.356 122.674 290.645 123.891 290.15C125.117 289.647 126.536 289.395 128.147 289.395C129.268 289.395 130.341 289.53 131.365 289.799C132.398 290.069 133.313 290.488 134.11 291.055C134.916 291.621 135.551 292.35 136.015 293.241C136.479 294.123 136.711 295.18 136.711 296.413V310.394H131.404V307.52H131.247C130.923 308.167 130.489 308.739 129.946 309.234C129.404 309.72 128.751 310.102 127.989 310.381C127.228 310.651 126.348 310.786 125.349 310.786ZM126.952 306.818C127.775 306.818 128.502 306.651 129.132 306.319C129.763 305.977 130.257 305.518 130.616 304.942C130.975 304.366 131.155 303.714 131.155 302.985V300.785C130.98 300.902 130.739 301.01 130.432 301.109C130.135 301.199 129.798 301.285 129.421 301.366C129.045 301.438 128.668 301.505 128.292 301.568C127.915 301.622 127.574 301.671 127.267 301.716C126.61 301.815 126.037 301.973 125.546 302.189C125.056 302.405 124.675 302.697 124.404 303.066C124.132 303.426 123.997 303.876 123.997 304.416C123.997 305.198 124.272 305.797 124.824 306.211C125.384 306.615 126.094 306.818 126.952 306.818ZM124.601 287.114L121.488 287.073C121.488 285.355 121.899 284.037 122.722 283.119C123.554 282.201 124.566 281.738 125.757 281.729C126.37 281.729 126.895 281.832 127.333 282.039C127.779 282.237 128.178 282.471 128.528 282.741C128.887 283.011 129.228 283.249 129.552 283.456C129.876 283.654 130.227 283.753 130.603 283.753C131.111 283.744 131.496 283.551 131.759 283.173C132.031 282.786 132.166 282.282 132.166 281.661L135.227 281.756C135.209 283.456 134.789 284.77 133.966 285.697C133.143 286.614 132.14 287.078 130.958 287.087C130.301 287.087 129.749 286.988 129.303 286.79C128.865 286.583 128.48 286.349 128.147 286.088C127.814 285.818 127.49 285.58 127.175 285.373C126.86 285.166 126.505 285.062 126.111 285.062C125.656 285.062 125.288 285.247 125.008 285.616C124.736 285.985 124.601 286.484 124.601 287.114Z" fill="#162E50"/>
<path d="M150.167 310.799C148.127 310.799 146.362 310.354 144.874 309.463C143.394 308.563 142.251 307.313 141.446 305.711C140.64 304.101 140.237 302.234 140.237 300.11C140.237 297.969 140.64 296.098 141.446 294.496C142.251 292.886 143.394 291.635 144.874 290.744C146.362 289.844 148.127 289.395 150.167 289.395C152.207 289.395 153.967 289.844 155.447 290.744C156.936 291.635 158.083 292.886 158.888 294.496C159.694 296.098 160.097 297.969 160.097 300.11C160.097 302.234 159.694 304.101 158.888 305.711C158.083 307.313 156.936 308.563 155.447 309.463C153.967 310.354 152.207 310.799 150.167 310.799ZM150.193 306.346C151.122 306.346 151.896 306.076 152.518 305.536C153.14 304.987 153.608 304.24 153.924 303.295C154.248 302.351 154.41 301.276 154.41 300.07C154.41 298.864 154.248 297.789 153.924 296.844C153.608 295.9 153.14 295.153 152.518 294.604C151.896 294.055 151.122 293.781 150.193 293.781C149.256 293.781 148.468 294.055 147.829 294.604C147.199 295.153 146.721 295.9 146.397 296.844C146.082 297.789 145.925 298.864 145.925 300.07C145.925 301.276 146.082 302.351 146.397 303.295C146.721 304.24 147.199 304.987 147.829 305.536C148.468 306.076 149.256 306.346 150.193 306.346Z" fill="#162E50"/>
<path d="M181.49 310.799C179.414 310.799 177.628 310.367 176.131 309.504C174.642 308.631 173.495 307.398 172.69 305.806C171.884 304.204 171.481 302.31 171.481 300.124C171.481 297.992 171.884 296.12 172.69 294.51C173.495 292.899 174.629 291.644 176.091 290.744C177.562 289.844 179.287 289.395 181.266 289.395C182.597 289.395 183.836 289.615 184.983 290.056C186.139 290.488 187.146 291.14 188.004 292.013C188.871 292.886 189.546 293.983 190.027 295.306C190.509 296.619 190.75 298.158 190.75 299.921V301.5H173.714V297.938H185.483C185.483 297.11 185.307 296.377 184.957 295.738C184.607 295.099 184.121 294.6 183.499 294.24C182.886 293.871 182.173 293.686 181.358 293.686C180.509 293.686 179.756 293.889 179.099 294.294C178.451 294.69 177.943 295.225 177.576 295.9C177.208 296.565 177.02 297.308 177.011 298.126V301.514C177.011 302.54 177.195 303.426 177.562 304.173C177.939 304.919 178.469 305.495 179.152 305.9C179.835 306.305 180.645 306.507 181.582 306.507C182.203 306.507 182.772 306.417 183.289 306.238C183.806 306.058 184.248 305.788 184.616 305.428C184.983 305.068 185.264 304.627 185.456 304.105L190.631 304.456C190.369 305.734 189.83 306.849 189.016 307.803C188.21 308.748 187.168 309.486 185.89 310.016C184.62 310.538 183.153 310.799 181.49 310.799Z" fill="#162E50"/>
<path d="M203.066 310.394V282.755H221.192V287.573H208.754V294.159H220.26V298.977H208.754V305.576H221.245V310.394H203.066Z" fill="#162E50"/>
<path d="M230.284 289.665L233.988 296.912L237.784 289.665H243.524L237.679 300.029L243.682 310.394H237.968L233.988 303.228L230.074 310.394H224.295L230.284 300.029L224.505 289.665H230.284Z" fill="#162E50"/>
<path d="M255.24 310.799C253.174 310.799 251.396 310.349 249.907 309.45C248.428 308.541 247.289 307.281 246.492 305.671C245.704 304.06 245.31 302.207 245.31 300.11C245.31 297.987 245.709 296.125 246.506 294.523C247.311 292.913 248.454 291.657 249.934 290.758C251.414 289.849 253.174 289.395 255.214 289.395C256.974 289.395 258.515 289.723 259.837 290.38C261.159 291.037 262.206 291.959 262.976 293.146C263.747 294.334 264.172 295.729 264.25 297.33H258.97C258.821 296.296 258.427 295.463 257.788 294.833C257.158 294.195 256.33 293.875 255.306 293.875C254.439 293.875 253.681 294.118 253.033 294.604C252.394 295.081 251.895 295.778 251.536 296.696C251.177 297.614 250.998 298.725 250.998 300.029C250.998 301.352 251.173 302.477 251.523 303.403C251.882 304.33 252.385 305.036 253.033 305.522C253.681 306.008 254.439 306.251 255.306 306.251C255.945 306.251 256.518 306.116 257.026 305.846C257.543 305.576 257.968 305.185 258.3 304.672C258.642 304.15 258.865 303.525 258.97 302.796H264.25C264.163 304.38 263.742 305.774 262.989 306.98C262.245 308.176 261.216 309.112 259.903 309.787C258.589 310.462 257.035 310.799 255.24 310.799Z" fill="#162E50"/>
<path d="M277.027 310.799C274.952 310.799 273.165 310.367 271.668 309.504C270.18 308.631 269.032 307.398 268.227 305.806C267.421 304.204 267.018 302.31 267.018 300.124C267.018 297.992 267.421 296.12 268.227 294.51C269.032 292.899 270.166 291.644 271.629 290.744C273.1 289.844 274.825 289.395 276.804 289.395C278.135 289.395 279.374 289.615 280.521 290.056C281.677 290.488 282.684 291.14 283.542 292.013C284.409 292.886 285.083 293.983 285.564 295.306C286.046 296.619 286.287 298.158 286.287 299.921V301.5H269.251V297.938H281.02C281.02 297.11 280.845 296.377 280.494 295.738C280.144 295.099 279.658 294.6 279.037 294.24C278.424 293.871 277.71 293.686 276.896 293.686C276.046 293.686 275.293 293.889 274.636 294.294C273.989 294.69 273.481 295.225 273.113 295.9C272.745 296.565 272.557 297.308 272.548 298.126V301.514C272.548 302.54 272.732 303.426 273.1 304.173C273.476 304.919 274.006 305.495 274.689 305.9C275.372 306.305 276.182 306.507 277.119 306.507C277.741 306.507 278.31 306.417 278.826 306.238C279.343 306.058 279.785 305.788 280.153 305.428C280.521 305.068 280.801 304.627 280.994 304.105L286.169 304.456C285.906 305.734 285.367 306.849 284.553 307.803C283.747 308.748 282.705 309.486 281.427 310.016C280.157 310.538 278.691 310.799 277.027 310.799Z" fill="#162E50"/>
<path d="M295.534 282.755V310.394H289.938V282.755H295.534Z" fill="#162E50"/>
<path d="M309.21 310.799C307.135 310.799 305.348 310.367 303.851 309.504C302.362 308.631 301.215 307.398 300.41 305.806C299.604 304.204 299.201 302.31 299.201 300.124C299.201 297.992 299.604 296.12 300.41 294.51C301.215 292.899 302.349 291.644 303.812 290.744C305.283 289.844 307.008 289.395 308.987 289.395C310.318 289.395 311.557 289.615 312.704 290.056C313.859 290.488 314.866 291.14 315.725 292.013C316.591 292.886 317.266 293.983 317.747 295.306C318.229 296.619 318.47 298.158 318.47 299.921V301.5H301.434V297.938H313.203C313.203 297.11 313.028 296.377 312.677 295.738C312.327 295.099 311.841 294.6 311.219 294.24C310.606 293.871 309.893 293.686 309.078 293.686C308.229 293.686 307.476 293.889 306.819 294.294C306.171 294.69 305.664 295.225 305.296 295.9C304.928 296.565 304.74 297.308 304.731 298.126V301.514C304.731 302.54 304.915 303.426 305.283 304.173C305.659 304.919 306.189 305.495 306.872 305.9C307.555 306.305 308.365 306.507 309.302 306.507C309.923 306.507 310.493 306.417 311.009 306.238C311.526 306.058 311.968 305.788 312.336 305.428C312.704 305.068 312.984 304.627 313.176 304.105L318.352 304.456C318.089 305.734 317.55 306.849 316.736 307.803C315.93 308.748 314.888 309.486 313.61 310.016C312.34 310.538 310.874 310.799 309.21 310.799ZM311.495 287.181L308.855 283.888L306.215 287.181H301.447V286.992L306.767 281.054H310.93L316.263 286.992V287.181H311.495Z" fill="#162E50"/>
<path d="M327.716 298.41V310.394H322.121V289.665H327.454V293.322H327.69C328.137 292.116 328.885 291.163 329.936 290.461C330.987 289.75 332.261 289.395 333.758 289.395C335.159 289.395 336.381 289.71 337.423 290.339C338.465 290.969 339.275 291.869 339.853 293.039C340.431 294.199 340.72 295.585 340.72 297.195V310.394H335.124V298.221C335.133 296.952 334.818 295.963 334.179 295.252C333.539 294.532 332.659 294.172 331.539 294.172C330.785 294.172 330.12 294.339 329.542 294.672C328.973 295.004 328.526 295.49 328.202 296.129C327.887 296.759 327.725 297.519 327.716 298.41Z" fill="#162E50"/>
<path d="M354.245 310.799C352.178 310.799 350.401 310.349 348.912 309.45C347.432 308.541 346.294 307.281 345.497 305.671C344.709 304.06 344.315 302.207 344.315 300.11C344.315 297.987 344.714 296.125 345.51 294.523C346.316 292.913 347.459 291.657 348.939 290.758C350.418 289.849 352.178 289.395 354.219 289.395C355.979 289.395 357.52 289.723 358.842 290.38C360.164 291.037 361.211 291.959 361.981 293.146C362.752 294.334 363.176 295.729 363.255 297.33H357.975C357.826 296.296 357.432 295.463 356.793 294.833C356.163 294.195 355.335 293.875 354.311 293.875C353.444 293.875 352.686 294.118 352.038 294.604C351.399 295.081 350.9 295.778 350.541 296.696C350.182 297.614 350.002 298.725 350.002 300.029C350.002 301.352 350.178 302.477 350.528 303.403C350.887 304.33 351.39 305.036 352.038 305.522C352.686 306.008 353.444 306.251 354.311 306.251C354.95 306.251 355.523 306.116 356.031 305.846C356.548 305.576 356.972 305.185 357.305 304.672C357.647 304.15 357.87 303.525 357.975 302.796H363.255C363.168 304.38 362.747 305.774 361.994 306.98C361.25 308.176 360.221 309.112 358.908 309.787C357.594 310.462 356.04 310.799 354.245 310.799Z" fill="#162E50"/>
<path d="M366.838 310.394V289.665H372.433V310.394H366.838ZM369.648 286.992C368.817 286.992 368.103 286.709 367.507 286.142C366.921 285.566 366.627 284.878 366.627 284.077C366.627 283.285 366.921 282.606 367.507 282.039C368.103 281.464 368.817 281.176 369.648 281.176C370.48 281.176 371.19 281.464 371.776 282.039C372.372 282.606 372.669 283.285 372.669 284.077C372.669 284.878 372.372 285.566 371.776 286.142C371.19 286.709 370.48 286.992 369.648 286.992Z" fill="#162E50"/>
<path d="M382.668 310.786C381.381 310.786 380.234 310.556 379.227 310.097C378.22 309.63 377.423 308.941 376.836 308.033C376.258 307.115 375.969 305.972 375.969 304.605C375.969 303.453 376.175 302.486 376.587 301.703C376.998 300.92 377.559 300.29 378.268 299.813C378.977 299.337 379.783 298.977 380.685 298.734C381.595 298.491 382.55 298.32 383.548 298.221C384.721 298.095 385.667 297.978 386.385 297.87C387.103 297.753 387.624 297.582 387.948 297.357C388.272 297.132 388.434 296.799 388.434 296.359V296.278C388.434 295.423 388.171 294.762 387.646 294.294C387.129 293.826 386.394 293.592 385.439 293.592C384.432 293.592 383.631 293.821 383.036 294.28C382.44 294.73 382.046 295.297 381.854 295.981L376.679 295.549C376.941 294.289 377.458 293.2 378.229 292.283C378.999 291.356 379.993 290.645 381.21 290.15C382.436 289.647 383.854 289.395 385.466 289.395C386.586 289.395 387.659 289.53 388.684 289.799C389.717 290.069 390.632 290.488 391.429 291.055C392.234 291.621 392.869 292.35 393.333 293.241C393.797 294.123 394.029 295.18 394.029 296.413V310.394H388.723V307.52H388.565C388.241 308.167 387.808 308.739 387.265 309.234C386.722 309.72 386.07 310.102 385.308 310.381C384.546 310.651 383.666 310.786 382.668 310.786ZM384.27 306.818C385.094 306.818 385.82 306.651 386.451 306.319C387.081 305.977 387.576 305.518 387.935 304.942C388.294 304.366 388.473 303.714 388.473 302.985V300.785C388.298 300.902 388.058 301.01 387.751 301.109C387.453 301.199 387.116 301.285 386.74 301.366C386.363 301.438 385.987 301.505 385.61 301.568C385.234 301.622 384.892 301.671 384.586 301.716C383.929 301.815 383.355 301.973 382.865 302.189C382.375 302.405 381.994 302.697 381.722 303.066C381.451 303.426 381.315 303.876 381.315 304.416C381.315 305.198 381.591 305.797 382.143 306.211C382.703 306.615 383.412 306.818 384.27 306.818Z" fill="#162E50"/>
<path d="M96.0615 0.609985H298.436L285.664 16.2859H108.834L96.0615 0.609985Z" fill="#162E50"/>
<path d="M168.697 74.9066L191.714 47.7836V157.442L168.697 142.568V74.9066Z" fill="#162E50"/>
<path d="M197.249 41.659L212.15 21.5015H280.271L266.363 40.2281H219.53V175.524L197.249 159.484V41.659Z" fill="#162E50"/>
<path d="M113.082 21.5016L205.22 21.8047L168.697 66.9032V40.2283H129.736L113.082 21.5016Z" fill="#FFD700"/>
</svg>
